<svg width="35" height="36" viewBox="0 0 35 36" fill="none" xmlns="http://www.w3.org/2000/svg">
<path d="M17.5 0.598633C8.3735 0.598633 0.975098 8.41576 0.975098 18.0588C0.975098 27.7017 8.3735 35.5189 17.5 35.5189C26.6264 35.5189 34.0248 27.7017 34.0248 18.0588C34.0248 8.41576 26.6264 0.598633 17.5 0.598633ZM23.8043 9.49034L21.5187 9.49142C19.7264 9.49142 19.3798 10.3913 19.3798 11.7117V14.6232H23.6538L23.6518 19.1833H19.3802V30.8858H14.9222V19.1833H11.1957V14.6232H14.9222V11.2601C14.9222 7.35726 17.1791 5.23168 20.4739 5.23168L23.8046 5.23704L23.8043 9.49034Z" fill="white"/>
</svg>
