<svg width="30" height="32" viewBox="0 0 30 32" fill="none" xmlns="http://www.w3.org/2000/svg">
<path d="M15.0214 20.3437C17.4732 20.3437 19.4608 18.3086 19.4608 15.7983C19.4608 13.288 17.4732 11.2529 15.0214 11.2529C12.5696 11.2529 10.582 13.288 10.582 15.7983C10.582 18.3086 12.5696 20.3437 15.0214 20.3437Z" fill="white"/>
<path d="M21.8924 16.0519C21.8924 19.937 18.816 23.0861 15.0211 23.0861C11.2262 23.0861 8.14975 19.937 8.14975 16.0519C8.14975 15.3557 8.24918 14.6831 8.43333 14.0479H6.40283V23.9146C6.40283 24.4256 6.79813 24.843 7.28151 24.843H22.6756C23.1593 24.843 23.5549 24.4256 23.5549 23.9146V14.0479H21.6088C21.7927 14.6831 21.8924 15.3557 21.8924 16.0519Z" fill="white"/>
<path d="M20.051 11.3851H22.5495C23.097 11.3851 23.5444 10.9123 23.5444 10.3338V7.81676C23.5444 7.23793 23.097 6.76514 22.5495 6.76514H20.051C19.5031 6.76514 19.0557 7.23793 19.0557 7.81676V10.3338C19.0554 10.912 19.5031 11.3851 20.051 11.3851Z" fill="white"/>
<path d="M15 0C6.7157 0 0 7.09579 0 15.849C0 24.6021 6.7157 31.6979 15 31.6979C23.2843 31.6979 30 24.6021 30 15.849C30 7.09579 23.2843 0 15 0ZM23.2159 27.5281H6.78445C5.22322 27.5281 3.9468 26.3072 3.9468 24.5305V7.16811C3.9468 5.39075 5.22322 4.17018 6.78445 4.17018H23.2159C24.7768 4.17018 26.0535 5.39075 26.0535 7.16811V24.5305C26.0535 26.3072 24.7765 27.5281 23.2159 27.5281Z" fill="white"/>
</svg>
