<svg width="30" height="32" viewBox="0 0 30 32" fill="none" xmlns="http://www.w3.org/2000/svg">
<path d="M15 0C6.7157 0 0 7.09579 0 15.849C0 24.6021 6.7157 31.6979 15 31.6979C23.2843 31.6979 30 24.6021 30 15.849C30 7.09579 23.2843 0 15 0ZM24.0706 11.6224C24.0776 11.8095 24.0813 11.9969 24.0813 12.1853C24.0813 18.9555 19.2055 25.9582 11.0461 25.9582C8.55192 25.9582 6.12338 25.2062 4.02322 23.783C3.97933 23.7535 3.96123 23.6961 3.97872 23.6445C3.99621 23.5933 4.04563 23.5615 4.09627 23.5677C4.44859 23.6121 4.8089 23.6342 5.16644 23.6342C7.10701 23.6342 8.94414 23.0002 10.498 21.7975C8.6354 21.6314 7.03458 20.2996 6.45882 18.3997C6.44685 18.3601 6.45545 18.317 6.48123 18.2859C6.50731 18.2548 6.54721 18.2411 6.58527 18.2486C7.10148 18.352 7.62629 18.3588 8.13207 18.2719C6.21115 17.6412 4.86107 15.74 4.86107 13.5755L4.86169 13.5126C4.86261 13.4714 4.88379 13.4338 4.91754 13.4133C4.951 13.3926 4.99274 13.3922 5.0265 13.4123C5.52737 13.7061 6.08164 13.8949 6.65033 13.9672C5.54639 13.0375 4.89821 11.6282 4.89821 10.1206C4.89821 9.25093 5.11611 8.39614 5.52859 7.64868C5.54701 7.61528 5.57954 7.59388 5.61575 7.59096C5.65228 7.58707 5.68757 7.60393 5.71059 7.63376C7.97003 10.562 11.2935 12.3649 14.8475 12.5968C14.7882 12.2816 14.7582 11.9567 14.7582 11.6288C14.7582 8.91757 16.8457 6.71217 19.4115 6.71217C20.6728 6.71217 21.8919 7.25988 22.7656 8.21714C23.7505 8.00506 24.6887 7.62242 25.5554 7.07958C25.595 7.05461 25.6447 7.0585 25.6812 7.08866C25.7168 7.11914 25.7316 7.16973 25.7174 7.21642C25.4237 8.18698 24.851 9.03366 24.0816 9.64492C24.8062 9.51164 25.5094 9.2866 26.1781 8.97302C26.2229 8.95129 26.276 8.96491 26.3082 9.0048C26.3402 9.04501 26.3429 9.10241 26.3153 9.14586C25.7061 10.1093 24.9511 10.9423 24.0706 11.6224Z" fill="white"/>
</svg>
