<svg width="30" height="32" viewBox="0 0 30 32" fill="none" xmlns="http://www.w3.org/2000/svg">
<path d="M15 0C6.71601 0 0 7.09579 0 15.849C0 24.6021 6.71601 31.6979 15 31.6979C23.284 31.6979 30 24.6021 30 15.849C30 7.09579 23.284 0 15 0ZM22.6088 17.5631C23.3079 18.2846 24.0476 18.9636 24.6752 19.7597C24.9533 20.1119 25.2153 20.476 25.4148 20.8856C25.6996 21.4696 25.4425 22.1101 24.9477 22.1448L21.8747 22.1441C21.081 22.2135 20.4494 21.8753 19.9169 21.302C19.4919 20.8451 19.0975 20.357 18.6881 19.8846C18.5208 19.6906 18.3447 19.5081 18.1347 19.3644C17.7158 19.0765 17.3518 19.1647 17.1118 19.6271C16.8672 20.0976 16.8114 20.619 16.788 21.1427C16.7546 21.9084 16.5361 22.1084 15.809 22.1444C14.2554 22.2213 12.7814 21.9722 11.4114 21.1447C10.2028 20.4148 9.26732 19.3845 8.45218 18.2181C6.86486 15.9443 5.64921 13.4487 4.55693 10.8814C4.3111 10.3032 4.49095 9.99384 5.09463 9.98184C6.0976 9.96141 7.10056 9.96401 8.10353 9.98087C8.51171 9.98768 8.78179 10.2345 8.93862 10.6414C9.48061 12.0504 10.1451 13.3909 10.9777 14.6342C11.1996 14.9653 11.4261 15.2954 11.7486 15.5292C12.1047 15.7873 12.376 15.7021 12.5438 15.2821C12.6513 15.0152 12.6976 14.7299 12.7209 14.4439C12.8007 13.4642 12.8102 12.4849 12.6721 11.5092C12.5862 10.8986 12.2612 10.5043 11.6851 10.3888C11.3917 10.3301 11.4347 10.2153 11.5774 10.0383C11.8251 9.73215 12.0571 9.54277 12.5208 9.54277L15.9928 9.54213C16.5401 9.65562 16.6628 9.91504 16.7371 10.4974L16.7402 14.5742C16.7337 14.7996 16.8473 15.4676 17.2303 15.6152C17.5372 15.7222 17.7397 15.4621 17.9233 15.2568C18.7559 14.3232 19.3492 13.2214 19.8804 12.0809C20.1149 11.5779 20.3171 11.0575 20.5136 10.536C20.6596 10.1505 20.8868 9.96076 21.2986 9.96725L24.642 9.97147C24.7406 9.97147 24.8406 9.97244 24.9382 9.99027C25.5017 10.0921 25.6561 10.3483 25.4817 10.9291C25.2074 11.8416 24.6743 12.6017 24.1531 13.3637C23.5946 14.1796 22.9989 14.9669 22.4458 15.7864C21.9376 16.5354 21.9778 16.9126 22.6088 17.5631Z" fill="white"/>
</svg>
