<?xml version="1.0" encoding="UTF-8"?>
<!DOCTYPE svg PUBLIC "-//W3C//DTD SVG 1.1//EN" "http://www.w3.org/Graphics/SVG/1.1/DTD/svg11.dtd">
<!-- Creator: CorelDRAW 2018 (64-Bit) -->
<svg xmlns="http://www.w3.org/2000/svg" xml:space="preserve" width="220px" height="180px" version="1.1" style="shape-rendering:geometricPrecision; text-rendering:geometricPrecision; image-rendering:optimizeQuality; fill-rule:evenodd; clip-rule:evenodd"
viewBox="0 0 1.29 1.08"
 xmlns:xlink="http://www.w3.org/1999/xlink">
 <defs>
  <style type="text/css">
   <![CDATA[
    .fil0 {fill:#B1987F}
   ]]>
  </style>
 </defs>
 <g id="Слой_x0020_1">
  <metadata id="CorelCorpID_0Corel-Layer"/>
  <g id="_1406902050096">
   <path class="fil0" d="M1.26 0.43c0,0 0.01,0 0.01,0 0.01,0 0.01,0 0.01,0 0.01,0 0.01,-0.01 0.01,-0.02l0 -0.11c0,-0.01 0,-0.01 0,-0.02l-0.35 -0.27c-0.02,-0.01 -0.05,-0.01 -0.08,0l-0.12 0.11 0 -0.04c0,-0.02 -0.01,-0.03 -0.03,-0.03l-0.09 0c-0.01,0 -0.02,0.01 -0.02,0.03l0 0.14 -0.08 0.06c0,0.01 -0.01,0.01 -0.01,0.02l0 0.11c0,0.01 0.01,0.02 0.02,0.02 0,0 0.01,0 0.02,0l0.01 -0.01 0 0.2 -0.2 -0.15c-0.02,-0.02 -0.05,-0.02 -0.08,0l-0.27 0.22c-0.01,0 -0.01,0.01 -0.01,0.01l0 0.11c0,0.01 0,0.02 0.01,0.02 0,0 0.01,0 0.01,0 0.01,0 0.01,0 0.01,0l0.01 -0.01 0 0.22 -0.02 0c-0.01,0 -0.02,0.01 -0.02,0.02 0,0.01 0.01,0.02 0.02,0.02l1.25 0c0.01,0 0.02,-0.01 0.02,-0.02 0,-0.01 -0.01,-0.02 -0.02,-0.02l-0.02 0 0 -0.62 0.01 0.01zm-0.61 -0.33l0.04 0 0 0.05 -0.04 0.04 0 -0.09 0 0zm-0.09 0.21l0.33 -0.26c0.01,-0.01 0.02,-0.01 0.03,0l0.33 0.26 0 0.06 -0.33 -0.27c-0.01,0 -0.01,0 -0.02,0 0,0 0,0 -0.01,0l-0.33 0.27 0 -0.06 0 0zm-0.52 0.4l0.27 -0.21c0.01,0 0.02,0 0.03,0l0.22 0.18 0 0.06 -0.22 -0.18c-0.01,-0.01 -0.02,-0.01 -0.03,0l-0.27 0.21 0 -0.06zm0.05 0.08l0.23 -0.19 0.24 0.19 0 0.25 -0.09 0 0 -0.25c0,-0.01 -0.01,-0.02 -0.02,-0.02l-0.25 0c-0.01,0 -0.02,0.01 -0.02,0.02l0 0.25 -0.09 0 0 -0.25 0 0zm0.13 0.11l0.2 0 0 0.05 -0.2 0 0 -0.05zm0.2 -0.04l-0.2 0 0 -0.05 0.2 0 0 0.05zm-0.2 0.13l0.2 0 0 0.05 -0.2 0 0 -0.05zm0.61 -0.11c0,0 0,0 0,0 -0.01,0 -0.01,0 -0.02,0.01 0,0 0,0.01 0,0.01 0,0.01 0,0.01 0,0.02 0.01,0 0.01,0 0.02,0 0,0 0,0 0,0l0 0.12 -0.09 0 0 -0.27 0.09 0 0 0.11zm0.38 0.16l-0.34 0 0 -0.29c0,-0.01 -0.01,-0.02 -0.02,-0.02l-0.14 0c-0.01,0 -0.02,0.01 -0.02,0.02l0 0.29 -0.09 0 0 -0.65 0.3 -0.24 0.31 0.24 0 0.65 0 0z"/>
   <path class="fil0" d="M0.96 0.95l0.13 0c0.02,0 0.03,-0.01 0.03,-0.02l0 -0.18c0,-0.01 -0.01,-0.02 -0.03,-0.02l-0.13 0c-0.01,0 -0.02,0.01 -0.02,0.02l0 0.18c0,0.01 0.01,0.02 0.02,0.02l0 0zm0.02 -0.05l0 -0.07 0.09 0 0 0.07 -0.09 0zm0.09 -0.13l0 0.02 -0.09 0 0 -0.02 0.09 0z"/>
   <path class="fil0" d="M0.96 0.63l0.13 0c0.02,0 0.03,-0.01 0.03,-0.02l0 -0.18c0,-0.01 -0.01,-0.02 -0.03,-0.02l-0.13 0c-0.01,0 -0.02,0.01 -0.02,0.02l0 0.18c0,0.01 0.01,0.02 0.02,0.02l0 0zm0.02 -0.04l0 -0.07 0.09 0 0 0.07 -0.09 0zm0.09 -0.14l0 0.03 -0.09 0 0 -0.03 0.09 0z"/>
   <path class="fil0" d="M0.85 0.41l-0.14 0c-0.01,0 -0.02,0.01 -0.02,0.02l0 0.18c0,0.01 0.01,0.02 0.02,0.02l0.14 0c0.01,0 0.02,-0.01 0.02,-0.02l0 -0.18c0,-0.01 -0.01,-0.02 -0.02,-0.02l0 0zm-0.02 0.04l0 0.03 -0.09 0 0 -0.03 0.09 0zm-0.09 0.14l0 -0.07 0.09 0 0 0.07 -0.09 0z"/>
  </g>
 </g>
</svg>
