<?xml version="1.0" encoding="UTF-8"?>
<!DOCTYPE svg PUBLIC "-//W3C//DTD SVG 1.1//EN" "http://www.w3.org/Graphics/SVG/1.1/DTD/svg11.dtd">
<!-- Creator: CorelDRAW 2018 (64-Bit) -->
<svg xmlns="http://www.w3.org/2000/svg" xml:space="preserve" width="170px" height="170px" version="1.1" style="shape-rendering:geometricPrecision; text-rendering:geometricPrecision; image-rendering:optimizeQuality; fill-rule:evenodd; clip-rule:evenodd"
viewBox="0 0 0.72 0.72"
 xmlns:xlink="http://www.w3.org/1999/xlink">
 <defs>
  <style type="text/css">
   <![CDATA[
    .fil0 {fill:#FEFEFE}
   ]]>
  </style>
 </defs>
 <g id="Слой_x0020_1">
  <metadata id="CorelCorpID_0Corel-Layer"/>
  <g id="_1406911595696">
   <path class="fil0" d="M0.08 0.19l0.07 0c0.01,0 0.01,-0.01 0.01,-0.01l0 -0.07c0,-0.01 0,-0.02 -0.01,-0.02l-0.07 0c0,0 -0.01,0.01 -0.01,0.02l0 0.07c0,0 0.01,0.01 0.01,0.01l0 0zm0.01 -0.07l0.05 0 0 0.04 -0.05 0 0 -0.04z"/>
   <path class="fil0" d="M0.2 0.19l0.07 0c0.01,0 0.01,-0.01 0.01,-0.01l0 -0.07c0,-0.01 0,-0.02 -0.01,-0.02l-0.07 0c-0.01,0 -0.01,0.01 -0.01,0.02l0 0.07c0,0 0,0.01 0.01,0.01l0 0zm0.01 -0.07l0.05 0 0 0.04 -0.05 0 0 -0.04z"/>
   <path class="fil0" d="M0.08 0.3l0.07 0c0.01,0 0.01,0 0.01,-0.01l0 -0.07c0,0 0,-0.01 -0.01,-0.01l-0.07 0c0,0 -0.01,0.01 -0.01,0.01l0 0.07c0,0.01 0.01,0.01 0.01,0.01zm0.01 -0.07l0.05 0 0 0.05 -0.05 0 0 -0.05z"/>
   <path class="fil0" d="M0.2 0.3l0.07 0c0.01,0 0.01,0 0.01,-0.01l0 -0.07c0,0 0,-0.01 -0.01,-0.01l-0.07 0c-0.01,0 -0.01,0.01 -0.01,0.01l0 0.07c0,0.01 0,0.01 0.01,0.01zm0.01 -0.07l0.05 0 0 0.05 -0.05 0 0 -0.05z"/>
   <path class="fil0" d="M0.08 0.42l0.07 0c0.01,0 0.01,0 0.01,-0.01l0 -0.07c0,-0.01 0,-0.01 -0.01,-0.01l-0.07 0c0,0 -0.01,0 -0.01,0.01l0 0.07c0,0.01 0.01,0.01 0.01,0.01l0 0zm0.01 -0.07l0.05 0 0 0.05 -0.05 0 0 -0.05z"/>
   <path class="fil0" d="M0.2 0.42l0.07 0c0.01,0 0.01,0 0.01,-0.01l0 -0.07c0,-0.01 0,-0.01 -0.01,-0.01l-0.07 0c-0.01,0 -0.01,0 -0.01,0.01l0 0.07c0,0.01 0,0.01 0.01,0.01l0 0zm0.01 -0.07l0.05 0 0 0.05 -0.05 0 0 -0.05z"/>
   <path class="fil0" d="M0.15 0.54c0.01,0 0.01,-0.01 0.01,-0.01l0 -0.07c0,-0.01 0,-0.02 -0.01,-0.02l-0.07 0c0,0 -0.01,0.01 -0.01,0.02l0 0.07c0,0 0.01,0.01 0.01,0.01l0.07 0zm-0.06 -0.07l0.05 0 0 0.04 -0.05 0 0 -0.04z"/>
   <path class="fil0" d="M0.2 0.54l0.07 0c0.01,0 0.01,-0.01 0.01,-0.01l0 -0.07c0,-0.01 0,-0.02 -0.01,-0.02l-0.07 0c-0.01,0 -0.01,0.01 -0.01,0.02l0 0.07c0,0 0,0.01 0.01,0.01l0 0zm0.01 -0.07l0.05 0 0 0.04 -0.05 0 0 -0.04z"/>
   <path class="fil0" d="M0.46 0.19l0.07 0c0,0 0.01,-0.01 0.01,-0.01l0 -0.07c0,-0.01 -0.01,-0.02 -0.01,-0.02l-0.07 0c-0.01,0 -0.02,0.01 -0.02,0.02l0 0.07c0,0 0.01,0.01 0.02,0.01l0 0zm0.01 -0.07l0.04 0 0 0.04 -0.04 0 0 -0.04z"/>
   <path class="fil0" d="M0.57 0.19l0.07 0c0.01,0 0.01,-0.01 0.01,-0.01l0 -0.07c0,-0.01 0,-0.02 -0.01,-0.02l-0.07 0c0,0 -0.01,0.01 -0.01,0.02l0 0.07c0,0 0.01,0.01 0.01,0.01l0 0zm0.01 -0.07l0.05 0 0 0.04 -0.05 0 0 -0.04z"/>
   <path class="fil0" d="M0.46 0.3l0.07 0c0,0 0.01,0 0.01,-0.01l0 -0.07c0,0 -0.01,-0.01 -0.01,-0.01l-0.07 0c-0.01,0 -0.02,0.01 -0.02,0.01l0 0.07c0,0.01 0.01,0.01 0.02,0.01zm0.01 -0.07l0.04 0 0 0.05 -0.04 0 0 -0.05z"/>
   <path class="fil0" d="M0.57 0.3l0.07 0c0.01,0 0.01,0 0.01,-0.01l0 -0.07c0,0 0,-0.01 -0.01,-0.01l-0.07 0c0,0 -0.01,0.01 -0.01,0.01l0 0.07c0,0.01 0.01,0.01 0.01,0.01zm0.01 -0.07l0.05 0 0 0.05 -0.05 0 0 -0.05z"/>
   <path class="fil0" d="M0.46 0.42l0.07 0c0,0 0.01,0 0.01,-0.01l0 -0.07c0,-0.01 -0.01,-0.01 -0.01,-0.01l-0.07 0c-0.01,0 -0.02,0 -0.02,0.01l0 0.07c0,0.01 0.01,0.01 0.02,0.01l0 0zm0.01 -0.07l0.04 0 0 0.05 -0.04 0 0 -0.05z"/>
   <path class="fil0" d="M0.57 0.42l0.07 0c0.01,0 0.01,0 0.01,-0.01l0 -0.07c0,-0.01 0,-0.01 -0.01,-0.01l-0.07 0c0,0 -0.01,0 -0.01,0.01l0 0.07c0,0.01 0.01,0.01 0.01,0.01l0 0zm0.01 -0.07l0.05 0 0 0.05 -0.05 0 0 -0.05z"/>
   <path class="fil0" d="M0.46 0.54l0.07 0c0,0 0.01,-0.01 0.01,-0.01l0 -0.07c0,-0.01 -0.01,-0.02 -0.01,-0.02l-0.07 0c-0.01,0 -0.02,0.01 -0.02,0.02l0 0.07c0,0 0.01,0.01 0.02,0.01l0 0zm0.01 -0.07l0.04 0 0 0.04 -0.04 0 0 -0.04z"/>
   <path class="fil0" d="M0.57 0.54l0.07 0c0.01,0 0.01,-0.01 0.01,-0.01l0 -0.07c0,-0.01 0,-0.02 -0.01,-0.02l-0.07 0c0,0 -0.01,0.01 -0.01,0.02l0 0.07c0,0 0.01,0.01 0.01,0.01l0 0zm0.01 -0.07l0.05 0 0 0.04 -0.05 0 0 -0.04z"/>
   <path class="fil0" d="M0.71 0.07c0.01,0 0.01,-0.01 0.01,-0.01l0 -0.05c0,0 0,-0.01 -0.01,-0.01l-0.32 0c-0.01,0 -0.02,0.01 -0.02,0.01l0 0.05c0,0 0.01,0.01 0.02,0.01l0.01 0 0 0.05 -0.07 0 0 -0.05 0.01 0c0.01,0 0.01,-0.01 0.01,-0.01l0 -0.05c0,0 0,-0.01 -0.01,-0.01l-0.33 0c0,0 -0.01,0.01 -0.01,0.01l0 0.05c0,0 0.01,0.01 0.01,0.01l0.01 0 0 0.58 -0.01 0c0,0 -0.01,0.01 -0.01,0.02l0 0.04c0,0.01 0.01,0.01 0.01,0.01l0.7 0c0.01,0 0.01,0 0.01,-0.01l0 -0.04c0,-0.01 0,-0.02 -0.01,-0.02l-0.01 0 0 -0.58 0.01 0zm-0.31 -0.05l0.3 0 0 0.03 -0.3 0 0 -0.03zm-0.07 0.63l0 -0.11 0.07 0 0 0.11 -0.07 0zm0 -0.46l0.07 0 0 0.04 -0.07 0 0 -0.04zm0 0.07l0.07 0 0 0.02 -0.07 0 0 -0.02zm0 0.04l0.07 0 0 0.05 -0.07 0 0 -0.05zm0 0.07l0.07 0 0 0.03 -0.07 0 0 -0.03zm0 0.05l0.07 0 0 0.05 -0.07 0 0 -0.05zm0 0.07l0.07 0 0 0.02 -0.07 0 0 -0.02zm0.07 -0.35l0 0.02 -0.07 0 0 -0.02 0.07 0zm-0.38 -0.12l0.31 0 0 0.03 -0.31 0 0 -0.03zm0.03 0.05l0.25 0 0 0.58 -0.07 0 0 -0.03c0,-0.03 -0.02,-0.06 -0.05,-0.06 -0.04,0 -0.06,0.03 -0.06,0.06l0 0.03 -0.07 0 0 -0.58zm0.16 0.58l-0.07 0 0 -0.03c0,-0.02 0.02,-0.04 0.04,-0.04 0.01,0 0.03,0.02 0.03,0.04l0 0.03zm0.49 0.05l-0.68 0 0 -0.02 0.68 0 0 0.02zm-0.12 -0.05l-0.07 0 0 -0.03c0,-0.02 0.02,-0.04 0.04,-0.04 0.02,0 0.03,0.02 0.03,0.04l0 0.03zm0.1 0l-0.07 0 0 -0.03c0,-0.03 -0.03,-0.06 -0.06,-0.06 -0.03,0 -0.06,0.03 -0.06,0.06l0 0.03 -0.07 0 0 -0.58 0.26 0 0 0.58z"/>
  </g>
 </g>
</svg>
