<?xml version="1.0" encoding="UTF-8"?>
<!DOCTYPE svg PUBLIC "-//W3C//DTD SVG 1.1//EN" "http://www.w3.org/Graphics/SVG/1.1/DTD/svg11.dtd">
<!-- Creator: CorelDRAW 2018 (64-Bit) -->
<svg xmlns="http://www.w3.org/2000/svg" xml:space="preserve" width="220px" height="220px" version="1.1" style="shape-rendering:geometricPrecision; text-rendering:geometricPrecision; image-rendering:optimizeQuality; fill-rule:evenodd; clip-rule:evenodd"
viewBox="0 0 1.14 1.14"
 xmlns:xlink="http://www.w3.org/1999/xlink">
 <defs>
  <style type="text/css">
   <![CDATA[
    .fil0 {fill:#B1987F}
   ]]>
  </style>
 </defs>
 <g id="Слой_x0020_1">
  <metadata id="CorelCorpID_0Corel-Layer"/>
  <g id="_1406912026944">
   <path id="XMLID_1699_" class="fil0" d="M0.21 0.41c0.11,0 0.2,-0.09 0.2,-0.2 0,-0.12 -0.09,-0.21 -0.2,-0.21 -0.12,0 -0.21,0.09 -0.21,0.21 0,0.11 0.09,0.2 0.21,0.2zm0 -0.37c0.09,0 0.16,0.08 0.16,0.17 0,0.09 -0.07,0.16 -0.16,0.16 -0.09,0 -0.17,-0.07 -0.17,-0.16 0,-0.09 0.08,-0.17 0.17,-0.17z"/>
   <path id="XMLID_1701_" class="fil0" d="M0.22 0.26c0.01,0 0.01,0 0.02,0 0.01,0 0.01,0 0.02,0 0,-0.01 0,-0.03 0,-0.04l-0.03 -0.02 0 -0.1c0,-0.01 -0.01,-0.02 -0.02,-0.02 -0.02,0 -0.03,0.01 -0.03,0.02l0 0.11c0,0 0.01,0.01 0.01,0.01l0.03 0.04z"/>
   <path id="XMLID_1706_" class="fil0" d="M1.12 0.74l-0.14 0c-0.02,-0.03 -0.05,-0.05 -0.08,-0.05l-0.1 -0.02c0.04,-0.03 0.07,-0.08 0.07,-0.13l0 -0.05 0 -0.03 0 0c0,-0.09 -0.07,-0.15 -0.15,-0.15 -0.08,0 -0.15,0.06 -0.15,0.15l0 0 0 0.03 0 0.05c0,0.05 0.03,0.1 0.07,0.13l-0.1 0.02c-0.01,0 -0.01,0 -0.01,0l0 -0.18c0,-0.02 -0.01,-0.03 -0.03,-0.03l-0.15 0c-0.01,0 -0.02,0.01 -0.02,0.03 0,0.01 0.01,0.02 0.02,0.02l0.13 0 0 0.31 -0.15 0 0 -0.11c0,-0.04 -0.03,-0.07 -0.07,-0.07 -0.03,0 -0.06,0.03 -0.06,0.07l0 0.11 -0.16 0 0 -0.31 0.13 0c0.02,0 0.03,-0.01 0.03,-0.02 0,-0.02 -0.01,-0.03 -0.03,-0.03l-0.15 0c-0.01,0 -0.02,0.01 -0.02,0.03l0 0.35c0,0.02 0.01,0.03 0.02,0.03l0.18 0 0 0.04 -0.01 0c-0.03,0 -0.07,0.03 -0.07,0.07l0 0.01 -0.1 0c-0.01,0 -0.02,0.01 -0.02,0.02l0 0.09c0,0.01 0.01,0.02 0.02,0.02l1.1 0c0.01,0 0.02,-0.01 0.02,-0.02l0 -0.09 0 -0.09 0 -0.09 0 -0.09c0,-0.01 -0.01,-0.02 -0.02,-0.02zm-0.14 0.27l-0.12 0 0 -0.05 0.24 0 0 0.05 -0.12 0zm0.12 -0.09l-0.24 0 0 -0.05 0.24 0 0 0.05zm0 -0.09l-0.24 0 0 -0.05 0.11 0c0,0 0,0 0,0 0,0 0,0 0,0l0.13 0 0 0.05zm-0.49 -0.37c0,-0.06 0.05,-0.11 0.11,-0.11 0.06,0 0.1,0.04 0.11,0.1l-0.06 -0.03c-0.01,-0.01 -0.02,-0.01 -0.02,0 -0.03,0.03 -0.06,0.04 -0.09,0.04l-0.05 0 0 0 0 0 0 0zm0 0.05l0.05 0c0.04,0 0.08,-0.02 0.11,-0.05l0.06 0.04 0 0.04c0,0.06 -0.05,0.11 -0.11,0.11 -0.06,0 -0.11,-0.05 -0.11,-0.11l0 -0.03 0 0zm0.15 0.18l-0.04 0.09 -0.04 -0.09c0.02,0 0.03,0 0.04,0 0.01,0 0.02,0 0.04,0zm-0.26 0.2c0.02,0 0.03,-0.01 0.03,-0.03l0 -0.12c0,0 0.01,-0.01 0.02,-0.01l0.1 -0.02 0.05 0.14c0,0.01 0.01,0.02 0.02,0.02 0.01,0 0.02,-0.01 0.02,-0.02l0.05 -0.14 0.1 0.02c0.01,0 0.02,0.01 0.03,0.01l-0.09 0c-0.01,0 -0.02,0.01 -0.02,0.02l0 0.09 0 0.09 0 0.07 -0.33 0 0 -0.12 0.02 0 0 0zm-0.06 0l0 0.12 -0.04 0 0 -0.01c0,-0.04 -0.03,-0.07 -0.07,-0.07l0 0 0 -0.04 0.11 0zm-0.2 -0.16c0,-0.01 0.01,-0.02 0.02,-0.02 0.02,0 0.03,0.01 0.03,0.02l0 0.2 -0.05 0 0 -0.2zm-0.07 0.27c0,-0.02 0.01,-0.03 0.02,-0.03l0.03 0 0.09 0 0.02 0c0.02,0 0.03,0.01 0.03,0.03l0 0.01 -0.19 0 0 -0.01zm0.93 0.1l-1.06 0 0 -0.05 1.06 0 0 0.05z"/>
   <path id="XMLID_1768_" class="fil0" d="M0.25 0.49c-0.01,0 -0.01,0.01 -0.01,0.02 0,0 0,0.01 0.01,0.01 0,0.01 0.01,0.01 0.01,0.01 0.01,0 0.01,0 0.02,-0.01 0,0 0.01,-0.01 0.01,-0.01 0,-0.01 -0.01,-0.02 -0.01,-0.02 -0.01,0 -0.01,-0.01 -0.02,-0.01 0,0 -0.01,0.01 -0.01,0.01z"/>
  </g>
 </g>
</svg>
