<?xml version="1.0" encoding="UTF-8"?>
<!DOCTYPE svg PUBLIC "-//W3C//DTD SVG 1.1//EN" "http://www.w3.org/Graphics/SVG/1.1/DTD/svg11.dtd">
<!-- Creator: CorelDRAW 2018 (64-Bit) -->
<svg xmlns="http://www.w3.org/2000/svg" xml:space="preserve" width="22px" height="18px" version="1.1" style="shape-rendering:geometricPrecision; text-rendering:geometricPrecision; image-rendering:optimizeQuality; fill-rule:evenodd; clip-rule:evenodd"
viewBox="0 0 0.13 0.11"
 xmlns:xlink="http://www.w3.org/1999/xlink">
 <defs>
  <style type="text/css">
   <![CDATA[
    .fil0 {fill:#B1987F}
   ]]>
  </style>
 </defs>
 <g id="Слой_x0020_1">
  <metadata id="CorelCorpID_0Corel-Layer"/>
  <g id="_2279269007696">
   <path class="fil0" d="M0.13 0.04c0,0 0,0 0,0 0,0 0,0 0,0 0,0 0,0 0,0l0 -0.01c0,0 0,0 0,0l-0.04 -0.03c0,0 0,0 0,0l-0.02 0.01 0 0c0,0 0,0 0,0l-0.01 0c0,0 0,0 0,0l0 0.01 -0.01 0.01c0,0 0,0 0,0l0 0.01c0,0 0,0 0,0 0,0 0,0 0,0l0.01 0 0 0.02 -0.02 -0.01c-0.01,0 -0.01,0 -0.01,0l-0.03 0.02c0,0 0,0 0,0l0 0.01c0,0 0,0 0,0 0,0 0,0 0,0 0,0 0,0 0,0l0 0 0 0.02 0 0c0,0 0,0 0,0.01 0,0 0,0 0,0l0.13 0c0,0 0,0 0,0 0,-0.01 0,-0.01 0,-0.01l-0.01 0 0 -0.06 0.01 0zm-0.07 -0.03l0.01 0 0 0 -0.01 0.01 0 -0.01 0 0zm0 0.02l0.03 -0.03c0,0 0,0 0,0l0.04 0.03 0 0.01 -0.04 -0.03c0,0 0,0 0,0 0,0 0,0 0,0l-0.03 0.03 0 -0.01 0 0zm-0.06 0.04l0.03 -0.02c0,0 0,0 0,0l0.03 0.02 0 0 -0.03 -0.01c0,0 0,0 0,0l-0.03 0.02 0 -0.01zm0.01 0.01l0.02 -0.02 0.03 0.02 0 0.02 -0.01 0 0 -0.02c0,0 0,0 -0.01,0l-0.02 0c0,0 0,0 0,0l0 0.02 -0.01 0 0 -0.02 0 0zm0.01 0.01l0.02 0 0 0 -0.02 0 0 0zm0.02 0l-0.02 0 0 -0.01 0.02 0 0 0.01zm-0.02 0.01l0.02 0 0 0 -0.02 0 0 0zm0.06 -0.01c0,0 0,0 0,0 0,0 0,0 0,0 0,0 0,0 0,0 0,0 0,0 0,0 0,0 0,0 0,0 0,0 0,0 0,0l0 0.01 -0.01 0 0 -0.02 0.01 0 0 0.01zm0.04 0.01l-0.03 0 0 -0.03c0,0 0,0 -0.01,0l-0.01 0c0,0 0,0 0,0l0 0.03 -0.01 0 0 -0.06 0.03 -0.03 0.03 0.03 0 0.06 0 0z"/>
   <path class="fil0" d="M0.1 0.09l0.01 0c0,0 0,0 0,0l0 -0.02c0,0 0,0 0,0l-0.01 0c-0.01,0 -0.01,0 -0.01,0l0 0.02c0,0 0,0 0.01,0l0 0zm0 0l0 -0.01 0.01 0 0 0.01 -0.01 0zm0.01 -0.01l0 0 -0.01 0 0 0 0.01 0z"/>
   <path class="fil0" d="M0.1 0.06l0.01 0c0,0 0,0 0,0l0 -0.02c0,0 0,0 0,0l-0.01 0c-0.01,0 -0.01,0 -0.01,0l0 0.02c0,0 0,0 0.01,0l0 0zm0 0l0 -0.01 0.01 0 0 0.01 -0.01 0zm0.01 -0.01l0 0 -0.01 0 0 0 0.01 0z"/>
   <path class="fil0" d="M0.08 0.04l-0.01 0c0,0 0,0 0,0l0 0.02c0,0 0,0 0,0l0.01 0c0.01,0 0.01,0 0.01,0l0 -0.02c0,0 0,0 -0.01,0l0 0zm0 0.01l0 0 -0.01 0 0 0 0.01 0zm-0.01 0.01l0 -0.01 0.01 0 0 0.01 -0.01 0z"/>
  </g>
 </g>
</svg>
