<?xml version="1.0" encoding="UTF-8"?>
<!DOCTYPE svg PUBLIC "-//W3C//DTD SVG 1.1//EN" "http://www.w3.org/Graphics/SVG/1.1/DTD/svg11.dtd">
<!-- Creator: CorelDRAW 2018 (64-Bit) -->
<svg xmlns="http://www.w3.org/2000/svg" xml:space="preserve" width="38px" height="38px" version="1.1" style="shape-rendering:geometricPrecision; text-rendering:geometricPrecision; image-rendering:optimizeQuality; fill-rule:evenodd; clip-rule:evenodd"
viewBox="0 0 0.31 0.31"
 xmlns:xlink="http://www.w3.org/1999/xlink">
 <defs>
  <style type="text/css">
   <![CDATA[
    .fil1 {fill:url(#id0)}
    .fil0 {fill:url(#id1)}
   ]]>
  </style>
  <linearGradient id="id0" gradientUnits="userSpaceOnUse" x1="0.23" y1="0.15" x2="0.08" y2="0.15">
   <stop offset="0" style="stop-opacity:1; stop-color:#DEB956"/>
   <stop offset="0.14902" style="stop-opacity:1; stop-color:#D8B150"/>
   <stop offset="0.611765" style="stop-opacity:1; stop-color:#FAE27B"/>
   <stop offset="0.721569" style="stop-opacity:1; stop-color:#FDF3AB"/>
   <stop offset="0.839216" style="stop-opacity:1; stop-color:#FAE27B"/>
   <stop offset="1" style="stop-opacity:1; stop-color:#F1D271"/>
  </linearGradient>
  <linearGradient id="id1" gradientUnits="userSpaceOnUse" xlink:href="#id0" x1="0.31" y1="0.15" x2="0" y2="0.15">
  </linearGradient>
 </defs>
 <g id="Слой_x0020_1">
  <metadata id="CorelCorpID_0Corel-Layer"/>
  <g id="_2279269753008">
   <g>
    <g>
     <path class="fil0" d="M0.15 0c-0.08,0 -0.15,0.07 -0.15,0.15 0,0.09 0.07,0.16 0.15,0.16 0.09,0 0.16,-0.07 0.16,-0.16 0,-0.08 -0.07,-0.15 -0.16,-0.15zm0 0.29c-0.07,0 -0.13,-0.06 -0.13,-0.14 0,-0.07 0.06,-0.13 0.13,-0.13 0.08,0 0.14,0.06 0.14,0.13 0,0.08 -0.06,0.14 -0.14,0.14z"/>
     <path class="fil1" d="M0.22 0.15l-0.04 -0.05c0,0 -0.01,0 -0.01,0 0,0.01 0,0.01 0,0.02l0.03 0.03 -0.11 0c-0.01,0 -0.01,0 -0.01,0 0,0.01 0,0.01 0.01,0.01l0.11 0 -0.03 0.03c0,0 0,0.01 0,0.01 0,0 0.01,0 0.01,0l0.04 -0.04c0.01,0 0.01,-0.01 0.01,-0.01 0,0 0,0 -0.01,0z"/>
    </g>
   </g>
   <g>
   </g>
   <g>
   </g>
   <g>
   </g>
   <g>
   </g>
   <g>
   </g>
   <g>
   </g>
   <g>
   </g>
   <g>
   </g>
   <g>
   </g>
   <g>
   </g>
   <g>
   </g>
   <g>
   </g>
   <g>
   </g>
   <g>
   </g>
   <g>
   </g>
  </g>
 </g>
</svg>
