<?xml version="1.0" encoding="UTF-8"?>
<!DOCTYPE svg PUBLIC "-//W3C//DTD SVG 1.1//EN" "http://www.w3.org/Graphics/SVG/1.1/DTD/svg11.dtd">
<!-- Creator: CorelDRAW 2018 (64-Bit) -->
<svg xmlns="http://www.w3.org/2000/svg" xml:space="preserve" width="3.2114mm" height="3.2115mm" version="1.1" style="shape-rendering:geometricPrecision; text-rendering:geometricPrecision; image-rendering:optimizeQuality; fill-rule:evenodd; clip-rule:evenodd"
viewBox="0 0 3.6 3.6"
 xmlns:xlink="http://www.w3.org/1999/xlink">
 <defs>
  <style type="text/css">
   <![CDATA[
    .fil0 {fill:#544838}
    .fil1 {fill:#C39B6D;fill-rule:nonzero}
   ]]>
  </style>
 </defs>
 <g id="Слой_x0020_1">
  <metadata id="CorelCorpID_0Corel-Layer"/>
  <g id="_2279268995280">
   <path class="fil0" d="M2.5 1.65c0.03,-0.03 0.03,-0.07 0,-0.1 -0.03,-0.03 -0.07,-0.03 -0.1,0 -0.03,0.03 -0.03,0.07 0,0.1 0.03,0.03 0.07,0.03 0.1,0zm0 0z"/>
   <path class="fil1" d="M0.07 3.6l3.46 0c0.03,0 0.05,-0.02 0.06,-0.04 0.01,-0.03 0,-0.06 -0.02,-0.08l-3.46 -3.46c-0.02,-0.02 -0.05,-0.03 -0.08,-0.02 -0.03,0.01 -0.04,0.04 -0.04,0.06l0 3.46c0,0.04 0.03,0.07 0.07,0.07zm0.07 -3.36l0.57 0.57 -0.15 0.15c-0.03,0.03 -0.03,0.07 0,0.1 0.03,0.03 0.07,0.03 0.1,0l0.15 -0.15 0.3 0.3 -0.15 0.15c-0.03,0.03 -0.03,0.07 0,0.1 0.03,0.03 0.07,0.03 0.1,0l0.15 -0.15 0.3 0.3 -0.15 0.15c-0.03,0.03 -0.03,0.07 0,0.1 0.03,0.03 0.07,0.03 0.1,0l0.15 -0.15 0.3 0.3 -0.15 0.15c-0.03,0.03 -0.03,0.07 0,0.1 0.03,0.03 0.07,0.03 0.1,0l0.15 -0.15 0.3 0.3 -0.15 0.15c-0.03,0.03 -0.03,0.07 0,0.1 0.03,0.03 0.07,0.03 0.1,0l0.15 -0.15 0.3 0.3 -0.15 0.15c-0.03,0.03 -0.03,0.07 0,0.1 0.03,0.03 0.07,0.03 0.1,0l0.15 -0.15 0.57 0.57 -3.22 0 0 -3.22zm0 0z"/>
   <path class="fil1" d="M0.72 1.46c-0.02,-0.02 -0.05,-0.03 -0.08,-0.02 -0.03,0.01 -0.04,0.04 -0.04,0.07l0 1.41c0,0.04 0.03,0.07 0.07,0.07l1.41 0c0.03,0 0.05,-0.02 0.07,-0.04 0.01,-0.03 0,-0.06 -0.02,-0.08l-1.41 -1.41zm0.02 1.39l0 -1.17 1.17 1.17 -1.17 0zm0 0z"/>
   <path class="fil0" d="M2.2 1.45c0.03,0.03 0.07,0.03 0.1,0 0.03,-0.03 0.03,-0.07 0,-0.1l-0.3 -0.3c-0.03,-0.03 -0.07,-0.03 -0.1,0 -0.03,0.03 -0.03,0.07 0,0.1l0.3 0.3zm0 0z"/>
   <path class="fil0" d="M1.07 0.72l1.97 1.97c0.08,0.08 0.22,0.08 0.3,0l0.2 -0.2c0.08,-0.08 0.08,-0.22 0,-0.3l-1.97 -1.97c-0.01,-0.01 -0.02,-0.01 -0.03,-0.02l-0.6 -0.2c-0.03,-0.01 -0.05,-0 -0.07,0.02 -0.02,0.02 -0.03,0.05 -0.02,0.07l0.2 0.6c0,0.01 0.01,0.02 0.02,0.03l0 0zm2.37 1.58c0.03,0.03 0.03,0.07 0,0.1l-0.2 0.2c-0.03,0.03 -0.07,0.03 -0.1,0l-0.15 -0.15 0.3 -0.3 0.15 0.15zm-0.25 -0.25l-0.3 0.3 -0.1 -0.1 0.3 -0.3 0.1 0.1zm-1.63 -1.63l1.43 1.43 -0.3 0.3 -1.43 -1.43 0.3 -0.3zm-0.11 -0.09l-0.28 0.28 -0.14 -0.42 0.43 0.14zm0 0z"/>
  </g>
 </g>
</svg>
