<?xml version="1.0" encoding="UTF-8"?>
<!DOCTYPE svg PUBLIC "-//W3C//DTD SVG 1.1//EN" "http://www.w3.org/Graphics/SVG/1.1/DTD/svg11.dtd">
<!-- Creator: CorelDRAW 2018 (64-Bit) -->
<svg xmlns="http://www.w3.org/2000/svg" xml:space="preserve" width="44px" height="44px" version="1.1" style="shape-rendering:geometricPrecision; text-rendering:geometricPrecision; image-rendering:optimizeQuality; fill-rule:evenodd; clip-rule:evenodd"
viewBox="0 0 0.57 0.57"
 xmlns:xlink="http://www.w3.org/1999/xlink">
 <defs>
  <style type="text/css">
   <![CDATA[
    .fil1 {fill:#FEFEFE}
    .fil0 {fill:#FEFEFE;fill-rule:nonzero}
   ]]>
  </style>
 </defs>
 <g id="Слой_x0020_1">
  <metadata id="CorelCorpID_0Corel-Layer"/>
  <path class="fil0" d="M0.57 0.35c-0.01,0 -0.01,0 -0.02,0.01l-0.04 0.04 0 -0.26 0 0 0.04 -0.04c0.01,0 0.01,-0.01 0,-0.01 0,0 0,0 0,0l-0.01 -0.01 0.02 -0.03c0,0 0,-0.01 0,-0.01l-0.04 -0.04c-0.01,0 -0.01,0 -0.02,0l-0.07 0.08 -0.33 0c0,-0.03 -0.02,-0.05 -0.04,-0.05l-0.01 0c-0.03,0 -0.05,0.02 -0.05,0.05l0 0.41c0,0 0,0.01 0.01,0.01l0.14 0 -0.02 0.02c0,0 0,0.01 0,0.01l0.05 0.04c0,0 0.01,0 0.01,0 0,0 0,0 0,0l0.05 -0.06c0,0 0.01,-0.01 0.01,-0.01l0.17 0 -0.06 0.06c0,0 0,0 0,0.01 0.01,0 0.01,0 0.01,0l0.19 0c0.01,0 0.01,0 0.01,-0.01l0 -0.2c0,0 0,-0.01 0,-0.01zm-0.04 -0.25l-0.02 0.02 0 -0.02 0.02 -0.01 0 0.01zm-0.03 -0.01l0 0 -0.09 0.09 -0.02 -0.02 0.09 -0.11 0.03 0.03 -0.01 0.01 0 0zm-0.1 0.1l-0.03 0.01 0.01 -0.03 0.02 0.02zm0.11 -0.17l0.03 0.03 -0.02 0.01 -0.02 -0.02 0.01 -0.02zm-0.46 0.03l0.01 0c0.01,0 0.03,0.01 0.03,0.03l0 0.36c-0.01,-0.01 -0.02,-0.01 -0.03,-0.01l-0.01 0c-0.01,0 -0.02,0 -0.03,0.01l0 -0.36c0,-0.02 0.01,-0.03 0.03,-0.03l0 0zm0 0.4l0.01 0c0.01,0 0.03,0.01 0.03,0.03l-0.07 0c0,-0.02 0.01,-0.03 0.03,-0.03zm0.18 0.05l-0.01 0 -0.03 -0.02 0.01 -0.01c0,0 0.01,0 0.01,0 0,0 0,0 0,0l0.02 0.01c0,0.01 0,0.01 0,0.02 0,0 0,0 0,0l0 0zm-0.05 0.05l-0.03 -0.03 0.03 -0.03 0.03 0.03 -0.03 0.03zm0.06 -0.07c0,-0.01 0,-0.01 0,-0.01l-0.02 -0.01c-0.01,-0.01 -0.03,-0.01 -0.04,0l-0.01 0.02 -0.07 0 0 -0.38 0.32 0 -0.05 0.05c0,0 -0.01,0 -0.01,0 0,0 0,0 0,0 0,0 0,0 0,0l-0.01 0.06c0,0 0,0.01 0.01,0.01 0,0 0,0 0,0l0.06 -0.02c0,0 0,0 0,0 0,0 0,0 0,0 0,0 0,0 0,0l0.08 -0.08 0 0.3 -0.06 0.06 -0.2 0zm0.31 0.07l-0.16 0 0.16 -0.16 0 0.16zm0 0z"/>
  <path class="fil1" d="M0.42 0.36l-0.07 0 0 -0.1c0,-0.01 0,-0.01 0,-0.01l-0.06 -0.06c0,0 -0.01,0 -0.01,0l-0.06 0.06c0,0 0,0 0,0.01l0 0.1 -0.07 0c0,0 -0.01,0.01 -0.01,0.01 0,0.01 0.01,0.01 0.01,0.01l0.27 0c0,0 0.01,0 0.01,-0.01 0,0 -0.01,-0.01 -0.01,-0.01zm-0.13 -0.15l0.03 0.04 -0.07 0 0.04 -0.04zm-0.05 0.06l0.09 0 0 0.09 -0.09 0 0 -0.09zm0 0z"/>
  <path class="fil1" d="M0.28 0.15l0.02 0 0 0.02 -0.02 0 0 -0.02zm0 0z"/>
  <path class="fil1" d="M0.28 0.4l0.02 0 0 0.02 -0.02 0 0 -0.02zm0 0z"/>
 </g>
</svg>
