<?xml version="1.0" encoding="UTF-8"?>
<!DOCTYPE svg PUBLIC "-//W3C//DTD SVG 1.1//EN" "http://www.w3.org/Graphics/SVG/1.1/DTD/svg11.dtd">
<!-- Creator: CorelDRAW 2018 (64-Bit) -->
<svg xmlns="http://www.w3.org/2000/svg" xml:space="preserve" width="3.2443mm" height="3.2443mm" version="1.1" style="shape-rendering:geometricPrecision; text-rendering:geometricPrecision; image-rendering:optimizeQuality; fill-rule:evenodd; clip-rule:evenodd"
viewBox="0 0 3.68 3.68"
 xmlns:xlink="http://www.w3.org/1999/xlink">
 <g id="Слой_x0020_1">
  <metadata id="CorelCorpID_0Corel-Layer"/>
  <path class="fil0" d="M2.27 2.49c-0.04,0 -0.07,0.03 -0.07,0.07 0,0.04 0.03,0.07 0.07,0.07 0.04,0 0.07,-0.03 0.07,-0.07 0,-0.04 -0.03,-0.07 -0.07,-0.07zm0 0z"/>
  <path class="fil1" d="M3.32 0l-2.96 0c-0.2,0 -0.36,0.16 -0.36,0.36l0 2.2c0,0.2 0.16,0.36 0.36,0.36l1.12 0 0 0.33 -0.07 0c-0.1,0 -0.19,0.04 -0.25,0.11 -0.07,0.07 -0.11,0.16 -0.11,0.25 0,0.04 0.03,0.07 0.07,0.07l1.44 0c0.04,0 0.07,-0.03 0.07,-0.07 0,-0.2 -0.16,-0.36 -0.36,-0.36l-0.07 0 0 -0.33 1.12 0c0.2,0 0.36,-0.16 0.36,-0.36l0 -2.2c0,-0.2 -0.16,-0.36 -0.36,-0.36l0 0zm-2.96 0.14l2.96 0c0.12,0 0.22,0.1 0.22,0.22l0 1.84 -0.33 0 0 -1.65c0,-0.04 -0.03,-0.07 -0.07,-0.07l-0.57 0c-0.04,0 -0.07,0.03 -0.07,0.07l0 1.65 -0.36 0c-0,-0.07 -0,-0.15 -0.01,-0.22 -0.01,-0.29 -0.04,-0.49 -0.06,-0.57 0.15,-0.11 0.19,-0.31 0.1,-0.47l-0.25 -0.43c-0.01,-0.02 -0.04,-0.04 -0.06,-0.04 -0.03,0 -0.05,0.01 -0.06,0.04l-0.25 0.43c-0.09,0.15 -0.06,0.34 0.08,0.45 -0.02,0.09 -0.05,0.29 -0.06,0.59 -0,0.07 -0.01,0.15 -0.01,0.22l-0.36 0 0 -1.08c0,-0.01 -0,-0.02 -0.01,-0.03 -0,-0 -0,-0 -0,-0l-0.29 -0.57c-0.01,-0.02 -0.04,-0.04 -0.06,-0.04 -0.03,0 -0.05,0.02 -0.06,0.04l-0.29 0.57c-0,0 -0,0 -0,0 -0,0.01 -0.01,0.02 -0.01,0.03l0 1.08 -0.33 0 0 -1.84c0,-0.12 0.1,-0.22 0.22,-0.22zm2.27 2.05l0 -1.58 0.43 0 0 0.14 -0.07 0c-0.04,0 -0.07,0.03 -0.07,0.07 0,0.04 0.03,0.07 0.07,0.07l0.07 0 0 0.22 -0.07 0c-0.04,0 -0.07,0.03 -0.07,0.07 0,0.04 0.03,0.07 0.07,0.07l0.07 0 0 0.22 -0.07 0c-0.04,0 -0.07,0.03 -0.07,0.07 0,0.04 0.03,0.07 0.07,0.07l0.07 0 0 0.29 -0.07 0c-0.04,0 -0.07,0.03 -0.07,0.07 0,0.04 0.03,0.07 0.07,0.07l0.07 0 0 0.14 -0.43 0zm-0.78 -0.72c0.03,0 0.05,-0 0.08,-0.01 0.01,0.09 0.03,0.24 0.04,0.44l-0.27 0c0.01,-0.21 0.03,-0.36 0.05,-0.45 0.03,0.01 0.06,0.01 0.1,0.01zm0 -0.14c-0.16,0 -0.27,-0.18 -0.19,-0.32l0.19 -0.32 0.19 0.32c0.08,0.14 -0.02,0.32 -0.19,0.32zm-0.15 0.72l0.28 0c0,0.05 0,0.1 0,0.14l-0.29 0c0,-0.05 0,-0.1 0,-0.14zm-0.79 0.14l0 -1.01 0.14 0 0 1.01 -0.14 0zm-0.29 0l0 -1.01 0.14 0 0 1.01 -0.14 0zm0.04 -1.15l0.17 -0.34 0.17 0.34 -0.34 0zm1.81 2.49l-1.27 0c0.01,-0.03 0.03,-0.06 0.05,-0.08 0.04,-0.04 0.09,-0.06 0.15,-0.06l0.86 0c0.09,0 0.17,0.06 0.2,0.14zm-0.42 -0.29l-0.43 0 0 -0.33 0.43 0 0 0.33zm1.26 -0.47l-2.96 0c-0.12,0 -0.22,-0.1 -0.22,-0.22l0 -0.22 3.39 0 0 0.22c0,0.12 -0.1,0.22 -0.22,0.22zm0 0z"/>
  <path class="fil0" d="M1.98 2.49l-0.43 0c-0.04,0 -0.07,0.03 -0.07,0.07 0,0.04 0.03,0.07 0.07,0.07l0.43 0c0.04,0 0.07,-0.03 0.07,-0.07 0,-0.04 -0.03,-0.07 -0.07,-0.07zm0 0z"/>
 </g>
</svg>
