<?xml version="1.0" encoding="UTF-8"?>
<!DOCTYPE svg PUBLIC "-//W3C//DTD SVG 1.1//EN" "http://www.w3.org/Graphics/SVG/1.1/DTD/svg11.dtd">
<!-- Creator: CorelDRAW 2018 (64-Bit) -->
<svg xmlns="http://www.w3.org/2000/svg" xml:space="preserve" width="3.3117mm" height="3.3133mm" version="1.1" style="shape-rendering:geometricPrecision; text-rendering:geometricPrecision; image-rendering:optimizeQuality; fill-rule:evenodd; clip-rule:evenodd"
viewBox="0 0 3.83 3.84"
 xmlns:xlink="http://www.w3.org/1999/xlink">
 <defs>
  <style type="text/css">
   <![CDATA[
    .fil1 {fill:#544838}
    .fil0 {fill:#C39B6D;fill-rule:nonzero}
   ]]>
  </style>
 </defs>
 <g id="Слой_x0020_1">
  <metadata id="CorelCorpID_0Corel-Layer"/>
  <path class="fil0" d="M1.47 2.3c-0.35,0 -0.64,0.29 -0.64,0.64 0,0.35 0.29,0.64 0.64,0.64 0.35,0 0.64,-0.29 0.64,-0.64 -0,-0.35 -0.29,-0.64 -0.64,-0.64zm0 1.15c-0.28,0 -0.51,-0.23 -0.51,-0.51 0,-0.28 0.23,-0.51 0.51,-0.51 0.28,0 0.51,0.23 0.51,0.51 -0,0.28 -0.23,0.51 -0.51,0.51zm0 0z"/>
  <path class="fil0" d="M3.26 3.71l-2.68 0 0 -1.53 1.02 0c0.11,0 0.19,-0.09 0.19,-0.19l0 -1.6 0.7 0 0 0.77 0.77 0 0 0.89 0.13 0 0 -0.99 -0.8 -0.8 -0.79 0 0 -0.06c0,-0.11 -0.09,-0.19 -0.19,-0.19l-1.41 0c-0.11,0 -0.19,0.09 -0.19,0.19l0 1.79c0,0.11 0.09,0.19 0.19,0.19l0.26 0 0 1.66 2.94 0 0 -0.89 -0.13 0 0 0.77zm-0.64 -3.23l0.55 0.55 -0.55 0 0 -0.55zm-2.49 1.51l0 -1.79c0,-0.04 0.03,-0.06 0.06,-0.06l1.41 0c0.04,0 0.06,0.03 0.06,0.06l0 1.79c0,0.04 -0.03,0.06 -0.06,0.06l-1.41 0c-0.04,0 -0.06,-0.03 -0.06,-0.06zm0 0z"/>
  <path class="fil1" d="M2.05 1.6l0.13 0 0 0.13 -0.13 0 0 -0.13zm0 0z"/>
  <path class="fil1" d="M2.3 1.6l0.77 0 0 0.13 -0.77 0 0 -0.13zm0 0z"/>
  <path class="fil1" d="M2.05 1.34l0.13 0 0 0.13 -0.13 0 0 -0.13zm0 0z"/>
  <path class="fil1" d="M2.3 1.34l0.77 0 0 0.13 -0.77 0 0 -0.13zm0 0z"/>
  <path class="fil1" d="M2.05 1.85l0.13 0 0 0.13 -0.13 0 0 -0.13zm0 0z"/>
  <path class="fil1" d="M2.3 1.85l0.77 0 0 0.13 -0.77 0 0 -0.13zm0 0z"/>
  <path class="fil1" d="M2.05 2.11l0.13 0 0 0.13 -0.13 0 0 -0.13zm0 0z"/>
  <path class="fil1" d="M2.3 2.11l0.77 0 0 0.13 -0.77 0 0 -0.13zm0 0z"/>
  <path class="fil1" d="M0.51 0.7l-0.13 0c-0.07,0 -0.13,0.06 -0.13,0.13l0 0.13c0,0.07 0.06,0.13 0.13,0.13l0.13 0c0.07,0 0.13,-0.06 0.13,-0.13l0 -0.13c0,-0.07 -0.06,-0.13 -0.13,-0.13l0 0zm-0.13 0.26l0 -0.13 0.13 0 0 0.13 -0.13 0zm0 0z"/>
  <path class="fil1" d="M0.96 0.7l-0.13 0c-0.07,0 -0.13,0.06 -0.13,0.13l0 0.13c0,0.07 0.06,0.13 0.13,0.13l0.13 0c0.07,0 0.13,-0.06 0.13,-0.13l0 -0.13c0,-0.07 -0.06,-0.13 -0.13,-0.13l0 0zm-0.13 0.26l0 -0.13 0.13 0 0 0.13 -0.13 0zm0 0z"/>
  <path class="fil1" d="M1.41 0.7l-0.13 0c-0.07,0 -0.13,0.06 -0.13,0.13l0 0.13c0,0.07 0.06,0.13 0.13,0.13l0.13 0c0.07,0 0.13,-0.06 0.13,-0.13l0 -0.13c0,-0.07 -0.06,-0.13 -0.13,-0.13l0 0zm-0.13 0.26l0 -0.13 0.13 0 0 0.13 -0.13 0zm0 0z"/>
  <path class="fil1" d="M0.51 1.15l-0.13 0c-0.07,0 -0.13,0.06 -0.13,0.13l0 0.13c0,0.07 0.06,0.13 0.13,0.13l0.13 0c0.07,0 0.13,-0.06 0.13,-0.13l0 -0.13c0,-0.07 -0.06,-0.13 -0.13,-0.13l0 0zm-0.13 0.26l0 -0.13 0.13 0 0 0.13 -0.13 0zm0 0z"/>
  <path class="fil1" d="M0.96 1.15l-0.13 0c-0.07,0 -0.13,0.06 -0.13,0.13l0 0.13c0,0.07 0.06,0.13 0.13,0.13l0.13 0c0.07,0 0.13,-0.06 0.13,-0.13l0 -0.13c0,-0.07 -0.06,-0.13 -0.13,-0.13l0 0zm-0.13 0.26l0 -0.13 0.13 0 0 0.13 -0.13 0zm0 0z"/>
  <path class="fil1" d="M1.41 1.15l-0.13 0c-0.07,0 -0.13,0.06 -0.13,0.13l0 0.13c0,0.07 0.06,0.13 0.13,0.13l0.13 0c0.07,0 0.13,-0.06 0.13,-0.13l0 -0.13c0,-0.07 -0.06,-0.13 -0.13,-0.13l0 0zm-0.13 0.26l0 -0.13 0.13 0 0 0.13 -0.13 0zm0 0z"/>
  <path class="fil1" d="M0.51 1.6l-0.13 0c-0.07,0 -0.13,0.06 -0.13,0.13l0 0.13c0,0.07 0.06,0.13 0.13,0.13l0.13 0c0.07,0 0.13,-0.06 0.13,-0.13l0 -0.13c0,-0.07 -0.06,-0.13 -0.13,-0.13l0 0zm-0.13 0.26l0 -0.13 0.13 0 0 0.13 -0.13 0zm0 0z"/>
  <path class="fil1" d="M0.96 1.6l-0.13 0c-0.07,0 -0.13,0.06 -0.13,0.13l0 0.13c0,0.07 0.06,0.13 0.13,0.13l0.13 0c0.07,0 0.13,-0.06 0.13,-0.13l0 -0.13c0,-0.07 -0.06,-0.13 -0.13,-0.13l0 0zm-0.13 0.26l0 -0.13 0.13 0 0 0.13 -0.13 0zm0 0z"/>
  <path class="fil1" d="M1.41 1.6l-0.13 0c-0.07,0 -0.13,0.06 -0.13,0.13l0 0.13c0,0.07 0.06,0.13 0.13,0.13l0.13 0c0.07,0 0.13,-0.06 0.13,-0.13l0 -0.13c0,-0.07 -0.06,-0.13 -0.13,-0.13l0 0zm-0.13 0.26l0 -0.13 0.13 0 0 0.13 -0.13 0zm0 0z"/>
  <path class="fil0" d="M3.78 2.04c-0.08,-0.07 -0.2,-0.07 -0.27,0l-1.1 1.1c-0.01,0.01 -0.01,0.01 -0.01,0.02l-0.15 0.34c-0.01,0.02 -0.01,0.05 0.01,0.07 0.02,0.02 0.05,0.02 0.07,0.01l0.34 -0.15c0.01,-0 0.01,-0.01 0.02,-0.01l1.1 -1.1c0.07,-0.07 0.07,-0.2 0,-0.27zm-1.18 1.27l-0.17 0.08 0.08 -0.17 0.82 -0.82 0.09 0.09 -0.82 0.82zm0.91 -0.91l-0.09 -0.09 0.04 -0.04 0.09 0.09 -0.04 0.04zm0.18 -0.18l-0.05 0.05 -0.09 -0.09 0.05 -0.05c0.03,-0.02 0.07,-0.02 0.09,0 0.03,0.02 0.03,0.07 0,0.09zm0 0z"/>
 </g>
</svg>
