<svg width="138" height="138" viewBox="0 0 138 138" fill="none" xmlns="http://www.w3.org/2000/svg">
<path d="M11.8782 108.872C11.3769 108.37 10.6815 108.082 9.97266 108.082C9.26379 108.082 8.5684 108.37 8.06707 108.872C7.56574 109.373 7.27734 110.068 7.27734 110.777C7.27734 111.486 7.56574 112.182 8.06707 112.683C8.5684 113.184 9.26379 113.473 9.97266 113.473C10.6815 113.473 11.3769 113.184 11.8782 112.683C12.3796 112.182 12.668 111.486 12.668 110.777C12.668 110.068 12.3796 109.373 11.8782 108.872Z" fill="#005455"/>
<path d="M120.11 31.2624C120.109 31.2616 120.108 31.2605 120.107 31.2597L102.138 19.1222C98.6932 16.795 94.5893 15.9336 90.6603 16.5131C90.8358 15.6665 90.9277 14.7965 90.9277 13.9119C90.9277 10.5214 89.6073 7.33395 87.2098 4.93619L85.9912 3.71764C83.594 1.32016 80.4063 0 77.0159 0C73.6254 0 70.4377 1.32016 68.0399 3.71791C65.6424 6.11566 64.3223 9.30314 64.3223 12.6938C64.3223 16.0843 65.6427 19.2718 68.0399 21.6692L69.2585 22.8881C70.7854 24.4147 72.6333 25.5025 74.6491 26.0928L56.5142 39.7564C55.3601 40.6259 54.5221 41.7679 54.0297 43.0299C52.7246 42.7663 51.3414 42.8401 50.0185 43.3126L32.4508 49.5819C33.0925 48.0652 33.4475 46.399 33.4475 44.6514V42.928C33.4475 35.9288 27.7531 30.2344 20.7539 30.2344C13.7547 30.2344 8.06033 35.9288 8.06033 42.928V44.6514C8.06033 49.5215 10.8187 53.7575 14.8539 55.8854C10.2947 57.812 7.27734 62.3151 7.27734 67.3079V99.457C7.27734 100.945 8.48404 102.152 9.97266 102.152C11.4613 102.152 12.668 100.945 12.668 99.457V94.5246H23.2991C23.8603 94.5246 24.3813 94.3526 24.8128 94.0591L37.0007 85.7859C38.1988 84.9727 39.5974 84.5431 41.045 84.5431C45.0155 84.5431 48.2458 87.7731 48.2458 91.7436V108.448L40.6989 111.468V97.9746C40.6989 97.004 40.1771 96.1086 39.3332 95.63C38.4893 95.1515 37.453 95.1634 36.6201 95.6615L22.9641 103.831C21.2682 104.845 20.2148 106.703 20.2148 108.68V132.609H12.668V121.294C12.668 119.806 11.4613 118.599 9.97266 118.599C8.48404 118.599 7.27734 119.806 7.27734 121.294V135.305C7.27734 136.793 8.48404 138 9.97266 138H22.9102C24.3988 138 25.6055 136.793 25.6055 135.305V108.68C25.6055 108.589 25.654 108.503 25.7316 108.457L35.3086 102.728V135.305C35.3086 136.793 36.5153 138 38.0039 138H128.027C129.516 138 130.723 136.793 130.723 135.305V50.8665C130.723 42.9264 126.756 35.6021 120.11 31.2624ZM73.0705 19.0766L71.8519 17.8575C70.4724 16.4783 69.7129 14.6444 69.7129 12.6938C69.7129 10.743 70.4724 8.90909 71.8519 7.52989C73.2311 6.15016 75.065 5.39062 77.0159 5.39062C78.9667 5.39062 80.8003 6.15016 82.1798 7.52989L83.3984 8.74845C86.2457 11.5955 86.2457 16.229 83.3984 19.0763C80.5508 21.9237 75.9175 21.9237 73.0705 19.0766ZM59.7583 44.0616L86.498 23.9147C90.2035 21.1232 95.2763 20.9924 99.1209 23.5891L114.063 33.6822L100.876 44.2902L90.5339 37.3042C89.7873 36.7996 88.838 36.7015 88.0038 37.0433L61.8566 47.7507C60.8858 48.1474 59.7518 47.7698 59.2131 46.8715C59.2106 46.8672 59.2079 46.8631 59.2055 46.8588C58.6495 45.9206 58.8869 44.7179 59.7583 44.0616ZM13.451 44.6514V42.928C13.451 38.9012 16.7271 35.625 20.7539 35.625C24.7807 35.625 28.0569 38.9009 28.0569 42.928V44.6514C28.0569 48.6782 24.7807 51.9546 20.7539 51.9546C16.7271 51.9546 13.451 48.6784 13.451 44.6514ZM28.8398 70.7069V84.8107L22.4711 89.134H12.668V81.8477V67.3079C12.668 64.3511 14.5388 61.6973 17.3233 60.7036L51.8301 48.3892C52.7909 48.0466 53.8669 48.4345 54.3871 49.3124C54.9588 50.2767 54.6828 51.5295 53.7591 52.1643L30.0085 68.4857C29.277 68.9884 28.8398 69.8191 28.8398 70.7069ZM41.0453 79.1524C38.6163 79.1524 36.2676 79.8462 34.2305 81.1583V72.1249L56.8123 56.6067C58.0972 55.7237 59.0244 54.5008 59.5543 53.1359C60.054 53.2383 60.5645 53.2931 61.0785 53.2931C62.0261 53.2931 62.9835 53.1141 63.8997 52.7389L88.7122 42.5784L99.4223 49.8129C101.807 51.6414 103.231 54.5213 103.231 57.5282V78.7031H97.9299C97.3334 78.7031 96.7539 78.901 96.2817 79.2656L69.4897 99.9691L53.6367 106.302V91.7436C53.6367 84.8007 47.9882 79.1524 41.0453 79.1524ZM125.332 132.609H40.6992V117.275L71.8392 104.835C72.0716 104.742 72.2896 104.618 72.4875 104.465L98.8498 84.0938H125.332V132.609ZM125.332 78.7031H119.941V57.446C119.941 55.9577 118.735 54.7507 117.246 54.7507C115.757 54.7507 114.551 55.9577 114.551 57.446V78.7031H108.621V57.5282C108.621 53.9669 107.335 50.5209 105.083 47.8237L118.682 36.8848C122.877 40.2887 125.332 45.3866 125.332 50.8665V78.7031Z" fill="#005455"/>
<path d="M115.09 94.9648H108.801C107.312 94.9648 106.105 96.1718 106.105 97.6602C106.105 99.1485 107.312 100.355 108.801 100.355H112.394V110.777C112.394 112.266 113.601 113.473 115.09 113.473C116.578 113.473 117.785 112.266 117.785 110.777V97.6602C117.785 96.1718 116.578 94.9648 115.09 94.9648Z" fill="#005455"/>
<path d="M116.995 119.389C116.494 118.888 115.799 118.599 115.09 118.599C114.381 118.599 113.686 118.888 113.184 119.389C112.683 119.89 112.395 120.586 112.395 121.294C112.395 122.003 112.683 122.699 113.184 123.2C113.686 123.701 114.381 123.99 115.09 123.99C115.799 123.99 116.494 123.702 116.995 123.2C117.497 122.698 117.785 122.003 117.785 121.294C117.785 120.586 117.497 119.89 116.995 119.389Z" fill="#005455"/>
</svg>
