<svg width="138" height="168" viewBox="0 0 138 168" fill="none" xmlns="http://www.w3.org/2000/svg">
<path d="M103.191 94.4077C108.879 86.908 111.885 77.9564 111.885 68.5202C111.885 56.9507 107.347 46.1051 99.1077 37.9812C90.8698 29.8591 79.9513 25.473 68.3803 25.6401C57.1671 25.7988 46.6026 30.2983 38.633 38.3097C30.6638 46.3207 26.219 56.9089 26.1171 68.1233C26.0298 77.7372 29.0535 86.8498 34.8612 94.4763C44.2893 106.857 49.4819 122.022 49.4819 137.179V153.763C49.4819 161.12 55.4666 167.104 62.823 167.104H75.2323C82.5886 167.104 88.5734 161.119 88.5734 153.763V137.18C88.5737 121.856 93.5918 107.065 103.191 94.4077ZM39.2357 91.1454C34.1743 84.499 31.5391 76.5555 31.615 68.1735C31.7979 48.0369 48.3254 31.4229 68.458 31.138C78.5577 31.0024 88.0661 34.8164 95.2472 41.8971C102.431 48.9793 106.386 58.4345 106.386 68.5206C106.386 76.7468 103.767 84.5496 98.8101 91.0856C88.6958 104.423 83.2499 119.982 83.027 136.146H54.9725C54.7427 120.139 49.1747 104.197 39.2357 91.1454ZM54.9802 151.9V149.674L83.0754 152.893V153.763C83.0754 154.222 83.0278 154.668 82.9523 155.105L54.9802 151.9ZM54.9802 144.14V141.644H83.0754V147.359L54.9802 144.14ZM62.823 161.606C59.8697 161.606 57.2946 159.964 55.9571 157.546L79.6243 160.258C78.3703 161.108 76.8587 161.606 75.2327 161.606H62.823V161.606Z" fill="#005455"/>
<path d="M41.8152 72.6556C41.6007 71.2169 41.4985 69.7389 41.512 68.2632C41.526 66.7449 40.3065 65.503 38.7882 65.4891C37.2802 65.4759 36.028 66.6947 36.0141 68.213C35.998 69.9761 36.12 71.7436 36.377 73.4668C36.5804 74.8311 37.7534 75.8109 39.0928 75.8109C39.2277 75.8109 39.3644 75.801 39.5019 75.7805C41.0033 75.5561 42.0391 74.1574 41.8152 72.6556Z" fill="#005455"/>
<path d="M57.9937 114.414C58.2782 114.414 58.5678 114.369 58.8529 114.276C60.2953 113.802 61.0801 112.248 60.6058 110.806C57.559 101.54 53.0182 92.9081 47.1093 85.1493C46.1328 83.8667 45.2674 82.5006 44.5376 81.0883C43.8404 79.7393 42.1817 79.2115 40.8328 79.9087C39.4843 80.6059 38.9561 82.2645 39.6533 83.6134C40.5293 85.3077 41.5659 86.945 42.7352 88.4805C48.2724 95.7515 52.5277 103.841 55.3828 112.523C55.7633 113.68 56.8384 114.414 57.9937 114.414Z" fill="#005455"/>
<path d="M97.8868 77.934C96.4924 77.3332 94.8748 77.9769 94.2744 79.3713C93.4035 81.3939 92.2763 83.3231 90.9245 85.1053C90.007 86.3149 90.2442 88.0395 91.4538 88.957C91.9505 89.3338 92.534 89.5156 93.1128 89.5156C93.9438 89.5156 94.7649 89.1406 95.3055 88.4273C96.9253 86.2914 98.2772 83.9763 99.3241 81.5464C99.9248 80.152 99.2815 78.5344 97.8868 77.934Z" fill="#005455"/>
<path d="M69.0006 41.0313C84.1583 41.0313 96.4899 53.3632 96.4899 68.5209C96.4899 69.3827 96.4503 70.2511 96.3723 71.1018C96.2337 72.6139 97.3466 73.9518 98.8586 74.0907C98.944 74.0984 99.0287 74.1024 99.113 74.1024C100.518 74.1024 101.717 73.031 101.847 71.6044C101.941 70.5872 101.988 69.5498 101.988 68.5209C101.988 50.3314 87.1901 35.533 69.0006 35.533C67.4824 35.533 66.2515 36.7638 66.2515 38.2821C66.2515 39.8004 67.4824 41.0313 69.0006 41.0313Z" fill="#005455"/>
<path d="M69.0006 20.8935C70.5189 20.8935 71.7498 19.6627 71.7498 18.1444V2.74915C71.7498 1.23089 70.5189 0 69.0006 0C67.4824 0 66.2515 1.23089 66.2515 2.74915V18.1444C66.2515 19.6627 67.4824 20.8935 69.0006 20.8935Z" fill="#005455"/>
<path d="M41.1876 26.3258C41.6971 27.208 42.6209 27.7011 43.571 27.7011C44.0372 27.7011 44.5101 27.5823 44.943 27.3323C46.2578 26.5732 46.7087 24.8918 45.9495 23.577L38.2556 10.2491C37.4961 8.93389 35.8151 8.4834 34.5002 9.24253C33.1854 10.0017 32.7345 11.683 33.4937 12.9979L41.1876 26.3258Z" fill="#005455"/>
<path d="M127.751 99.7448L114.423 92.0508C113.108 91.2913 111.427 91.7422 110.668 93.0574C109.909 94.3722 110.359 96.0536 111.675 96.8127L125.003 104.507C125.435 104.757 125.908 104.875 126.375 104.875C127.325 104.875 128.249 104.382 128.758 103.5C129.517 102.185 129.066 100.504 127.751 99.7448Z" fill="#005455"/>
<path d="M10.2493 38.2556L23.5772 45.9495C24.0101 46.1995 24.4826 46.3183 24.9492 46.3183C25.8993 46.3183 26.8234 45.8249 27.3326 44.943C28.0917 43.6281 27.6412 41.9468 26.326 41.1876L12.9981 33.4937C11.6833 32.7342 10.0019 33.185 9.24278 34.5002C8.48364 35.8151 8.93414 37.4961 10.2493 38.2556Z" fill="#005455"/>
<path d="M135.251 66.2507H119.856C118.337 66.2507 117.106 67.4816 117.106 68.9999C117.106 70.5181 118.337 71.749 119.856 71.749H135.251C136.769 71.749 138 70.5181 138 68.9999C138 67.4816 136.769 66.2507 135.251 66.2507Z" fill="#005455"/>
<path d="M20.8935 68.9999C20.8935 67.4816 19.6627 66.2507 18.1444 66.2507H2.74915C1.23089 66.2507 0 67.4816 0 68.9999C0 70.5181 1.23089 71.749 2.74915 71.749H18.1444C19.663 71.749 20.8935 70.5181 20.8935 68.9999Z" fill="#005455"/>
<path d="M113.051 46.3185C113.518 46.3185 113.99 46.1998 114.423 45.9498L127.751 38.2558C129.066 37.4967 129.517 35.8153 128.758 34.5005C127.999 33.1856 126.317 32.7348 125.002 33.4939L111.675 41.1879C110.36 41.947 109.909 43.6284 110.668 44.9432C111.177 45.8251 112.102 46.3185 113.051 46.3185Z" fill="#005455"/>
<path d="M23.5771 92.0506L10.2493 99.7446C8.93443 100.504 8.48356 102.185 9.2427 103.5C9.75184 104.382 10.6759 104.875 11.626 104.875C12.0923 104.875 12.5651 104.756 12.998 104.506L26.3259 96.8125C27.6407 96.0534 28.0916 94.372 27.3325 93.0572C26.5737 91.742 24.8912 91.2915 23.5771 92.0506Z" fill="#005455"/>
<path d="M93.0574 27.3323C93.4903 27.5823 93.9627 27.7011 94.4294 27.7011C95.3795 27.7011 96.3036 27.2077 96.8127 26.3258L104.507 12.9979C105.266 11.683 104.815 10.0017 103.5 9.24253C102.186 8.4834 100.504 8.93389 99.7448 10.2491L92.0508 23.577C91.2917 24.8918 91.7425 26.5732 93.0574 27.3323Z" fill="#005455"/>
</svg>
