<svg width="138" height="138" viewBox="0 0 138 138" fill="none" xmlns="http://www.w3.org/2000/svg">
<path d="M44.7424 73.31C50.6859 73.31 55.521 68.4749 55.521 62.5315C55.521 56.5881 50.6859 51.7529 44.7424 51.7529C38.799 51.7529 33.9639 56.5881 33.9639 62.5312C33.9639 68.4744 38.799 73.31 44.7424 73.31ZM44.7424 57.1433C47.7132 57.1433 50.1304 59.5604 50.1304 62.5312C50.1304 65.502 47.7132 67.9192 44.7424 67.9192C41.7716 67.9192 39.3545 65.502 39.3545 62.5312C39.3545 59.5604 41.7716 57.1433 44.7424 57.1433Z" fill="#005455"/>
<path d="M93.258 51.7527C87.3146 51.7527 82.4795 56.5878 82.4795 62.5312C82.4795 68.4747 87.3146 73.3098 93.258 73.3098C99.2015 73.3098 104.037 68.4747 104.037 62.5312C104.037 56.5878 99.2015 51.7527 93.258 51.7527ZM93.258 67.9194C90.2873 67.9194 87.8701 65.5023 87.8701 62.5315C87.8701 59.5607 90.2873 57.1436 93.258 57.1436C96.2288 57.1436 98.646 59.5607 98.646 62.5315C98.646 65.5023 96.2291 67.9194 93.258 67.9194Z" fill="#005455"/>
<path d="M28.5703 121.828H35.3366C38.8462 126.202 43.2215 129.893 48.1135 132.609H20.4844C18.996 132.609 17.7891 133.816 17.7891 135.305C17.7891 136.793 18.996 138 20.4844 138H117.516C119.004 138 120.211 136.793 120.211 135.305C120.211 133.816 119.004 132.609 117.516 132.609H89.8868C94.7788 129.893 99.1541 126.202 102.663 121.828H109.43C119.833 121.828 128.297 113.364 128.297 102.961C128.297 93.4729 121.256 85.6015 112.125 84.2894V81.7593C117.278 76.7021 120.211 69.7636 120.211 62.5312C120.211 55.2951 117.277 48.3569 112.125 43.3048C112.125 38.713 112.125 6.70782 112.125 2.69531C112.125 1.20669 110.918 0 109.43 0H81.1286C79.6403 0 78.4333 1.20669 78.4333 2.69531C78.4333 4.18393 79.6403 5.39062 81.1286 5.39062H106.734V8.10076C93.3923 8.40237 79.823 13.3523 69.0011 23.226C58.8015 13.9032 45.409 8.42043 31.2656 8.10076V5.39062H56.8708C58.3592 5.39062 59.5661 4.18393 59.5661 2.69531C59.5661 1.20669 58.3592 0 56.8708 0H28.5703C27.082 0 25.875 1.20669 25.875 2.69531V10.7812C25.875 12.2699 27.082 13.4766 28.5703 13.4766H29.9584C34.0302 13.4766 38.0869 13.9542 42.0469 14.8908V35.7126C28.4455 37.0692 17.7891 48.579 17.7891 62.5312C17.7891 69.7674 20.7232 76.7056 25.875 81.7577V84.2894C16.7444 85.6018 9.70312 93.4729 9.70312 102.961C9.70312 113.365 18.1672 121.828 28.5703 121.828ZM69 132.609C47.6375 132.609 31.2656 115.236 31.2656 94.875V85.8573C35.3347 88.2157 39.9701 89.4844 44.7422 89.4844C48.6307 89.4844 52.4853 88.6332 56.0013 87.0141L67.2179 96.897C67.7273 97.3458 68.3636 97.57 68.9997 97.57C69.6358 97.57 70.2725 97.3455 70.7816 96.897L81.9981 87.0141C85.5147 88.6332 89.3693 89.4844 93.2578 89.4844C98.0304 89.4844 102.666 88.216 106.734 85.8589V94.875C106.734 115.254 90.3474 132.609 69 132.609ZM60.8674 84.1172C64.3608 81.5038 67.134 78.1088 69 74.2567C70.866 78.1088 73.6392 81.5038 77.1326 84.1172L69 91.2827L60.8674 84.1172ZM122.906 102.961C122.906 110.392 116.861 116.438 109.43 116.438H106.36C110.145 109.912 112.125 102.55 112.125 94.875V89.7555C118.269 91.0078 122.906 96.4528 122.906 102.961ZM114.82 62.5312C114.82 74.3839 105.172 84.0938 93.2578 84.0938C81.3704 84.0938 71.6953 74.4189 71.6953 62.5312V48.3022L93.667 40.9782C105.486 41.2024 114.82 50.9058 114.82 62.5312ZM106.734 39.2055C103.437 37.2942 99.767 36.1005 95.9531 35.7175V14.8911C99.4896 14.0547 103.102 13.5895 106.734 13.4989V39.2055ZM67.0941 28.8592C67.6205 29.3856 68.3103 29.6487 69 29.6487C69.6897 29.6487 70.3795 29.3854 70.9059 28.8592C76.4504 23.3147 83.1911 19.0785 90.5625 16.4743V36.3309L69 43.5185L47.4375 36.3309V16.4764C54.7396 19.0524 61.42 23.1848 67.0941 28.8592ZM23.1797 62.5312C23.1797 50.7778 32.6335 41.1973 44.3357 40.979L66.3047 48.3022V62.5312C66.3047 74.4187 56.6299 84.0938 44.7422 84.0938C32.7591 84.0938 23.1797 74.3055 23.1797 62.5312ZM25.875 89.7558V94.875C25.875 102.551 27.8552 109.912 31.64 116.438H28.5703C21.1393 116.438 15.0938 110.392 15.0938 102.961C15.0938 96.4528 19.7313 91.0078 25.875 89.7558Z" fill="#005455"/>
<path d="M69 5.39062C70.4886 5.39062 71.6953 4.18389 71.6953 2.69531C71.6953 1.20673 70.4886 0 69 0C67.5114 0 66.3047 1.20673 66.3047 2.69531C66.3047 4.18389 67.5114 5.39062 69 5.39062Z" fill="#005455"/>
</svg>
