<?xml version="1.0" standalone="no"?>
<!DOCTYPE svg PUBLIC "-//W3C//DTD SVG 20010904//EN"
 "http://www.w3.org/TR/2001/REC-SVG-20010904/DTD/svg10.dtd">
<svg version="1.0" xmlns="http://www.w3.org/2000/svg"
 width="538.000000pt" height="702.000000pt" viewBox="0 0 538.000000 702.000000"
 preserveAspectRatio="xMidYMid meet">
<metadata>
Created by potrace 1.15, written by Peter Selinger 2001-2017
</metadata>
<g transform="translate(0.000000,702.000000) scale(0.100000,-0.100000)"
fill="#000000" stroke="none">
<path d="M10 7013 c0 -2 0 -1578 0 -3503 l0 -3500 2680 0 2680 0 0 3500 0
3500 -2680 3 c-1474 1 -2680 1 -2680 0z m5333 -31 c16 -17 17 -270 15 -3488
l-3 -3469 -2649 -3 c-2455 -2 -2651 -1 -2668 15 -17 16 -18 136 -18 3483 0
1907 3 3470 7 3473 3 4 1197 7 2653 7 2552 0 2647 -1 2663 -18z"/>
<path d="M3439 6852 c-10 -14 -19 -21 -19 -17 0 4 -9 -3 -20 -16 -12 -15 -19
-19 -20 -10 0 11 -3 11 -17 0 -14 -12 -16 -12 -9 1 4 9 2 8 -7 -2 -8 -10 -17
-15 -20 -11 -4 3 -7 1 -7 -6 0 -7 -4 -9 -10 -6 -5 3 -10 1 -10 -5 0 -7 -6 -10
-12 -7 -7 2 -22 -3 -32 -12 -16 -13 -18 -13 -12 -1 5 9 2 8 -7 -2 -8 -10 -17
-15 -20 -11 -4 3 -7 1 -7 -6 0 -7 -5 -9 -12 -5 -10 5 -10 4 -1 -6 6 -7 9 -19
6 -26 -3 -8 0 -14 7 -14 6 0 9 -4 6 -9 -4 -5 2 -8 11 -7 9 2 19 8 21 14 2 7 8
10 13 6 5 -3 9 0 9 6 0 6 4 9 9 6 5 -4 7 2 4 13 -3 10 0 22 6 25 6 4 11 2 11
-4 0 -6 4 -9 9 -6 5 4 11 0 14 -6 3 -10 8 -9 22 2 17 13 18 13 11 0 -4 -8 2
-4 14 10 12 14 18 19 14 11 -5 -10 -3 -12 5 -6 9 5 10 10 2 18 -20 20 -11 30
10 11 26 -23 22 -23 48 0 12 11 24 16 28 13 3 -4 0 -7 -8 -7 -10 -1 -8 -5 5
-15 11 -8 14 -15 7 -15 -7 0 -9 -5 -6 -10 4 -6 11 -8 16 -5 5 4 9 1 9 -6 0 -9
3 -9 14 0 12 10 14 9 11 -6 -2 -10 -4 -22 -4 -26 -1 -5 -7 -5 -13 -1 -9 5 -9
2 1 -9 10 -13 11 -17 1 -17 -8 0 -3 -10 11 -23 25 -24 36 -27 56 -14 9 6 11 3
7 -10 -5 -15 -4 -15 4 -3 8 10 8 18 0 27 -8 10 -7 13 3 13 9 1 8 5 -5 15 -11
8 -14 15 -7 15 7 0 9 5 6 10 -4 6 -11 8 -16 5 -5 -4 -9 -1 -9 6 0 9 -3 9 -14
0 -12 -10 -14 -9 -11 6 2 10 4 22 4 26 1 5 7 5 14 1 8 -5 8 -2 -2 9 -9 12 -10
17 -2 17 8 0 6 10 -4 30 -8 16 -15 32 -15 35 0 12 -38 42 -54 42 -9 0 -26 -11
-37 -25z"/>
<path d="M2799 6635 c-5 -19 -3 -31 6 -37 6 -5 5 -8 -3 -8 -7 0 -11 -4 -8 -9
3 -4 -7 -19 -22 -32 l-27 -24 20 25 20 25 -22 -19 c-26 -22 -25 -32 2 -60 17
-17 17 -18 2 -6 -17 13 -17 11 3 -22 12 -21 26 -35 31 -32 5 3 9 0 9 -7 0 -9
3 -9 14 0 12 10 14 9 11 -6 -2 -10 -4 -18 -5 -18 -9 0 -6 -41 3 -47 9 -6 9 -8
-1 -8 -7 0 -10 -5 -7 -10 4 -6 11 -8 16 -5 5 4 9 1 9 -4 0 -6 7 -11 16 -11 9
0 12 5 8 13 -6 9 -5 9 8 0 8 -7 17 -11 20 -8 3 3 11 -3 19 -12 12 -16 12 -17
-2 -5 -13 10 -19 9 -29 -3 -7 -8 -16 -12 -21 -9 -13 7 -7 -19 6 -28 6 -5 5 -8
-3 -8 -10 0 -10 -5 -2 -20 6 -11 15 -18 20 -15 6 4 7 -1 3 -11 -5 -13 -3 -15
7 -9 9 6 11 4 5 -5 -4 -7 -2 -16 6 -21 11 -7 11 -9 1 -9 -10 0 -10 -5 -2 -20
6 -11 15 -18 21 -15 5 4 9 1 9 -6 0 -8 5 -7 17 2 14 12 16 12 9 -1 -4 -9 -2
-8 7 2 8 10 18 14 23 10 4 -4 2 1 -5 11 -9 12 -10 17 -2 17 9 0 9 5 1 20 -6
11 -15 18 -21 15 -5 -4 -9 -1 -9 6 0 8 -5 8 -17 -2 -17 -13 -17 -13 -1 7 14
16 15 23 6 32 -9 9 -9 12 3 12 10 1 9 5 -5 15 -13 10 -15 15 -6 15 9 0 8 6 -5
20 -11 12 -20 28 -21 37 -2 9 -8 19 -14 23 -9 6 -9 9 0 12 8 2 7 8 -6 18 -16
13 -17 13 -10 0 5 -9 2 -9 -7 2 -13 16 -15 16 -32 0 -12 -11 -15 -11 -8 -2 11
15 13 20 13 41 0 5 6 7 13 3 8 -5 8 -2 -2 9 -9 12 -10 17 -2 17 8 0 9 5 1 19
-13 25 -13 34 0 26 6 -3 10 -1 10 5 0 6 5 8 10 5 6 -3 10 -1 10 5 0 6 5 8 11
5 5 -4 20 1 31 12 15 12 19 13 14 3 -5 -9 -2 -8 7 2 8 10 17 15 20 11 4 -3 7
-1 7 6 0 7 5 9 13 5 9 -5 9 -4 0 6 -6 7 -9 19 -6 28 4 10 2 13 -5 8 -7 -4 -12
-3 -12 3 0 11 -19 9 -39 -3 -10 -7 -12 -5 -7 5 4 8 -2 3 -14 -11 -12 -14 -19
-19 -15 -12 3 6 -1 19 -10 28 -13 13 -18 14 -31 3 -9 -7 -18 -9 -22 -3 -8 10
-31 17 -33 9z"/>
<path d="M4926 6623 c-2 -2 -2 -19 1 -37 3 -27 0 -36 -23 -50 -17 -12 -24 -13
-18 -5 6 12 5 12 -9 0 -9 -7 -17 -10 -17 -6 0 4 -8 1 -17 -6 -14 -12 -16 -12
-9 1 4 9 2 8 -7 -2 -8 -10 -16 -16 -19 -13 -2 3 -5 -2 -5 -10 0 -8 4 -12 9 -9
4 3 8 1 8 -4 0 -5 11 -7 24 -5 14 3 35 -2 48 -11 12 -9 16 -16 9 -16 -10 0
-11 -3 -2 -13 6 -8 8 -17 4 -20 -3 -4 0 -7 8 -7 11 0 11 -2 1 -9 -11 -7 -11
-11 2 -23 8 -9 13 -18 10 -21 -3 -3 2 -4 13 -3 15 2 17 11 15 43 -2 27 2 44
13 53 8 7 15 9 15 5 0 -4 8 -1 17 6 15 12 16 12 8 -1 -8 -13 -6 -13 8 -2 9 8
21 11 27 7 5 -3 13 1 16 9 3 9 9 14 13 11 4 -2 8 2 8 10 0 8 -4 12 -9 9 -4 -3
-8 -1 -8 5 0 11 -19 9 -39 -3 -11 -7 -12 -6 -6 5 7 12 6 12 -7 1 -12 -10 -18
-9 -28 3 -7 8 -10 24 -7 35 3 11 0 20 -6 20 -8 0 -7 3 1 9 11 7 11 11 -2 23
-8 9 -13 18 -11 20 3 3 -2 5 -10 5 -8 0 -17 -2 -19 -4z"/>
<path d="M3766 6222 c-3 -3 -1 -11 5 -18 6 -7 7 -19 3 -25 -5 -9 -11 -7 -21 7
-14 20 -19 20 -41 2 -9 -8 -11 -6 -6 8 5 15 4 16 -4 4 -8 -10 -8 -18 0 -27 8
-10 7 -13 -3 -13 -9 -1 -8 -5 5 -15 12 -9 15 -15 7 -15 -11 0 -11 -3 -1 -15 7
-8 10 -15 7 -15 -4 0 4 -10 16 -23 17 -18 26 -21 36 -13 12 9 13 8 7 -4 -6
-13 -6 -13 6 0 7 9 26 15 42 15 26 0 30 4 31 28 1 15 -2 27 -7 27 -5 0 -7 4
-4 8 3 5 -1 9 -9 9 -8 0 -12 -3 -10 -7 2 -3 -5 -6 -16 -6 -11 0 -15 4 -10 9 5
5 7 15 5 22 -3 7 0 16 6 20 8 5 5 12 -7 22 -10 8 -11 11 -3 7 8 -4 11 -3 7 1
-9 11 -34 15 -41 7z"/>
<path d="M1505 6179 c-4 -6 -13 -8 -20 -5 -8 3 -19 -3 -27 -12 -12 -16 -11
-16 7 -2 20 15 20 14 1 -8 -11 -12 -22 -19 -25 -15 -10 13 -59 9 -73 -5 -19
-19 -16 -53 7 -77 21 -21 41 -25 64 -10 10 5 12 4 7 -3 -5 -8 -2 -10 9 -6 9 4
12 11 8 18 -5 7 -1 5 7 -4 16 -16 74 -20 87 -5 5 4 -1 5 -12 1 -17 -6 -18 -5
-7 6 11 11 15 10 25 -2 13 -16 60 -20 74 -6 5 5 2 6 -6 1 -10 -6 -12 -4 -6 5
7 11 10 10 19 -1 12 -15 101 -19 124 -6 7 5 12 3 12 -4 0 -8 4 -8 16 2 9 7 18
9 22 3 9 -11 53 -11 71 1 10 6 12 4 7 -6 -4 -8 -1 -5 8 5 13 16 18 17 32 5 21
-17 42 -20 51 -7 4 7 1 8 -7 3 -9 -6 -11 -4 -5 5 7 11 10 10 19 -1 12 -16 60
-19 73 -5 5 5 2 6 -6 1 -10 -6 -12 -4 -6 5 6 10 11 9 21 -4 8 -11 14 -13 19
-7 4 7 12 8 24 1 12 -6 22 -5 30 3 8 8 14 8 19 2 8 -12 51 -13 71 -1 7 5 16 5
20 0 3 -5 33 -9 66 -9 46 0 60 3 61 15 1 26 -7 31 -24 18 -10 -7 -14 -8 -10
-4 4 5 3 15 -4 23 -8 11 -8 17 2 26 9 8 11 8 6 0 -4 -7 1 -10 11 -9 10 2 18
11 18 22 0 20 -22 26 -42 11 -7 -5 -13 -6 -13 -1 0 12 -67 11 -77 0 -5 -5 -2
-6 6 -1 10 6 12 4 6 -5 -6 -10 -10 -10 -20 3 -9 13 -14 14 -25 4 -10 -10 -11
-9 -5 3 8 13 7 13 -8 1 -13 -10 -17 -10 -17 -1 0 10 -3 10 -15 0 -12 -10 -18
-10 -32 1 -10 8 -14 9 -10 2 4 -6 3 -14 -3 -18 -5 -3 -10 -1 -10 5 0 6 -4 8
-10 5 -5 -3 -10 -2 -10 4 0 11 -26 9 -37 -4 -4 -4 -2 -5 6 0 10 6 12 4 6 -5
-7 -11 -10 -10 -19 1 -12 16 -99 20 -113 5 -5 -6 -2 -6 7 -1 12 7 13 6 3 -7
-7 -8 -10 -18 -6 -22 4 -4 -1 -4 -12 0 -12 5 -14 9 -7 12 10 3 10 7 1 18 -9
11 -15 12 -26 2 -9 -7 -17 -8 -21 -2 -9 12 -58 12 -69 0 -5 -5 -2 -6 6 -1 10
6 12 4 6 -5 -7 -11 -10 -10 -19 1 -12 16 -41 25 -32 10 4 -5 2 -12 -3 -15 -5
-3 -11 0 -14 8 -6 15 -31 16 -44 1 -4 -4 -2 -5 6 0 10 6 12 4 6 -5 -6 -11 -10
-10 -19 2 -11 15 -61 17 -74 3 -4 -5 2 -5 13 -1 17 6 18 5 7 -6 -11 -11 -15
-10 -25 2 -15 19 -39 19 -61 1 -12 -10 -20 -11 -27 -4 -8 8 -7 13 2 18 8 5 10
4 5 -3 -4 -7 -3 -12 3 -12 19 0 20 18 2 38 -14 17 -20 19 -31 9 -10 -9 -11 -9
-6 1 9 15 0 16 -9 1z"/>
<path d="M555 6172 c-3 -3 0 -11 6 -19 9 -10 8 -13 -2 -13 -8 -1 -3 -10 13
-24 19 -17 23 -27 15 -35 -13 -13 -19 -43 -6 -35 5 3 9 1 9 -5 0 -5 9 -9 19
-8 11 0 17 5 15 9 -3 4 0 8 6 8 6 0 8 5 5 10 -9 15 9 12 31 -6 10 -8 12 -12 4
-8 -13 7 -13 6 -1 -10 10 -12 16 -14 21 -5 6 8 10 8 15 -1 6 -10 11 -8 22 6 9
12 16 15 21 9 9 -13 27 -13 39 -1 5 5 2 6 -6 1 -9 -5 -12 -4 -7 3 4 7 13 12
21 12 8 0 17 -5 21 -12 5 -7 3 -8 -6 -3 -8 5 -11 4 -7 -3 8 -12 32 -10 44 3 4
4 2 5 -6 0 -10 -6 -12 -4 -6 5 7 11 10 10 19 -1 12 -16 60 -19 73 -5 5 5 2 6
-6 1 -10 -6 -12 -4 -6 5 7 11 10 10 19 -1 12 -15 54 -18 75 -5 7 5 17 4 23 -2
8 -8 17 -8 30 -1 13 7 18 6 18 -2 0 -8 5 -8 16 2 9 7 18 9 22 3 9 -11 42 -11
61 0 7 5 16 5 20 -1 8 -11 27 -11 38 1 5 5 2 6 -6 1 -10 -6 -12 -4 -6 5 7 11
10 10 19 -1 12 -15 54 -18 74 -5 10 6 10 11 1 22 -9 11 -9 17 0 28 26 31 -59
71 -86 42 -5 -5 -2 -6 6 -1 10 6 12 4 6 -5 -7 -11 -10 -10 -19 1 -14 19 -41
18 -42 -1 -2 -31 -5 -32 -25 -6 -17 22 -24 25 -36 15 -9 -8 -17 -9 -21 -3 -9
12 -35 17 -28 5 3 -5 -1 -11 -9 -15 -8 -3 -17 0 -21 6 -5 7 -2 8 6 3 8 -5 11
-4 7 3 -8 12 -32 10 -44 -3 -4 -4 -2 -5 6 0 10 6 12 4 6 -5 -7 -11 -10 -10
-19 1 -12 16 -70 19 -83 5 -5 -5 -2 -6 6 -1 10 6 12 4 6 -5 -7 -11 -10 -10
-19 1 -12 16 -60 19 -73 5 -5 -5 -2 -6 6 -1 10 6 12 4 6 -5 -7 -11 -10 -10
-19 1 -12 16 -80 19 -93 5 -5 -5 -2 -6 6 -1 10 6 12 4 6 -5 -7 -11 -10 -10
-19 1 -14 18 -48 18 -65 -1 -7 -8 -5 -2 4 14 9 16 12 25 6 22 -6 -4 -11 -3
-11 2 0 5 -7 9 -15 9 -8 0 -12 -4 -9 -9 3 -4 0 -8 -5 -8 -6 0 -10 -3 -10 -7 3
-19 -2 -33 -12 -33 -5 0 -7 5 -4 10 3 6 0 10 -7 10 -9 0 -9 3 2 10 13 9 7 14
-12 11 -5 0 -8 3 -8 7 0 9 -27 12 -35 4z"/>
<path d="M4599 6162 c-5 -25 -3 -59 4 -68 5 -8 -3 -11 -27 -9 -20 1 -33 -2
-30 -7 3 -4 2 -8 -3 -9 -4 0 -16 -2 -26 -4 -14 -3 -16 0 -7 10 8 10 8 15 -1
21 -8 5 -10 3 -4 -7 4 -8 -3 -3 -15 10 -15 16 -25 20 -28 12 -3 -9 -7 -9 -18
0 -16 13 -15 14 -18 -23 -2 -16 1 -28 6 -28 5 0 7 -4 3 -9 -3 -5 -1 -12 5 -16
5 -3 10 0 10 7 0 9 3 9 8 2 8 -13 44 -15 36 -2 -3 4 -2 8 3 9 4 0 16 2 26 4
14 3 16 0 7 -10 -8 -10 -4 -18 16 -34 21 -17 29 -19 36 -9 6 10 8 10 8 -1 0
-11 4 -11 18 2 10 10 23 17 28 17 5 0 2 -5 -6 -11 -11 -8 -12 -12 -2 -16 6 -2
10 -9 7 -13 -3 -5 4 -14 15 -20 15 -8 20 -8 20 1 0 8 5 7 17 -2 9 -8 14 -9 10
-3 -4 7 0 15 9 18 8 3 12 2 9 -4 -3 -5 5 -19 17 -31 13 -12 16 -18 8 -14 -13
8 -13 7 -1 -9 11 -13 16 -14 22 -4 5 7 9 8 9 2 0 -6 7 -11 15 -11 8 0 13 3 10
5 -3 3 3 11 13 19 10 9 11 11 2 7 -13 -7 -13 -5 -2 8 11 14 9 19 -14 37 -30
23 -49 28 -38 9 4 -7 -6 2 -23 20 -30 31 -61 44 -48 20 4 -7 -5 2 -20 20 -15
18 -31 30 -36 27 -15 -10 -10 2 8 16 14 12 16 12 8 0 -5 -9 -4 -12 3 -7 12 7
9 35 -6 63 -10 16 -41 27 -43 15z"/>
<path d="M2973 6103 c-3 -7 -8 -11 -12 -8 -12 7 -9 -29 3 -37 7 -5 7 -8 -2 -8
-7 0 -10 -5 -7 -10 4 -6 11 -8 16 -5 5 4 9 2 9 -4 0 -5 9 -8 20 -6 11 2 20 -2
20 -8 0 -7 4 -6 11 3 9 13 10 13 6 0 -2 -8 -10 -14 -16 -12 -6 1 -11 -3 -11
-9 0 -5 -5 -7 -10 -4 -13 8 -8 -18 5 -27 6 -5 5 -8 -3 -8 -10 0 -10 -5 -2 -20
6 -11 15 -18 20 -15 4 3 7 -7 6 -23 -1 -15 6 -35 16 -44 10 -10 18 -15 18 -12
0 4 7 1 15 -6 12 -10 15 -10 15 0 0 10 3 10 14 1 11 -9 16 -9 22 0 5 8 3 9 -7
4 -12 -8 -12 -6 0 8 10 13 17 14 26 7 9 -8 15 -8 20 0 4 6 1 9 -7 8 -7 -2 -12
2 -11 8 1 7 -7 20 -17 29 -13 11 -20 14 -20 6 0 -7 -4 -9 -10 -6 -6 4 -5 11 2
19 15 15 39 17 32 2 -3 -6 1 -3 9 6 8 10 16 15 19 12 13 -13 1 43 -12 56 -17
18 -40 22 -37 7 1 -5 -4 -12 -12 -15 -9 -3 -11 0 -6 9 5 8 -2 5 -14 -5 -21
-19 -21 -19 -15 -1 5 13 4 16 -4 11 -7 -4 -12 -1 -13 6 -2 32 -9 52 -21 59
-10 7 -10 9 1 9 11 0 11 4 -2 18 -20 22 -47 24 -54 5z"/>
<path d="M3529 6055 c-5 -20 -4 -32 4 -42 6 -9 5 -13 -4 -13 -8 0 -6 -6 7 -16
10 -8 12 -12 4 -8 -9 4 -12 3 -7 -2 5 -5 14 -9 20 -9 5 0 12 -5 14 -10 4 -14
-35 -17 -43 -4 -4 6 -13 4 -25 -7 -10 -9 -16 -20 -14 -24 5 -9 -15 -28 -30
-29 -11 -1 -13 -81 -2 -81 5 0 5 -5 2 -10 -4 -6 -11 -7 -17 -4 -6 4 -5 -3 2
-16 7 -12 8 -20 2 -16 -5 3 -15 -1 -22 -9 -7 -8 -18 -15 -24 -15 -6 0 -4 5 4
10 14 9 13 11 -10 14 -18 2 -16 19 3 22 10 1 15 -2 10 -9 -3 -7 -2 -8 2 -4 13
11 15 38 3 31 -6 -4 -8 -1 -6 7 3 8 10 13 15 12 5 -1 10 4 10 12 0 8 -4 12 -9
9 -4 -3 -8 0 -8 7 0 8 -5 7 -17 -2 -9 -8 -14 -9 -10 -3 4 7 -4 10 -21 9 -20
-1 -27 -6 -27 -22 0 -12 -3 -25 -7 -29 -4 -4 -3 -13 3 -20 7 -8 6 -14 -2 -20
-7 -4 -9 -3 -5 4 3 6 2 13 -4 17 -6 4 -8 10 -5 15 3 5 1 11 -5 15 -5 3 -10 0
-10 -7 0 -9 -3 -9 -8 -2 -8 13 -44 15 -36 2 3 -4 0 -8 -6 -8 -6 0 -9 -4 -5 -9
3 -5 1 -13 -5 -16 -8 -5 -7 -11 1 -21 13 -16 33 -19 24 -4 -14 23 3 8 24 -21
13 -18 19 -29 13 -25 -6 3 -9 -1 -8 -11 2 -10 9 -18 17 -18 21 0 51 -28 38
-36 -6 -3 -10 -10 -9 -15 1 -5 -4 -10 -12 -12 -9 -2 -9 -1 -2 5 7 5 2 15 -16
30 -26 21 -29 22 -41 5 -12 -15 -12 -16 1 -7 9 6 7 2 -4 -8 -26 -24 -28 -43
-8 -59 15 -11 16 -11 7 2 -7 11 -5 11 6 -1 15 -16 16 -16 27 2 7 10 18 19 25
18 9 0 9 -2 -1 -6 -6 -2 -9 -10 -5 -16 3 -7 3 -9 -2 -5 -4 4 -16 -3 -26 -15
-17 -19 -20 -20 -31 -7 -14 17 -32 20 -45 6 -5 -5 -2 -6 7 -2 8 4 4 -2 -10
-14 -14 -12 -18 -18 -10 -14 12 5 12 4 3 -6 -9 -9 -4 -19 23 -42 19 -17 32
-34 29 -38 -3 -5 0 -12 6 -16 7 -4 9 -3 6 3 -3 5 0 10 8 10 13 0 13 -3 -1 -18
-12 -13 -12 -19 -3 -25 8 -5 10 -3 4 6 -5 8 -4 11 3 6 12 -7 5 -36 -8 -36 -5
0 -10 6 -13 13 -4 10 -7 10 -18 0 -7 -7 -16 -13 -20 -13 -15 0 -15 36 0 53 12
15 13 20 2 26 -8 5 -11 13 -7 19 3 6 2 14 -4 17 -6 4 -9 1 -8 -7 2 -8 -6 -13
-20 -12 -12 1 -20 -1 -18 -4 3 -3 -2 -11 -12 -19 -10 -9 -11 -11 -2 -7 13 7
13 6 0 -11 -11 -14 -12 -19 -2 -22 6 -3 9 -9 6 -14 -3 -6 6 -8 21 -5 26 5 27
5 10 -14 -20 -22 -30 -26 -19 -8 5 7 2 9 -8 5 -9 -3 -20 -1 -25 4 -6 6 -15 3
-24 -8 -12 -16 -12 -17 1 -8 9 6 7 2 -4 -8 -23 -21 -29 -44 -14 -54 7 -4 8 -1
4 8 -4 8 -1 6 8 -5 14 -18 16 -18 41 2 14 11 26 24 26 29 1 4 3 10 6 13 4 3 4
0 0 -5 -3 -6 3 -22 14 -35 11 -14 18 -19 17 -11 -2 7 3 16 10 18 22 8 12 -21
-14 -40 -13 -10 -23 -15 -22 -10 2 4 -1 8 -7 8 -5 0 -9 -3 -7 -8 1 -4 -1 -6
-5 -6 -20 3 -34 -2 -28 -10 3 -5 1 -13 -5 -16 -6 -4 -9 -3 -8 2 4 11 -34 48
-49 48 -6 0 -15 -4 -20 -9 -5 -5 -2 -6 7 -2 8 4 4 -2 -10 -14 -14 -12 -18 -18
-10 -14 13 7 13 5 1 -9 -9 -12 -10 -17 -2 -17 7 0 9 -5 6 -10 -9 -14 29 -7 48
8 11 9 17 10 22 2 4 -6 1 -9 -5 -8 -7 2 -16 -7 -21 -20 -6 -17 -6 -21 4 -16 9
5 9 4 1 -5 -13 -14 -47 -3 -37 12 4 6 0 8 -9 4 -9 -3 -20 -1 -26 5 -6 6 -12 6
-17 -3 -6 -8 -4 -10 6 -5 8 4 3 -2 -11 -14 -14 -12 -18 -18 -10 -14 13 7 13 6
0 -11 -11 -14 -12 -19 -2 -22 6 -3 9 -9 6 -14 -3 -6 5 -8 19 -5 16 3 27 -1 31
-10 3 -8 1 -14 -5 -14 -6 0 -8 -4 -4 -9 3 -5 0 -13 -6 -17 -8 -4 -9 -3 -5 4 4
7 1 12 -9 12 -10 0 -13 5 -9 12 5 7 2 9 -8 5 -9 -3 -20 -1 -25 4 -6 6 -15 3
-24 -8 -12 -16 -12 -17 1 -8 9 6 7 2 -4 -8 -25 -23 -28 -43 -10 -58 11 -9 14
-9 14 1 0 7 9 3 20 -10 23 -27 19 -39 -7 -19 -15 12 -16 12 -9 -1 5 -10 3 -9
-6 2 -15 17 -41 19 -55 3 -4 -4 -1 -5 7 -1 8 4 4 -2 -10 -14 -14 -12 -18 -18
-10 -14 13 7 13 5 1 -9 -9 -12 -10 -17 -2 -17 7 0 9 -5 5 -12 -5 -8 -2 -9 10
-5 9 4 14 3 11 -2 -3 -5 -1 -12 5 -16 6 -4 8 -11 4 -16 -3 -5 -10 -7 -15 -3
-5 3 -6 10 -3 16 5 7 2 9 -8 5 -9 -3 -20 -1 -26 5 -6 6 -12 6 -17 -3 -6 -8 -4
-10 6 -5 8 4 5 0 -5 -8 -11 -9 -16 -16 -10 -16 5 -1 -4 -12 -21 -26 -16 -15
-23 -23 -15 -18 12 6 13 5 3 -8 -7 -8 -10 -18 -6 -21 3 -4 1 -7 -6 -7 -7 0
-10 -4 -7 -9 3 -5 0 -11 -8 -14 -20 -8 -13 -42 8 -41 9 1 16 -3 16 -8 0 -6 6
-6 14 1 21 17 27 -20 6 -37 -10 -9 -10 -11 -1 -6 9 5 12 3 7 -4 -10 -17 -26
-15 -26 3 0 8 -5 15 -11 15 -5 0 -7 5 -3 12 5 7 2 9 -8 5 -9 -3 -21 0 -28 6
-10 9 -11 9 -6 0 4 -8 2 -13 -5 -13 -7 0 -9 -3 -6 -7 4 -3 -1 -12 -11 -20 -10
-9 -11 -11 -2 -7 13 7 13 5 1 -9 -11 -14 -11 -17 0 -17 7 0 3 -7 -10 -16 -16
-11 -25 -13 -30 -6 -11 18 -46 7 -44 -14 3 -30 8 -48 17 -64 5 -8 6 -12 1 -8
-4 4 -15 2 -24 -5 -14 -11 -15 -10 -1 8 11 16 11 18 0 7 -16 -14 -22 -62 -8
-62 5 0 6 -5 2 -12 -4 -6 -3 -8 3 -5 6 4 16 0 22 -7 9 -11 9 -16 0 -22 -8 -5
-9 -3 -4 6 5 9 4 11 -4 6 -9 -6 -9 -11 0 -22 9 -11 8 -14 -2 -14 -10 -1 -9 -4
3 -14 10 -7 16 -15 13 -18 -3 -2 2 -5 10 -5 8 0 12 4 9 9 -8 13 3 9 20 -7 14
-14 13 -18 -5 -36 -11 -11 -18 -27 -15 -35 3 -8 0 -14 -6 -14 -6 0 -8 -3 -5
-7 4 -3 -2 -12 -12 -20 -19 -13 -22 -36 -6 -50 4 -5 4 -1 0 7 -8 13 -7 13 8 1
18 -14 23 -26 8 -17 -5 3 -12 -1 -15 -10 -4 -10 -2 -13 7 -8 8 5 7 2 -2 -9 -9
-12 -10 -17 -2 -17 7 0 10 -4 6 -9 -3 -6 4 -15 15 -21 15 -8 20 -8 20 1 0 9 3
9 14 0 11 -9 16 -9 22 0 5 8 3 10 -7 4 -8 -5 -4 3 9 17 17 19 20 28 11 33 -8
6 -10 4 -4 -6 5 -8 4 -11 -1 -6 -5 5 -10 13 -10 18 -3 22 -5 23 -13 10 -6 -9
-11 -10 -15 -2 -4 6 -2 11 4 11 6 0 8 5 5 10 -3 6 -2 10 4 10 11 0 9 19 -3 39
-6 10 -5 12 2 7 7 -4 12 -2 12 4 0 7 6 10 13 8 13 -5 17 -27 7 -43 -11 -18 -5
-40 10 -40 8 0 15 -6 15 -14 0 -8 6 -16 14 -19 9 -3 11 0 6 8 -5 9 -4 11 4 6
6 -4 8 -12 5 -18 -5 -7 -1 -9 8 -5 10 3 23 -3 34 -16 10 -12 12 -16 4 -9 -18
16 -43 16 -35 0 4 -7 0 -5 -8 4 -13 16 -15 16 -38 -9 -17 -18 -20 -27 -11 -30
6 -3 10 -9 7 -13 -3 -5 4 -14 15 -20 13 -7 20 -7 20 0 0 12 19 9 36 -5 7 -6 8
-12 2 -16 -5 -3 -1 -12 8 -20 16 -12 17 -12 9 1 -8 13 -6 13 8 1 9 -7 14 -18
10 -25 -3 -6 8 2 25 18 18 16 35 26 39 23 3 -4 1 -7 -6 -7 -7 0 -9 -5 -6 -10
4 -6 1 -9 -5 -8 -7 2 -16 -7 -21 -20 -6 -17 -6 -21 4 -17 6 4 5 1 -4 -7 -9 -7
-16 -17 -17 -23 0 -5 -6 -11 -14 -13 -9 -2 -9 -1 -2 5 6 4 9 17 7 28 -2 11 -5
26 -5 34 -1 11 -4 10 -13 -2 -9 -13 -15 -14 -26 -4 -7 7 -10 8 -6 3 3 -5 -1
-15 -11 -23 -9 -8 -11 -11 -3 -7 9 4 12 3 7 -4 -3 -6 -15 -9 -26 -7 -12 2 -18
0 -14 -6 3 -6 -5 -8 -19 -5 -14 2 -28 2 -31 -2 -11 -10 26 -41 42 -35 12 4 10
-2 -8 -23 -41 -48 -43 -50 -31 -27 7 15 8 24 1 28 -6 4 -8 10 -5 15 3 5 1 11
-5 15 -5 3 -10 0 -10 -7 0 -9 -3 -9 -8 -2 -4 6 -15 11 -25 11 -9 0 -15 -3 -12
-5 3 -3 -3 -11 -13 -19 -9 -8 -12 -12 -6 -9 7 3 11 -3 10 -17 -1 -16 5 -22 19
-22 20 0 31 -6 66 -38 11 -10 24 -15 29 -12 5 3 11 1 14 -4 4 -5 2 -12 -4 -16
-6 -4 -7 -12 -3 -18 5 -8 2 -8 -9 1 -12 10 -18 9 -28 -3 -14 -17 -30 -20 -30
-5 0 6 5 9 12 8 6 -2 12 9 13 24 2 23 -1 26 -12 16 -11 -9 -13 -8 -11 2 2 7
-3 15 -11 18 -9 3 -11 0 -6 -8 5 -9 4 -11 -4 -6 -6 4 -8 12 -5 18 5 7 1 9 -9
5 -10 -3 -17 -2 -17 3 0 6 -16 18 -35 27 -19 9 -35 24 -35 32 0 11 3 12 8 4 5
-8 14 -6 32 9 14 11 18 16 10 12 -12 -7 -13 -5 -3 8 11 12 9 18 -7 33 -15 14
-20 15 -20 4 0 -10 -3 -10 -8 -2 -4 6 -22 10 -40 8 -25 -2 -30 0 -22 10 7 8 4
17 -10 30 -15 14 -20 15 -20 4 0 -11 -2 -12 -9 -1 -11 19 -15 19 -34 3 -10 -7
-17 -10 -17 -6 0 4 -8 2 -17 -6 -17 -12 -17 -12 -1 6 16 17 16 19 0 32 -11 9
-11 12 -2 7 13 -7 13 -6 1 10 -11 13 -16 14 -22 4 -5 -7 -9 -8 -9 -2 0 5 -11
10 -24 10 -14 0 -22 -4 -20 -8 3 -5 11 -5 17 -1 7 3 4 -3 -6 -14 -13 -15 -15
-22 -6 -25 7 -2 13 -11 15 -20 2 -16 -1 -16 -32 -1 -19 9 -34 21 -34 25 0 5
-6 6 -12 2 -8 -4 -10 -3 -5 2 5 5 12 9 15 10 19 2 41 17 37 24 -3 5 -1 11 5
15 13 8 5 22 -23 37 -19 9 -20 9 -12 -3 6 -8 2 -6 -8 4 -13 15 -20 17 -30 8
-10 -8 -14 -7 -14 4 0 8 4 16 9 16 4 1 13 3 18 4 6 1 13 3 16 4 4 0 1 8 -6 16
-6 8 -8 20 -4 27 12 18 14 39 4 33 -5 -3 -10 1 -13 7 -3 10 -8 10 -21 -1 -11
-9 -20 -11 -24 -5 -4 5 -14 10 -22 9 -17 0 -21 -26 -5 -37 6 -5 5 -8 -3 -8 -7
0 -11 -4 -8 -9 3 -4 -4 -17 -17 -27 -21 -19 -21 -19 -7 1 12 17 12 18 0 7 -15
-13 -21 -72 -7 -72 4 0 6 -4 2 -9 -5 -9 32 -36 45 -34 3 1 7 -1 10 -4 3 -4 -1
-3 -9 2 -10 5 -12 4 -7 -3 4 -7 20 -10 39 -7 l32 6 -28 -19 c-15 -10 -24 -21
-21 -25 3 -3 -2 -4 -13 -3 -21 3 -54 -15 -47 -26 3 -4 0 -8 -6 -8 -6 0 -8 -4
-5 -10 3 -6 1 -10 -5 -10 -6 0 -8 -6 -4 -12 4 -7 -1 -6 -10 3 -15 14 -13 55 3
45 3 -2 15 2 26 10 10 8 15 14 11 14 -5 0 -3 7 4 15 23 28 -32 58 -57 30 -4
-4 -1 -5 7 -1 8 4 4 -2 -10 -14 -14 -12 -18 -18 -10 -14 13 7 13 5 1 -9 -7 -9
-9 -17 -4 -17 12 0 13 -30 1 -31 -4 -1 -12 -2 -17 -3 -5 0 -13 -5 -18 -10 -5
-5 -2 -6 7 -2 8 4 4 -2 -10 -14 -14 -12 -18 -18 -10 -14 13 7 13 5 1 -9 -9
-12 -10 -17 -2 -17 7 0 9 -5 5 -12 -5 -7 -2 -9 9 -5 8 3 21 -1 27 -9 10 -11
10 -14 0 -14 -8 0 -11 -3 -7 -6 6 -7 -29 -84 -38 -84 -3 0 3 17 14 38 13 25
16 43 11 52 -5 8 -12 11 -16 7 -4 -4 -14 -1 -22 6 -13 9 -14 9 -8 0 4 -8 2
-13 -5 -13 -7 0 -9 -3 -6 -7 4 -3 -1 -12 -11 -20 -10 -9 -11 -11 -2 -7 13 7
13 5 1 -9 -9 -11 -10 -17 -2 -17 6 0 11 -10 11 -22 0 -13 -4 -18 -8 -13 -9 13
-35 18 -27 5 3 -5 1 -10 -5 -10 -6 0 -9 -4 -6 -9 3 -5 0 -11 -8 -14 -15 -6
-16 -23 -2 -46 6 -10 10 -10 16 -1 5 8 9 7 13 -4 4 -9 2 -16 -4 -16 -6 0 -7
-6 -4 -12 4 -7 1 -6 -7 3 -13 16 -51 23 -42 7 3 -4 0 -8 -6 -8 -6 0 -9 -4 -6
-9 3 -5 0 -11 -8 -14 -19 -8 -13 -42 7 -41 9 1 18 -5 21 -12 3 -8 1 -14 -5
-14 -6 0 -8 -4 -4 -9 3 -5 0 -13 -6 -17 -7 -4 -10 -3 -6 2 3 5 0 16 -6 24 -14
17 -42 26 -32 10 3 -5 1 -10 -5 -10 -6 0 -9 -4 -6 -9 3 -5 0 -11 -8 -14 -15
-6 -16 -31 -1 -44 4 -5 4 -1 0 7 -5 10 -1 8 13 -4 27 -24 27 -26 2 -21 -11 2
-20 -1 -20 -7 0 -7 -5 -6 -14 1 -11 9 -16 9 -22 0 -5 -8 -3 -10 7 -5 8 4 3 -2
-11 -14 -14 -12 -18 -18 -10 -14 13 7 13 5 2 -8 -10 -13 -10 -17 3 -22 8 -3
14 -11 13 -18 -2 -7 2 -12 9 -11 7 2 10 -4 7 -12 -7 -19 -18 -19 -33 -2 -8 10
-7 17 2 27 10 10 9 11 -3 4 -8 -5 -18 -9 -22 -9 -3 0 -10 -4 -15 -9 -5 -5 -2
-6 7 -2 8 4 4 -2 -10 -14 -14 -12 -18 -18 -10 -14 13 7 13 6 1 -10 -12 -15
-13 -19 -1 -26 7 -5 15 -19 17 -32 2 -18 1 -20 -7 -8 -5 8 -10 11 -10 6 0 -5
-6 -3 -14 3 -10 9 -17 7 -27 -6 -12 -16 -12 -17 1 -8 9 6 7 2 -4 -8 -23 -21
-29 -44 -14 -54 7 -4 8 -1 3 8 -5 8 1 5 13 -5 22 -19 30 -32 13 -21 -5 3 -12
1 -16 -5 -3 -5 -1 -10 6 -10 7 0 9 -3 5 -7 -4 -5 -13 -1 -19 7 -13 17 -31 20
-44 6 -5 -5 -2 -6 7 -2 8 4 4 -2 -10 -14 -14 -12 -18 -18 -10 -14 13 7 13 5 1
-9 -9 -12 -10 -17 -2 -17 7 0 9 -5 5 -12 -5 -7 -2 -9 9 -5 15 6 31 -15 20 -27
-11 -11 -24 -6 -17 6 5 7 2 9 -8 5 -9 -3 -20 -1 -26 5 -6 6 -12 6 -17 -3 -6
-8 -4 -10 6 -5 8 4 3 -2 -11 -14 -14 -12 -18 -18 -10 -14 13 7 13 6 0 -11 -11
-14 -12 -19 -2 -22 6 -3 9 -10 5 -16 -4 -6 0 -8 10 -4 9 3 19 1 23 -5 4 -6 3
-8 -2 -5 -6 3 -16 2 -24 -3 -9 -5 -19 -5 -26 1 -8 7 -15 6 -20 -2 -5 -8 -3
-10 7 -5 8 4 3 -1 -10 -12 -26 -21 -35 -48 -20 -58 5 -3 9 -13 9 -22 0 -10 -3
-13 -8 -7 -9 13 -35 18 -27 5 3 -5 1 -10 -5 -10 -6 0 -9 -4 -6 -9 3 -5 0 -11
-8 -14 -19 -8 -13 -42 7 -41 9 1 18 -5 21 -12 3 -8 1 -14 -5 -14 -6 0 -7 -6
-3 -12 4 -7 -4 -3 -18 10 -19 17 -28 20 -33 11 -6 -8 -4 -10 6 -5 8 4 5 0 -5
-8 -11 -9 -16 -16 -10 -16 5 0 3 -4 -5 -9 -8 -5 -16 -17 -17 -25 -1 -9 1 -14
5 -12 4 3 8 -4 8 -15 2 -16 -1 -18 -11 -10 -10 8 -17 7 -27 -5 -18 -22 -19
-62 -3 -68 15 -6 8 -36 -8 -36 -6 0 -4 7 3 17 13 15 12 15 -7 5 -12 -6 -24 -9
-28 -7 -3 3 -4 2 -1 -2 3 -3 -3 -12 -13 -20 -10 -9 -11 -11 -2 -7 13 7 13 6 1
-9 -12 -15 -12 -19 2 -30 14 -11 14 -14 2 -31 -8 -11 -15 -15 -15 -10 0 6 -7
11 -15 11 -8 0 -13 -3 -10 -5 3 -3 -3 -11 -13 -19 -10 -9 -11 -11 -2 -7 13 7
13 5 2 -8 -11 -14 -10 -20 6 -35 21 -20 47 -29 37 -13 -3 5 -1 10 5 10 6 0 8
5 5 10 -3 6 -2 10 4 10 5 0 8 8 6 18 -2 10 1 25 6 33 7 10 8 6 5 -14 -3 -19 0
-30 10 -34 7 -3 11 -9 9 -14 -5 -7 462 -249 481 -249 3 0 2 6 -2 13 -4 7 -3 9
2 4 5 -5 10 -13 10 -18 3 -22 5 -23 14 -9 6 10 10 11 10 3 0 -7 13 -19 30 -28
35 -18 44 -19 34 -3 -4 7 -3 8 5 4 6 -4 9 -11 6 -16 -3 -5 93 -59 215 -120
121 -60 220 -105 220 -99 0 8 6 7 17 -2 9 -8 14 -9 10 -3 -4 7 1 18 11 25 15
13 16 12 3 -3 -7 -10 -10 -18 -5 -18 5 0 -2 -10 -16 -21 -14 -11 -18 -17 -10
-13 10 5 8 -1 -5 -16 -12 -14 -14 -20 -5 -15 9 5 7 -1 -5 -15 -12 -14 -14 -20
-5 -15 11 6 10 3 -3 -12 -9 -11 -14 -23 -11 -26 4 -4 1 -14 -7 -24 -12 -15
-12 -16 1 -8 9 5 7 -1 -5 -15 -12 -14 -14 -20 -5 -15 9 5 7 -1 -5 -15 -12 -14
-14 -20 -5 -15 9 5 7 -1 -5 -15 -12 -14 -14 -20 -5 -15 9 5 7 -1 -5 -15 -12
-14 -14 -20 -5 -15 12 7 13 6 3 -7 -7 -8 -10 -18 -6 -21 3 -4 1 -7 -6 -7 -7 0
-9 -5 -5 -12 6 -10 4 -10 -8 0 -13 10 -18 10 -24 1 -5 -8 -3 -9 6 -4 9 6 11 4
5 -5 -7 -11 -10 -10 -19 1 -6 8 -18 15 -26 17 -8 2 -12 0 -8 -4 4 -4 0 -13
-10 -21 -10 -9 -11 -11 -2 -7 13 7 13 6 0 -11 -11 -14 -12 -19 -2 -22 6 -3 10
-9 7 -13 -3 -5 -1 -11 5 -15 5 -3 10 -1 10 6 0 7 3 9 7 6 3 -4 12 -2 20 4 8 7
13 8 13 1 0 -5 -7 -15 -15 -22 -11 -9 -12 -16 -5 -25 12 -14 1 -28 -15 -17 -6
4 -3 -1 7 -10 12 -10 15 -19 8 -23 -6 -3 -8 -10 -5 -15 3 -4 -2 -14 -11 -21
-12 -10 -15 -10 -12 2 2 8 -3 13 -12 11 -13 -2 -13 -1 0 10 17 14 18 23 5 51
-7 17 -9 17 -29 -3 l-22 -20 -24 25 c-18 19 -20 24 -7 19 9 -3 17 -11 17 -18
0 -6 5 -3 11 7 6 9 14 15 19 12 4 -3 11 2 14 11 3 8 2 12 -3 9 -6 -3 -8 6 -5
21 3 16 1 23 -6 19 -5 -3 -10 -2 -10 3 0 13 -75 8 -76 -6 -1 -7 -2 -17 -3 -23
0 -6 -8 -9 -16 -5 -8 3 -15 0 -15 -7 0 -7 -3 -8 -8 -2 -4 6 -14 11 -22 13 -8
2 -12 0 -8 -4 4 -4 0 -13 -10 -21 -10 -9 -11 -11 -2 -7 13 7 13 6 0 -11 -8
-10 -10 -16 -3 -12 6 4 15 2 19 -4 5 -8 3 -9 -6 -4 -10 6 -12 4 -7 -8 3 -9 3
-16 -1 -15 -14 3 -42 -14 -36 -23 3 -5 0 -9 -6 -9 -6 0 -8 -4 -5 -10 3 -5 1
-10 -5 -10 -6 0 -8 -5 -4 -12 5 -9 2 -9 -9 1 -18 15 -23 26 -7 16 17 -10 11
11 -10 38 -11 14 -28 24 -38 23 -19 -3 -24 -27 -7 -38 6 -5 5 -8 -3 -8 -9 0
-6 -12 8 -40 12 -23 25 -38 30 -35 6 3 7 -1 4 -10 -4 -8 -13 -14 -22 -13 -17
3 -25 -29 -10 -39 7 -4 8 -1 4 8 -4 8 -1 6 6 -3 15 -17 41 -19 55 -3 4 4 1 5
-7 1 -9 -5 -8 -2 2 7 10 8 15 17 11 20 -3 4 -1 7 6 7 7 0 9 5 6 10 -3 6 -1 10
5 10 6 0 8 5 5 10 -3 6 -1 10 5 10 6 0 8 5 5 10 -3 6 -1 10 6 10 7 0 9 3 6 7
-4 3 1 12 11 20 9 8 12 12 5 9 -7 -4 -6 5 4 25 13 27 17 29 25 15 5 -9 6 -21
2 -28 -5 -7 -3 -8 7 -3 12 8 12 6 0 -8 -9 -12 -10 -17 -2 -17 7 0 9 -4 6 -10
-3 -5 -1 -10 5 -10 6 0 8 -5 4 -11 -3 -6 -15 -9 -25 -6 -11 3 -17 1 -13 -4 3
-5 0 -9 -6 -9 -6 0 -9 -4 -6 -9 3 -5 0 -11 -8 -14 -8 -3 -13 -14 -12 -24 3
-20 33 -25 54 -10 7 6 15 7 19 3 3 -3 1 -6 -6 -6 -7 0 -9 -4 -6 -10 3 -5 1
-10 -5 -10 -6 0 -8 -5 -5 -10 3 -5 1 -10 -6 -10 -7 0 -10 -3 -6 -6 8 -9 -31
-84 -44 -84 -6 0 -7 -5 -3 -12 4 -7 3 -8 -5 -4 -6 4 -8 12 -5 18 5 7 2 9 -8 5
-9 -3 -21 0 -28 6 -10 9 -11 9 -6 0 4 -8 2 -13 -5 -13 -7 0 -9 -3 -6 -7 4 -3
-1 -12 -11 -20 -10 -9 -11 -11 -2 -7 12 7 13 5 3 -8 -7 -8 -9 -18 -5 -23 4 -4
-3 -3 -15 4 -16 8 -24 8 -29 -1 -5 -7 -2 -9 7 -4 8 4 3 -2 -11 -14 -14 -12
-18 -18 -10 -14 13 7 13 5 2 -8 -10 -13 -10 -17 0 -21 10 -4 10 -7 -1 -18 -12
-12 -13 -12 -6 1 5 8 4 11 0 7 -17 -15 -13 -38 11 -64 13 -14 21 -29 18 -34
-3 -5 1 -9 8 -9 9 0 9 -3 -2 -10 -13 -9 -7 -14 13 -11 4 0 7 -3 7 -7 0 -5 7
-9 15 -9 8 0 13 3 11 6 -1 3 5 14 16 24 10 9 18 12 18 6 0 -8 5 -8 15 1 11 9
12 16 5 25 -7 8 -5 12 5 12 8 0 13 -3 10 -5 -3 -3 0 -11 6 -19 6 -7 8 -13 4
-13 -4 0 -1 -8 6 -17 13 -17 12 -17 -7 -3 -11 8 -7 2 10 -14 19 -18 31 -25 34
-17 3 9 8 9 20 -1 12 -10 14 -10 8 0 -4 7 -2 12 4 12 6 0 8 5 5 10 -3 6 -2 10
3 10 14 0 22 -26 11 -37 -6 -6 -2 -16 11 -28 15 -14 20 -15 20 -4 0 12 2 12
10 -1 7 -12 12 -12 29 4 12 11 21 26 21 35 1 11 4 9 13 -7 7 -12 17 -19 22
-15 6 4 1 -2 -9 -14 -16 -19 -36 -23 -36 -7 0 3 5 2 12 -2 7 -4 8 -3 4 5 -4 6
-12 9 -17 5 -6 -4 -6 -11 2 -20 6 -8 8 -14 4 -14 -4 0 -2 -7 5 -15 15 -18 34
-20 25 -2 -4 6 1 3 9 -7 15 -18 17 -18 34 -3 15 13 21 14 32 4 10 -10 11 -9 4
3 -5 8 -9 18 -9 22 0 3 -4 10 -9 15 -6 5 -6 2 -1 -7 5 -10 1 -8 -13 4 -12 11
-22 21 -22 24 0 3 3 2 7 -1 3 -4 12 -2 20 4 10 9 13 8 13 -2 0 -10 3 -10 12
-1 15 15 29 16 25 2 -2 -11 134 -155 146 -152 4 1 8 -3 8 -8 1 -6 2 -14 3 -19
0 -5 4 -12 8 -16 3 -4 -10 -21 -30 -40 -36 -33 -37 -33 -16 -52 11 -10 13 -14
4 -8 -8 5 -4 -3 9 -17 13 -15 21 -32 19 -40 -6 -18 15 -37 38 -34 12 2 19 11
18 25 -1 11 3 21 8 21 5 0 6 5 2 12 -4 7 -3 8 5 4 6 -4 9 -11 6 -16 -3 -5 -1
-11 5 -15 5 -3 10 0 10 7 0 8 3 9 8 3 9 -13 35 -19 28 -6 -4 5 -1 13 5 17 8 5
9 3 4 -6 -5 -8 -3 -11 6 -8 15 5 13 41 -2 46 -5 2 -7 8 -4 12 3 5 -4 14 -15
20 -15 8 -20 8 -20 -1 0 -7 -3 -9 -7 -6 -3 4 2 16 12 27 18 20 18 21 -1 36
-10 8 -13 13 -6 9 16 -8 15 3 -2 20 -10 11 -16 11 -25 2 -9 -9 -14 -9 -21 2
-7 12 -11 12 -23 2 -12 -10 -15 -10 -13 1 1 7 5 18 9 24 3 6 3 14 0 18 -10 10
-13 37 -3 31 4 -3 11 2 14 10 4 12 10 13 24 6 13 -7 22 -7 29 0 6 6 14 5 23
-6 7 -8 8 -15 3 -15 -5 0 -9 -11 -9 -24 0 -14 3 -23 7 -20 4 2 9 -2 12 -8 3
-10 8 -10 18 -2 16 12 29 12 45 1 22 -13 37 24 21 50 -5 8 -4 13 3 13 7 0 6 5
-2 14 -13 14 -45 13 -57 0 -3 -4 3 -4 14 0 17 6 18 5 7 -6 -11 -11 -16 -10
-26 4 -10 14 -15 15 -26 5 -9 -9 -11 -9 -6 0 3 6 1 15 -5 19 -8 5 -9 3 -4 -7
5 -8 5 -11 0 -7 -4 4 -13 3 -20 -2 -8 -7 -12 -5 -12 5 0 8 4 12 8 10 3 -3 12
2 19 9 6 8 20 13 30 11 19 -4 33 8 36 32 1 7 -1 13 -5 13 -4 0 -8 7 -8 15 0 8
5 15 10 15 6 0 7 3 4 7 -4 3 1 12 11 20 11 10 12 12 2 8 -8 -4 -4 3 10 15 14
12 18 19 10 15 -10 -4 -9 -2 2 8 10 8 15 17 11 20 -3 4 0 7 7 7 7 0 10 3 7 7
-4 3 1 12 11 20 11 10 12 12 2 8 -8 -4 -6 1 4 9 11 9 16 16 11 16 -5 0 0 7 11
16 10 8 12 13 4 9 -8 -4 -4 3 10 15 14 12 18 18 10 14 -12 -6 -13 -4 -2 7 6 7
12 17 12 22 0 4 -6 5 -12 1 -8 -4 -10 -3 -5 2 5 5 13 10 18 10 5 1 10 2 12 4
1 1 10 3 20 5 11 2 22 7 25 11 4 4 -1 4 -10 1 -10 -3 -17 -3 -17 1 1 4 0 9 -1
12 -6 15 -6 48 1 45 4 -3 12 2 18 9 7 8 23 13 37 11 13 -1 22 0 19 3 -2 3 3
11 13 19 10 9 11 11 2 7 -13 -7 -13 -5 -1 9 11 14 11 17 0 17 -12 0 -12 2 0 9
9 6 10 11 2 15 -7 5 -3 15 12 29 15 14 16 17 3 7 -11 -9 -7 2 11 24 24 30 30
43 23 57 -8 14 -3 23 21 43 17 14 27 26 23 26 -4 0 1 7 12 16 10 8 12 13 4 9
-10 -4 -9 -2 2 8 10 8 15 17 11 20 -3 4 -1 7 6 7 7 0 9 4 6 10 -3 5 -1 10 6
10 7 0 9 3 6 7 -4 3 1 12 11 20 10 9 11 11 2 7 -13 -7 -13 -6 -1 10 10 11 11
20 4 24 -16 11 -12 41 5 34 9 -3 13 -1 9 5 -9 14 22 40 31 27 14 -19 47 -6 47
19 0 7 -6 18 -15 25 -8 8 -9 11 -2 7 6 -3 12 -1 12 4 0 6 -3 11 -8 11 -4 0
-13 9 -20 21 -11 17 -11 23 0 37 11 13 11 14 -2 7 -13 -8 -13 -7 -1 8 9 12 10
17 2 17 -7 0 -11 8 -9 18 2 9 -2 16 -8 15 -7 -1 -20 8 -30 20 l-19 22 23 -19
c12 -11 22 -16 22 -12 0 3 12 -2 27 -11 15 -10 24 -12 20 -5 -5 7 -3 12 3 12
6 0 9 4 6 9 -4 5 5 8 19 7 13 -2 22 0 20 4 -3 5 2 11 11 14 13 5 14 9 4 21 -9
11 -9 15 -1 15 9 0 9 5 1 20 -8 15 -8 20 1 20 7 0 9 3 6 7 -4 3 1 12 11 20 11
10 12 12 2 8 -8 -4 -6 1 4 9 11 9 16 16 11 16 -5 0 0 7 11 16 10 8 12 13 4 9
-8 -4 -6 1 4 9 11 9 16 16 11 16 -5 0 0 7 11 16 10 8 12 12 4 9 -8 -4 -4 3 10
16 14 13 21 22 15 19 -6 -3 1 6 15 19 14 13 18 20 10 16 -10 -4 -9 -1 2 8 10
8 15 17 11 20 -3 4 0 7 7 7 7 0 10 3 7 7 -4 3 1 12 11 20 10 9 11 11 2 7 -12
-7 -13 -5 -3 8 7 8 10 18 6 21 -3 4 -1 7 6 7 7 0 9 5 6 10 -3 6 -1 10 5 10 6
0 8 5 5 10 -3 5 -1 10 5 10 6 0 8 4 5 10 -3 5 -1 10 5 10 6 0 9 4 6 9 -3 5 1
12 10 15 8 3 12 11 9 16 -4 6 -1 18 7 27 11 14 11 16 -2 8 -9 -5 -7 1 5 15 12
14 14 20 5 15 -9 -5 -7 1 5 15 11 13 14 20 7 16 -11 -7 -12 -4 -3 11 6 11 8
23 5 26 -3 3 2 4 13 3 27 -5 34 3 23 24 -7 13 -7 21 2 26 7 5 8 3 3 -6 -5 -9
-4 -11 4 -6 9 6 9 11 0 22 -10 12 -10 15 2 12 8 -2 17 -7 21 -12 4 -6 12 -6
20 0 15 12 28 12 45 1 23 -15 41 58 18 76 -6 4 16 31 54 66 35 31 65 65 67 74
1 10 -1 15 -6 12 -4 -3 -13 2 -19 9 -9 10 -9 16 -1 21 6 4 9 1 8 -7 -2 -8 4
-12 15 -10 9 2 17 -2 17 -7 0 -15 37 -8 53 9 10 12 9 12 -3 5 -9 -6 -5 0 8 11
15 13 20 24 14 28 -6 3 -10 15 -9 26 1 15 4 17 16 7 12 -9 13 -9 7 1 -4 7 -2
12 4 12 6 0 9 4 5 9 -3 5 -1 12 5 16 5 3 10 1 10 -4 0 -12 35 -10 47 2 12 13
12 37 0 37 -8 0 -7 4 2 9 11 7 9 11 -8 21 -21 11 -21 12 -5 24 13 10 14 15 4
21 -9 6 -9 9 0 15 8 5 7 11 -4 22 -8 9 -12 19 -8 24 4 5 -3 1 -15 -9 -12 -11
-23 -14 -27 -8 -4 5 -1 13 5 17 8 5 7 9 -2 14 -7 5 -13 18 -14 29 -1 12 1 19
3 16 3 -3 12 1 21 8 14 11 15 10 1 -8 -14 -19 -14 -19 3 -6 10 8 15 21 12 30
-4 11 -1 11 14 -3 19 -17 21 -17 27 -2 3 9 10 13 15 10 13 -7 7 19 -6 28 -6 5
-4 8 5 8 10 0 7 7 -10 21 -14 11 -18 17 -10 13 11 -5 11 -2 -2 11 -16 17 -16
19 0 32 9 8 11 11 3 7 -10 -5 -12 -3 -6 6 6 10 10 10 20 -3 14 -20 48 -16 51
6 1 9 -2 17 -7 17 -7 0 -7 6 0 17 6 12 5 21 -7 31 -10 7 -12 11 -6 8 6 -3 11
1 11 9 0 8 -5 11 -10 8 -6 -4 -7 -1 -1 8 13 21 11 52 -5 71 -15 18 -36 14 -25
-4 5 -7 2 -8 -5 -3 -9 5 -7 13 9 30 13 14 19 29 15 37 -6 10 -5 10 4 2 7 -6
13 -18 14 -25 4 -23 18 -40 28 -33 5 3 7 10 4 15 -4 5 1 9 9 9 19 0 20 -11 4
-29 -10 -11 -10 -13 0 -7 6 4 12 2 12 -3 0 -12 35 -10 47 2 12 13 12 41 0 49
-9 6 -9 8 1 8 7 0 10 5 7 10 -4 6 -11 8 -16 5 -5 -4 -9 -2 -9 2 0 5 -10 9 -23
9 -13 0 -24 -6 -24 -13 0 -7 5 -9 12 -5 6 4 2 -1 -9 -11 -15 -14 -21 -15 -28
-5 -5 9 0 20 16 34 14 12 22 25 19 28 -4 3 0 6 7 6 7 0 10 3 7 7 -4 3 1 12 11
20 10 9 11 11 2 7 -12 -7 -13 -5 -3 8 7 8 10 18 6 21 -3 4 -1 7 6 7 7 0 9 5 6
10 -3 6 -1 10 5 10 6 0 8 5 5 10 -3 6 -1 10 5 10 6 0 8 5 5 10 -3 6 -1 10 5
10 6 0 8 5 5 10 -3 6 -1 10 5 10 6 0 8 5 5 10 -3 6 -1 10 6 10 7 0 9 3 6 7 -4
3 1 12 11 20 10 9 11 11 2 7 -12 -7 -13 -5 -3 8 7 8 10 18 6 21 -3 4 0 7 7 7
7 0 10 3 7 7 -4 3 1 12 11 20 10 9 11 11 2 7 -12 -7 -13 -5 -3 8 7 8 10 18 6
21 -3 4 -1 7 6 7 7 0 9 5 6 10 -3 6 -1 10 5 10 6 0 8 5 5 10 -3 6 -1 10 5 10
6 0 8 5 5 10 -3 6 -1 10 6 10 7 0 9 3 6 7 -4 3 1 12 11 20 10 9 11 11 2 7 -13
-7 -13 -5 -1 9 7 9 10 17 5 17 -4 0 1 7 12 16 10 8 12 12 4 8 -13 -7 -13 -5
-1 9 7 9 10 17 5 17 -4 0 1 7 12 16 10 8 12 12 4 8 -10 -5 -8 1 5 16 12 14 14
20 5 15 -11 -6 -10 -3 3 12 9 11 14 23 11 26 -4 4 -1 14 7 24 12 15 12 16 -1
8 -9 -5 -7 1 5 15 12 14 14 20 5 15 -9 -5 -7 1 5 15 12 14 14 20 5 15 -9 -5
-7 1 5 15 12 14 14 20 5 15 -9 -5 -7 1 5 15 12 14 14 20 5 15 -9 -5 -7 1 5 15
11 13 14 20 6 15 -8 -5 -6 3 5 21 14 22 15 27 3 19 -8 -5 -3 1 11 14 14 13 18
20 10 15 -9 -5 -8 1 5 16 12 14 14 20 5 15 -13 -8 -13 -7 -1 8 7 10 9 17 3 17
-14 0 -9 24 8 46 13 16 13 17 0 9 -9 -5 -7 1 5 15 12 14 14 20 5 15 -9 -5 -7
1 5 15 12 14 14 20 5 15 -9 -5 -7 1 5 15 12 14 14 20 5 15 -9 -5 -7 1 5 15 12
14 14 20 5 15 -9 -5 -7 1 5 15 12 14 14 20 5 15 -9 -5 -7 1 5 15 12 14 14 20
5 15 -11 -6 -10 -3 3 12 9 11 14 23 11 26 -4 4 -1 14 7 24 12 15 12 16 -1 8
-9 -5 -7 1 5 15 12 14 14 20 5 15 -9 -5 -7 1 5 15 12 14 14 20 5 15 -13 -8
-13 -7 -1 9 12 15 13 19 1 26 -20 12 -21 37 -2 52 15 11 16 11 7 -2 -6 -10 -4
-9 6 2 9 9 19 15 21 13 3 -3 5 3 5 13 0 9 -5 20 -11 24 -8 5 -7 11 2 20 9 9 7
17 -10 35 -12 13 -17 23 -12 23 5 0 2 5 -6 10 -12 8 -12 10 -1 10 11 0 11 3 1
15 -7 8 -9 15 -4 15 5 0 3 4 -5 9 -8 5 -16 17 -17 25 -1 9 2 13 8 10 16 -10
45 25 42 51 -1 14 2 25 7 25 6 0 7 5 4 10 -3 6 -1 10 6 10 7 0 9 3 6 7 -4 3 1
12 11 20 10 9 11 12 2 7 -10 -5 -8 1 5 16 12 14 14 20 5 15 -13 -8 -13 -7 -1
9 12 14 12 19 2 26 -8 4 -10 13 -7 19 4 6 2 11 -4 11 -6 0 -9 4 -6 9 3 5 -22
38 -57 72 -34 35 -43 46 -20 24 24 -21 43 -37 43 -33 0 3 -48 50 -107 104 -81
73 -94 83 -53 38 49 -53 47 -52 -13 8 -64 65 -86 82 -71 56 4 -7 -14 7 -40 32
-25 24 -46 46 -46 49 0 3 19 -13 43 -34 l42 -40 -45 48 c-41 44 -70 63 -54 35
4 -7 -2 -4 -14 6 -26 23 -29 34 -4 15 14 -11 13 -10 -2 9 -20 24 -41 30 -31
10 4 -7 1 -6 -7 2 -15 17 -53 27 -44 11 4 -5 2 -13 -4 -16 -6 -4 -9 -1 -8 7 2
7 -2 12 -8 11 -8 -2 -10 6 -6 20 5 19 7 20 10 4 4 -17 6 -17 30 5 21 18 23 19
12 3 -14 -19 -14 -19 3 -6 12 10 14 17 7 26 -8 9 -8 14 0 17 7 2 4 11 -7 24
-16 17 -24 20 -50 15 -4 0 -2 -6 5 -13 9 -9 7 -15 -6 -25 -10 -9 -11 -12 -2
-7 13 7 13 6 1 -10 -8 -9 -23 -15 -32 -13 -10 3 -20 0 -23 -7 -2 -6 -5 -6 -5
-1 -1 6 -54 9 -141 8 -117 -1 -140 1 -140 14 0 9 5 11 13 7 8 -5 8 -2 -2 9
-11 13 -11 20 -1 32 16 19 -5 41 -40 40 -25 0 -35 -23 -17 -36 5 -4 7 -12 3
-18 -5 -7 -26 -1 -65 18 -56 29 -58 31 -57 69 1 21 -3 43 -9 48 -13 11 -34 16
-36 9z m182 -323 c5 7 9 8 9 2 0 -6 10 -10 23 -8 12 1 22 3 22 4 0 1 8 3 17 5
14 3 16 0 8 -15 -6 -11 -15 -22 -22 -26 -7 -5 -8 -2 -3 7 5 8 4 11 -1 6 -14
-13 -11 -61 6 -75 10 -9 11 -11 1 -6 -9 4 -12 2 -9 -7 3 -8 10 -13 16 -12 14
3 9 -21 -8 -43 -13 -16 -13 -17 0 -9 9 5 7 -1 -5 -15 -12 -14 -14 -20 -5 -15
12 7 13 6 3 -6 -18 -22 21 -46 45 -27 16 12 16 11 2 -7 -14 -19 -14 -19 3 -6
9 8 15 16 12 19 -3 3 1 12 8 20 10 13 9 14 -3 7 -9 -5 -7 1 5 15 12 14 14 20
5 15 -9 -5 -7 1 5 15 12 14 14 20 5 15 -12 -7 -13 -6 -3 7 7 8 9 18 5 22 -4 4
0 6 8 4 8 -1 22 -12 32 -23 l18 -20 -7 20 c-3 11 -3 17 1 14 4 -4 9 -16 11
-28 3 -16 0 -21 -12 -19 -9 2 -17 -5 -18 -15 -2 -9 1 -15 6 -11 5 3 9 0 9 -5
0 -9 10 -9 49 -2 2 1 -1 7 -6 14 -5 6 -10 23 -11 37 -1 18 1 21 8 10 5 -8 12
-12 15 -8 4 3 16 -3 28 -15 14 -14 22 -17 25 -8 3 8 8 7 18 -6 10 -14 13 -14
14 -4 0 11 4 9 15 -5 11 -14 15 -16 15 -4 0 11 3 10 11 -4 9 -15 13 -16 20 -5
8 14 9 13 9 -18 0 -5 -5 -8 -12 -8 -6 0 -12 -8 -14 -18 -1 -11 0 -16 3 -13 4
3 12 1 20 -5 7 -6 14 -9 14 -5 1 3 3 15 4 26 1 11 3 25 4 30 0 6 11 0 23 -12
15 -15 23 -18 26 -9 3 8 8 7 18 -6 10 -14 13 -14 14 -4 0 11 4 9 15 -5 10 -14
14 -15 15 -5 0 11 4 9 15 -5 11 -14 14 -15 15 -4 0 13 1 13 10 0 5 -9 5 -19
-2 -27 -6 -7 -7 -13 -2 -13 4 0 -1 -7 -12 -16 -10 -8 -12 -12 -4 -8 12 7 13 5
3 -8 -7 -8 -10 -18 -6 -21 3 -4 0 -7 -7 -7 -7 0 -10 -3 -7 -7 4 -3 2 -12 -4
-20 -6 -7 -8 -13 -3 -13 4 0 -1 -7 -12 -16 -10 -8 -12 -12 -4 -8 10 5 8 -1 -5
-16 -12 -14 -14 -20 -5 -15 9 5 7 -1 -5 -15 -12 -14 -14 -20 -5 -15 9 5 7 -1
-5 -15 -12 -14 -14 -20 -5 -15 12 7 13 6 3 -7 -7 -8 -10 -18 -6 -22 4 -4 0 -4
-10 0 -9 3 -15 10 -12 14 7 11 -22 6 -32 -5 -4 -4 -2 -5 6 0 10 6 12 4 7 -4
-6 -9 -11 -9 -21 -1 -9 7 -16 6 -26 -7 -8 -9 -9 -14 -2 -10 6 4 14 3 17 -2 7
-10 -20 -9 -30 2 -12 11 -23 -3 -17 -21 6 -15 5 -15 -10 -3 -11 9 -17 10 -17
2 0 -6 -9 -2 -20 9 -12 12 -25 18 -30 15 -6 -4 -10 -1 -10 5 0 6 -5 8 -10 5
-6 -4 -17 -1 -25 5 -12 10 -15 10 -15 -1 0 -8 -6 -5 -15 7 -10 14 -14 15 -15
5 0 -11 -4 -9 -15 5 -8 11 -15 14 -15 7 0 -8 -9 -4 -21 8 -17 17 -23 19 -30 8
-7 -11 -9 -11 -9 -1 0 7 -4 11 -9 8 -5 -3 -14 1 -20 8 -9 11 -9 16 0 22 7 4 9
3 5 -4 -10 -17 10 -23 24 -7 7 8 10 16 6 16 -23 5 -32 4 -43 -4 -7 -5 -19 -4
-30 2 -11 6 -13 11 -5 11 8 0 10 5 6 13 -5 8 -2 8 9 -2 9 -7 17 -12 18 -10 6
31 6 38 -2 34 -5 -4 -6 1 -3 9 3 9 11 13 17 9 6 -4 7 -1 1 8 -16 27 -14 40 6
29 13 -7 21 -6 27 2 12 21 14 48 2 48 -5 0 -8 4 -5 8 3 5 -8 22 -24 37 -25 24
-32 27 -43 15 -10 -10 -9 -12 3 -6 9 5 9 2 -2 -7 -10 -8 -15 -17 -11 -20 3 -4
1 -7 -6 -7 -7 0 -9 -6 -6 -12 4 -7 1 -6 -7 2 -14 17 -32 20 -44 8 -4 -5 -12
-8 -18 -8 -6 0 -4 5 4 10 8 5 11 10 6 10 -5 0 -3 7 4 15 7 8 9 15 4 15 -4 0 1
7 12 16 10 8 12 12 4 8 -13 -7 -13 -5 -1 9 7 9 10 17 5 17 -4 0 1 7 12 16 10
8 12 12 4 8 -10 -5 -8 1 5 16 12 14 14 20 5 15 -9 -5 -7 1 5 15 12 14 14 20 5
15 -13 -8 -13 -7 -1 8 12 15 12 20 -5 33 -10 9 -12 13 -4 9 8 -4 4 3 -9 14
-25 23 -47 28 -35 9 4 -7 3 -8 -5 -4 -6 4 -9 11 -6 16 8 13 -54 43 -72 35 -13
-4 -14 -3 -4 9 7 8 23 13 37 11 13 -1 27 2 30 7 3 5 15 -3 26 -18 16 -20 23
-23 29 -12z m-750 -969 c13 -14 17 -22 9 -18 -13 8 -13 7 -1 -8 14 -18 36 -24
26 -7 -11 18 1 11 21 -12 19 -22 19 -23 -1 -8 -20 15 -20 14 -1 -8 20 -23 43
-31 30 -10 -4 7 -3 8 5 4 6 -4 8 -12 5 -18 -5 -8 -1 -9 11 -4 18 7 18 6 1 -13
-13 -14 -14 -21 -5 -27 8 -5 10 -3 5 7 -4 8 0 5 8 -5 14 -18 14 -21 -1 -38 -9
-10 -13 -18 -9 -18 4 0 4 -5 1 -11 -5 -6 -19 1 -37 20 -17 17 -34 28 -39 25
-5 -3 -8 0 -7 7 2 6 -3 14 -11 17 -8 3 -11 0 -7 -7 13 -20 0 -12 -25 16 l-24
28 25 -20 25 -20 -24 28 c-25 27 -48 37 -35 15 4 -8 3 -10 -2 -5 -5 5 -9 20
-9 33 -1 13 -5 24 -10 23 -6 -1 -8 -6 -7 -12 2 -7 0 -9 -4 -5 -4 4 -14 2 -22
-5 -11 -8 -14 -8 -9 0 4 6 3 14 -3 18 -6 4 -8 10 -6 14 7 11 47 7 75 -8 14 -8
21 -9 17 -2 -4 6 -2 11 4 11 6 0 8 4 5 10 -4 6 1 7 12 4 17 -5 17 -5 1 9 -16
13 -24 27 -15 27 2 0 14 -12 28 -27z m944 -583 c-3 -5 8 -16 25 -25 23 -12 30
-12 30 -3 0 9 3 10 8 2 8 -13 44 -15 36 -2 -3 4 0 8 6 8 6 0 9 4 6 9 -3 5 3
11 15 14 16 4 18 3 9 -8 -8 -10 -7 -14 2 -18 9 -3 7 -9 -7 -22 -11 -9 -13 -13
-5 -9 13 7 13 5 2 -8 -10 -13 -10 -17 0 -21 10 -4 10 -7 -1 -18 -12 -12 -13
-12 -6 1 5 8 4 12 0 7 -13 -11 -16 -47 -5 -47 6 0 9 -5 8 -11 -2 -6 3 -14 11
-17 8 -3 11 0 7 7 -11 17 0 13 15 -6 9 -10 9 -14 2 -10 -9 6 -11 -1 -8 -23 2
-16 -1 -33 -7 -36 -7 -5 -8 -2 -4 7 6 10 4 10 -6 -1 -15 -17 -38 -24 -38 -12
0 5 -12 8 -27 7 -16 0 -26 -3 -23 -6 10 -11 -22 -38 -40 -34 -14 3 -18 -1 -15
-16 2 -11 0 -17 -5 -14 -5 3 -11 1 -15 -5 -3 -5 -16 -15 -28 -20 -20 -10 -20
-10 -5 3 10 8 14 18 10 22 -4 5 -1 4 7 0 11 -6 13 -4 8 7 -3 9 0 21 6 27 8 8
8 11 -2 11 -7 0 -10 4 -6 10 3 5 -12 18 -35 30 -22 11 -40 16 -40 10 0 -6 -4
-9 -9 -6 -14 9 -7 34 15 52 10 8 13 12 5 8 -10 -5 -12 -3 -5 7 12 20 14 39 3
39 -6 0 -7 5 -4 10 3 6 -1 10 -10 10 -9 0 -14 -4 -10 -9 3 -5 -4 -16 -15 -24
-11 -7 -18 -16 -15 -19 3 -3 -4 -13 -15 -23 -11 -10 -20 -15 -20 -12 0 3 -19
-15 -43 -40 -40 -42 -45 -44 -65 -32 -12 7 -24 20 -27 27 -2 7 -1 11 4 8 5 -3
12 1 15 10 5 12 9 14 20 5 10 -9 17 -7 27 6 12 16 12 17 -1 8 -10 -6 -9 -4 2
6 9 9 14 19 11 23 -4 3 -1 6 6 6 7 0 10 4 7 8 -3 5 1 9 9 9 10 0 12 -4 5 -12
-7 -9 -6 -14 3 -18 14 -5 89 58 80 67 -3 3 2 8 11 12 9 3 14 10 11 14 -6 10
21 7 32 -3 4 -4 16 3 27 16 12 12 17 16 11 7 -9 -13 -8 -13 7 -2 9 7 15 22 13
33 -2 11 0 17 5 14 5 -3 11 -1 15 5 3 5 8 10 11 10 3 0 3 -4 -1 -10z m-240
-370 c-7 -11 50 -42 60 -32 3 4 5 1 3 -7 -1 -7 3 -16 11 -19 9 -3 11 0 7 9 -4
8 -1 6 7 -3 13 -16 15 -16 37 5 l24 22 -19 -24 -20 -24 23 12 c22 12 23 11 12
-8 -6 -12 -8 -21 -4 -21 4 0 5 -3 2 -6 -4 -3 -16 -1 -27 6 -16 8 -21 8 -21 -1
0 -9 -3 -9 -14 0 -11 9 -16 9 -22 0 -5 -8 -3 -10 7 -4 11 6 11 5 2 -5 -7 -7
-17 -9 -25 -4 -15 10 -43 15 -34 7 3 -3 -3 -13 -12 -22 -12 -10 -12 -13 -2 -6
12 7 13 7 3 -5 -10 -11 -9 -19 10 -39 12 -13 17 -21 11 -18 -7 4 -15 0 -18 -9
-9 -24 -27 -6 -22 22 4 23 2 25 -24 20 -16 -2 -28 -1 -27 2 2 8 -7 12 -25 12
-9 0 -8 -3 2 -10 12 -7 12 -11 2 -20 -6 -5 -10 -7 -7 -3 3 4 -7 20 -22 37 -16
17 -18 23 -6 13 13 -11 23 -14 27 -8 4 5 15 9 26 8 10 -1 17 -4 14 -8 -2 -4 0
-10 4 -13 11 -6 10 34 -1 51 -4 7 1 18 13 26 11 7 17 17 13 20 -3 4 -1 7 6 7
7 0 9 5 6 10 -3 6 -1 10 4 10 6 0 10 3 10 8 -2 12 1 22 7 22 3 0 3 -4 -1 -10z
m-1055 -290 c5 9 18 6 49 -9 22 -12 41 -17 41 -11 0 5 10 0 22 -12 14 -14 23
-17 26 -10 2 8 8 7 19 -4 12 -11 18 -12 23 -4 5 8 9 6 14 -6 6 -16 8 -16 16
-4 6 10 10 11 10 3 0 -7 6 -10 14 -7 8 3 17 0 21 -6 6 -9 10 -9 16 1 5 8 9 10
9 4 0 -11 61 -12 79 -1 6 4 19 0 28 -9 13 -13 18 -14 24 -3 6 9 9 10 9 1 0 -7
7 -10 15 -7 8 4 22 1 30 -6 12 -10 15 -10 15 1 0 8 6 5 15 -7 11 -14 14 -15
15 -4 0 10 3 11 8 4 11 -17 52 -36 52 -24 0 5 10 0 21 -11 17 -17 23 -19 30
-8 6 10 9 10 9 2 0 -7 18 -22 40 -33 46 -23 54 -25 44 -7 -5 8 -2 8 9 -2 18
-15 23 -26 7 -16 -25 15 -6 -5 33 -35 l42 -33 -29 31 c-17 18 -28 32 -25 32 3
0 21 -16 40 -37 18 -20 28 -33 22 -29 -19 11 -16 -9 4 -25 15 -12 16 -12 8 1
-8 13 -7 13 8 1 18 -15 23 -26 7 -16 -14 9 -12 -1 5 -36 9 -16 20 -27 25 -24
5 3 12 0 16 -6 5 -8 3 -9 -6 -4 -8 5 -11 3 -8 -6 3 -8 10 -14 15 -14 6 0 15
-4 20 -9 5 -5 3 -6 -4 -2 -7 4 -13 4 -13 1 0 -15 34 -72 54 -88 11 -10 15 -15
7 -11 -9 4 -12 3 -7 -4 3 -6 16 -9 28 -7 12 3 25 -1 29 -7 6 -9 12 -8 25 3 13
10 16 10 10 1 -7 -11 -4 -11 13 0 17 10 25 10 41 0 16 -10 20 -10 20 0 0 9 3
8 10 -2 5 -8 10 -12 10 -7 0 4 11 0 25 -9 20 -13 25 -13 25 -3 0 12 2 12 9 1
6 -11 10 -10 15 4 5 13 10 14 18 6 8 -8 8 -15 -2 -27 -9 -11 -16 -13 -23 -6
-7 7 -15 7 -25 -1 -10 -9 -15 -9 -21 1 -11 18 -16 18 -35 2 -10 -8 -13 -18 -8
-25 5 -7 2 -18 -10 -28 -10 -10 -18 -14 -18 -8 0 5 -22 21 -50 35 -34 17 -50
21 -50 13 0 -10 -2 -10 -9 1 -6 9 -11 10 -15 2 -4 -6 -12 -9 -17 -5 -6 4 -6
11 2 20 6 8 9 15 5 15 -24 5 -33 4 -44 -4 -8 -7 -17 -6 -24 1 -15 15 -32 16
-23 2 11 -18 -1 -11 -21 12 -10 12 -13 18 -6 14 6 -4 12 -4 12 -1 0 12 -33 70
-44 77 -7 5 -6 8 4 8 12 1 11 3 -3 14 -13 10 -14 15 -6 18 9 3 6 11 -9 26 -12
12 -17 22 -11 22 6 0 -9 19 -33 43 -27 25 -30 30 -9 12 36 -30 36 -30 -4 13
-36 39 -66 57 -49 30 4 -7 3 -8 -5 -4 -6 4 -9 11 -6 16 3 5 -12 18 -34 30 -46
23 -55 25 -45 8 4 -7 3 -8 -5 -4 -6 4 -9 11 -6 16 3 5 1 11 -5 15 -5 3 -10 1
-10 -4 0 -6 -10 -1 -22 11 -15 15 -23 18 -26 9 -3 -8 -8 -7 -18 6 -10 14 -13
14 -14 4 0 -11 -4 -9 -15 5 -11 14 -14 15 -15 4 0 -13 -1 -13 -10 0 -5 8 -10
11 -10 6 0 -5 -7 -3 -15 4 -12 10 -15 10 -15 -1 0 -9 -3 -10 -8 -4 -8 13 -22
13 -41 1 -9 -6 -17 -3 -23 9 -8 14 -12 15 -19 4 -7 -12 -9 -12 -9 0 0 10 -3
11 -13 3 -9 -8 -20 -7 -40 3 -19 9 -27 10 -27 2 0 -6 -7 -2 -15 9 -11 14 -15
16 -15 4 0 -12 -3 -11 -11 3 -11 19 -34 24 -24 5 4 -7 -3 -2 -14 12 -14 18
-21 21 -22 10 0 -11 -2 -11 -6 -2 -7 19 -63 46 -63 30 0 -6 -6 -4 -13 6 -7 9
-21 18 -32 20 -10 1 -20 8 -21 15 -2 8 -1 8 3 0 4 -8 7 -8 13 1z m937 -612
c-8 -5 -6 -9 6 -14 9 -3 15 -10 12 -14 -3 -5 -1 -11 5 -15 5 -3 10 -1 10 6 0
7 7 4 15 -7 9 -12 14 -14 15 -6 0 10 5 9 17 -4 11 -11 18 -13 21 -5 2 7 9 5
19 -5 13 -13 17 -13 24 -2 7 11 9 11 9 -1 0 -8 6 -11 18 -7 16 6 16 5 0 -7
-10 -8 -16 -17 -13 -20 3 -4 2 -5 -2 -2 -3 3 -14 -2 -24 -11 -12 -11 -19 -12
-24 -4 -5 8 -11 7 -23 -2 -9 -7 -13 -8 -9 -2 7 13 -32 59 -50 59 -6 0 -15 -4
-20 -9 -5 -5 -2 -6 7 -1 12 7 13 6 2 -6 -8 -9 -15 -10 -20 -4 -9 13 -27 13
-39 1 -5 -6 -2 -6 7 -1 13 8 13 7 1 -9 -13 -16 -15 -16 -24 -1 -5 9 -7 19 -4
22 3 2 -11 21 -31 41 -31 30 -33 35 -14 30 13 -4 22 -2 22 5 0 9 2 9 8 1 11
-17 43 -13 55 6 8 13 13 15 23 6 8 -8 9 -13 1 -18z"/>
<path d="M5233 5797 c-4 -6 0 -7 8 -3 8 4 4 -1 -9 -11 -16 -13 -19 -22 -12
-29 7 -7 2 -18 -17 -34 -16 -14 -22 -18 -16 -10 10 11 9 18 -5 34 -12 14 -13
17 -2 11 13 -8 13 -7 1 9 -11 13 -16 14 -22 4 -5 -7 -9 -8 -9 -2 0 5 -11 10
-24 10 -27 0 -31 -32 -6 -54 13 -12 13 -13 0 -6 -13 7 -13 6 -1 -10 9 -10 17
-13 21 -7 3 6 12 2 20 -11 22 -31 56 -68 64 -68 4 0 4 6 0 13 -5 7 0 6 11 -3
11 -9 16 -10 11 -2 -4 7 -2 12 5 12 7 0 9 3 6 7 -4 3 1 12 11 20 10 9 11 11 2
7 -12 -6 -13 -5 -3 7 10 12 8 17 -8 27 -10 7 -19 18 -18 25 0 9 2 9 6 -1 4
-10 8 -10 21 0 16 12 16 11 2 -7 -11 -16 -11 -17 0 -8 18 16 22 43 7 43 -7 0
-6 4 3 10 12 8 12 10 -3 16 -9 3 -15 9 -12 13 2 4 -3 8 -11 8 -8 0 -18 -5 -21
-10z"/>
<path d="M3049 5771 c0 -3 -2 -40 -2 -81 -2 -56 2 -78 13 -88 13 -12 13 -13 0
-6 -8 4 -11 3 -7 -1 13 -15 36 -14 49 3 11 15 11 16 -2 7 -9 -5 -4 1 10 15 14
14 19 21 10 16 -12 -8 -12 -6 2 8 20 23 41 11 35 -20 -2 -13 0 -24 5 -24 5 0
7 -4 4 -9 -7 -10 13 -9 31 2 10 6 8 65 -2 76 -2 1 0 14 5 26 6 16 5 25 -3 28
-9 3 -9 8 1 19 10 13 10 18 1 24 -8 5 -10 3 -5 -7 6 -10 4 -10 -6 1 -7 8 -20
17 -28 18 -8 2 -12 0 -8 -3 4 -4 -1 -15 -10 -24 -10 -9 -13 -14 -7 -11 6 3 3
-2 -7 -11 -9 -9 -14 -20 -10 -24 4 -4 0 -6 -8 -3 -8 3 -15 16 -15 29 0 13 -4
29 -10 35 -10 11 -34 15 -36 5z"/>
<path d="M1493 5748 c-4 -7 -1 -8 8 -3 11 6 12 5 2 -5 -10 -10 -15 -11 -27 -1
-11 9 -16 9 -22 0 -5 -8 -3 -10 7 -4 8 5 5 -1 -5 -13 -21 -25 -36 -31 -16 -7
9 11 9 15 1 15 -7 0 -10 4 -7 8 3 5 -1 9 -9 9 -8 0 -12 -4 -10 -8 11 -16 -30
-19 -42 -3 -10 14 -15 15 -28 4 -10 -9 -19 -10 -23 -4 -11 16 -35 10 -38 -8
-1 -10 2 -18 7 -18 6 0 7 -6 3 -12 -4 -7 3 -4 15 6 21 19 21 19 15 1 -5 -13
-4 -16 4 -11 7 4 12 2 12 -3 0 -6 5 -11 11 -11 5 0 7 5 3 12 -5 7 -3 8 7 2 17
-10 60 -14 54 -4 -2 4 9 7 26 8 16 0 27 -3 24 -8 -3 -5 6 -7 21 -4 14 3 23 1
20 -4 -3 -5 1 -9 9 -9 8 0 11 5 8 10 -4 6 0 8 9 4 9 -3 21 0 28 6 10 9 14 9
17 0 3 -7 9 -13 14 -13 6 0 7 6 3 13 -6 9 -4 9 8 -1 13 -10 18 -10 24 -1 5 8
3 10 -7 4 -8 -5 -5 1 5 13 17 19 17 22 3 22 -10 0 -17 5 -17 10 0 6 -5 10 -11
10 -5 0 -7 -6 -3 -12 6 -10 4 -10 -8 0 -19 15 -34 0 -22 -20 5 -8 0 -7 -11 2
-11 9 -16 10 -11 3 4 -7 4 -13 -1 -14 -4 0 -16 -2 -25 -4 -10 -2 -21 2 -25 7
-3 6 -1 8 4 5 6 -4 18 2 28 13 10 11 16 20 14 21 -2 0 -12 2 -21 4 -10 2 -21
-2 -25 -7z"/>
<path d="M1825 5752 c-3 -3 0 -11 6 -18 8 -9 5 -11 -10 -7 -12 3 -19 8 -17 12
3 4 -10 7 -29 7 -25 0 -32 -4 -30 -16 2 -9 -3 -17 -10 -17 -8 0 -13 3 -11 6 2
3 -2 11 -9 18 -11 10 -15 10 -18 0 -4 -8 -6 -8 -6 2 -1 11 -4 11 -18 0 -14
-12 -16 -12 -9 1 4 8 -1 4 -13 -10 -11 -14 -16 -27 -10 -28 5 -2 6 -9 2 -15
-4 -7 1 -6 11 2 15 12 19 13 26 1 7 -11 11 -11 24 -1 10 9 20 10 29 4 20 -15
82 -10 82 7 0 9 9 15 21 15 11 0 28 6 36 13 13 10 17 10 22 -3 3 -9 2 -14 -3
-11 -11 7 -33 -18 -24 -27 3 -4 12 -2 19 4 7 6 19 7 26 3 21 -14 59 -12 65 2
3 8 9 14 15 14 5 0 7 -4 3 -9 -3 -5 -1 -12 5 -16 5 -3 10 -1 10 6 0 8 3 9 13
0 16 -13 28 -5 21 14 -6 15 20 15 33 0 4 -4 2 -5 -6 0 -10 6 -12 4 -7 -4 6 -9
11 -9 22 0 11 9 15 8 20 -5 3 -9 10 -16 16 -16 5 0 6 6 2 13 -5 7 0 6 11 -3
15 -12 17 -12 10 -1 -6 11 -4 13 8 8 10 -4 17 -1 17 6 0 8 3 8 8 2 8 -13 22
-13 40 -1 8 5 18 3 25 -4 9 -10 9 -11 -2 -5 -9 5 -12 4 -8 -3 13 -20 41 -6 42
21 1 14 -2 24 -7 21 -4 -3 -8 -1 -8 5 0 10 -18 10 -37 -2 -6 -4 -15 -3 -18 3
-5 8 -12 7 -23 -2 -12 -10 -14 -10 -8 0 4 6 3 12 -1 12 -5 0 -15 -6 -22 -12
-9 -8 -12 -9 -7 -1 7 12 -11 12 -32 -1 -8 -5 -20 -2 -31 8 -13 12 -20 13 -29
4 -8 -8 -15 -8 -26 1 -11 9 -16 9 -22 0 -4 -7 -3 -9 3 -6 5 3 10 0 10 -8 0
-13 -3 -13 -17 0 -13 12 -19 12 -29 2 -11 -9 -14 -9 -18 1 -4 10 -8 10 -21 0
-10 -8 -13 -9 -9 -1 5 7 1 10 -10 8 -10 -1 -22 0 -28 3 -13 8 -53 10 -60 4z"/>
<path d="M2329 5757 c-6 -9 -3 -67 4 -67 4 0 6 -4 3 -9 -8 -13 22 -7 36 7 9 9
15 9 27 0 9 -7 13 -8 9 -4 -9 10 9 36 24 36 6 0 5 -7 -2 -15 -9 -11 -9 -15 -1
-15 7 0 10 -4 7 -9 -9 -13 19 -7 38 8 9 7 16 10 16 7 0 -4 10 -1 23 5 19 11
20 10 10 -3 -16 -19 -5 -32 14 -16 10 8 17 8 25 0 9 -9 16 -8 30 5 10 9 18 11
18 5 0 -17 33 -7 36 11 1 10 -2 15 -7 11 -5 -3 -9 -1 -9 4 0 6 -7 13 -16 16
-8 3 -13 2 -10 -2 3 -5 -1 -9 -9 -9 -8 0 -12 4 -9 9 3 4 0 8 -6 8 -6 0 -9 4
-6 9 4 5 -2 8 -11 7 -10 -2 -18 -8 -18 -15 0 -6 -7 -16 -15 -21 -17 -11 -37
-13 -27 -3 4 3 2 12 -4 20 -8 9 -15 10 -24 3 -10 -8 -15 -8 -21 1 -5 8 -3 9 6
4 8 -5 11 -4 7 3 -8 12 -32 10 -44 -3 -4 -4 -2 -5 6 0 10 5 12 4 7 -4 -4 -6
-13 -8 -19 -4 -17 11 -38 13 -32 3 7 -11 -22 -7 -32 5 -5 4 -1 5 7 0 8 -5 12
-4 7 0 -7 8 -35 16 -38 12z"/>
<path d="M716 5551 c-2 -5 -1 -18 3 -37 0 -4 9 0 18 7 10 8 14 9 10 2 -7 -12
7 -26 31 -29 6 -1 9 3 5 9 -4 6 0 8 9 4 9 -3 21 0 27 6 8 8 14 7 24 -2 10 -11
9 -12 -2 -6 -9 5 -12 4 -7 -3 7 -11 37 -9 58 4 6 4 8 3 5 -3 -4 -6 1 -17 10
-24 9 -8 14 -9 10 -3 -3 6 0 11 7 11 8 0 13 -6 12 -13 -3 -23 -15 -27 -33 -13
-9 8 -14 9 -10 3 4 -7 0 -15 -9 -18 -8 -3 -12 -2 -9 4 8 13 -8 13 -22 -1 -8
-8 -17 -7 -34 3 -13 8 -40 14 -59 14 -28 -1 -35 -5 -35 -21 0 -11 7 -20 15
-20 8 0 16 -6 16 -12 3 -24 4 -25 17 -15 13 11 56 10 74 -1 6 -4 15 -2 19 4 5
8 3 9 -7 4 -12 -8 -12 -6 0 8 14 18 22 22 20 10 -3 -19 2 -33 12 -33 5 0 7 6
3 13 -6 9 -5 9 7 0 13 -10 19 -8 36 16 14 18 18 33 13 41 -20 33 23 58 59 35
5 -3 12 -1 15 4 3 4 17 9 31 9 13 0 22 -4 20 -9 -3 -4 -1 -10 5 -14 5 -3 10
-2 10 2 0 12 38 14 46 2 3 -6 12 -5 21 3 9 7 25 13 36 13 11 0 21 8 23 18 1 9
-2 17 -7 17 -6 0 -8 4 -5 8 3 5 -1 9 -9 9 -8 0 -11 -5 -8 -10 4 -6 0 -8 -10
-4 -9 3 -19 1 -23 -5 -4 -6 -3 -8 4 -4 15 9 8 -22 -8 -37 -12 -10 -12 -9 -2 4
10 13 8 19 -11 36 -12 10 -28 18 -34 17 -7 -1 -18 -2 -24 -3 -5 0 -7 -7 -3
-13 5 -10 4 -10 -6 -1 -7 6 -19 9 -28 6 -11 -5 -13 -3 -7 8 8 12 6 12 -8 0
-13 -10 -21 -11 -30 -3 -17 14 -61 -13 -51 -31 4 -7 3 -8 -1 -4 -13 11 -15 38
-3 31 7 -4 8 -2 4 5 -6 9 -11 9 -21 1 -8 -7 -20 -8 -27 -4 -18 12 -50 12 -65
1 -7 -5 -18 -5 -25 -1 -15 9 -88 13 -92 5z"/>
<path d="M1467 5553 c-4 -3 -2 -12 4 -19 7 -8 6 -14 -2 -20 -8 -5 -9 -3 -4 7
8 12 6 12 -8 0 -18 -14 -23 -26 -8 -16 5 3 12 1 15 -4 4 -5 18 -8 32 -5 14 3
23 1 20 -4 -6 -11 34 -9 52 2 7 4 19 3 26 -3 9 -8 18 -5 34 12 12 13 20 26 16
29 -3 3 -1 9 4 12 12 7 10 -13 -1 -31 -5 -8 -3 -13 3 -13 6 0 8 -5 4 -12 -5
-9 -2 -8 10 1 12 11 20 11 28 3 8 -8 15 -9 25 -1 9 9 17 8 28 -1 12 -10 16 -9
21 4 3 9 11 13 18 9 18 -12 35 -12 43 -1 4 7 1 8 -7 3 -9 -6 -11 -4 -6 4 5 7
14 10 21 7 7 -2 18 1 24 7 8 8 11 8 11 0 0 -7 -5 -15 -10 -18 -18 -11 -1 -24
26 -19 14 3 31 1 38 -4 31 -23 55 5 32 37 -8 11 -8 13 1 8 7 -4 10 -1 9 10 -2
9 -10 17 -19 19 -22 3 -59 -26 -53 -42 3 -7 2 -16 -3 -18 -4 -3 -7 8 -7 24 0
16 4 26 9 23 6 -3 7 -2 4 4 -8 12 -53 11 -64 -1 -4 -5 -3 -6 3 -3 6 3 11 0 11
-7 0 -11 -4 -12 -18 -3 -10 6 -16 14 -13 18 2 5 -6 6 -18 3 -13 -3 -29 -6 -35
-6 -7 -1 -11 -4 -8 -6 6 -7 -15 -32 -27 -32 -5 0 -7 4 -4 8 3 5 -3 16 -13 24
-15 12 -22 13 -31 5 -10 -9 -11 -9 -6 0 8 15 -30 9 -49 -7 -10 -8 -15 -8 -21
1 -5 8 -3 9 6 4 8 -5 11 -4 7 2 -7 11 -57 10 -76 -2 -10 -5 -12 -4 -7 3 9 15
-7 15 -22 0 -8 -8 -15 -8 -25 0 -8 7 -17 9 -20 5z"/>
<path d="M4666 5503 c-3 -3 -1 -12 5 -20 9 -9 8 -13 0 -13 -8 0 -6 -10 4 -30
9 -17 20 -28 25 -25 5 3 12 0 16 -6 4 -8 3 -9 -4 -5 -7 4 -12 2 -12 -3 0 -6 7
-11 15 -11 16 0 20 -12 8 -23 -3 -4 -12 -2 -20 4 -7 6 -13 10 -14 8 0 -2 -2
-11 -4 -19 -1 -8 3 -20 9 -25 11 -10 61 -17 52 -7 -3 3 2 11 12 19 11 10 12
12 2 8 -8 -4 -4 3 10 15 14 12 18 18 10 14 -12 -6 -13 -5 -3 8 7 8 10 18 6 21
-3 4 -1 7 6 7 7 0 9 5 6 10 -3 6 -1 10 5 10 6 0 9 4 6 9 -4 5 -1 11 6 13 6 2
12 12 14 21 1 9 -2 15 -7 11 -5 -3 -9 -1 -9 5 0 11 -26 9 -37 -4 -4 -4 -1 -5
7 -1 9 5 8 2 -2 -7 -10 -8 -15 -17 -11 -20 3 -4 1 -7 -6 -7 -7 0 -10 -4 -7 -8
3 -5 -1 -9 -8 -9 -7 0 -11 8 -9 17 2 9 -4 23 -13 31 -16 12 -17 12 -10 -1 7
-13 6 -13 -6 0 -15 17 -32 22 -42 13z"/>
<path d="M183 5400 c-2 -3 -10 -5 -16 -5 -13 0 -16 -155 -3 -170 5 -6 70 -9
159 -9 l150 2 1 81 c1 44 -2 81 -6 81 -5 0 -7 3 -7 8 3 19 -2 25 -11 12 -7
-11 -10 -11 -10 -2 0 8 -5 10 -12 5 -17 -10 -38 -13 -38 -5 0 4 -20 7 -45 7
-25 0 -45 -3 -45 -7 0 -5 -5 -8 -11 -8 -5 0 -8 3 -6 8 5 8 -92 10 -100 2z
m240 -58 c10 -11 17 -32 15 -49 l-2 -31 -106 -1 c-120 -2 -143 9 -138 66 l2
31 106 1 c93 2 108 0 123 -17z"/>
<path d="M1109 5307 c-7 -16 -4 -39 6 -44 13 -7 15 -12 15 -29 0 -4 7 -1 15 6
8 7 20 8 27 4 18 -12 51 -12 66 -1 8 6 18 5 29 -4 9 -8 14 -9 11 -4 -4 6 3 17
15 25 20 12 21 12 8 -4 -12 -14 -12 -16 2 -11 8 4 18 1 22 -5 5 -8 11 -7 23 2
12 10 16 10 19 1 3 -7 9 -13 14 -13 6 0 7 6 3 13 -5 7 0 6 11 -3 11 -9 16 -10
11 -2 -4 6 -3 12 3 12 5 0 12 -4 15 -8 3 -5 22 -7 43 -6 55 3 57 3 50 11 -4 3
0 15 10 25 15 17 15 18 -1 18 -9 0 -15 4 -12 9 7 11 -21 8 -31 -4 -4 -4 -1 -5
7 -1 12 6 11 4 -1 -6 -9 -7 -15 -20 -14 -29 2 -9 -4 -16 -11 -16 -10 0 -11 4
-5 10 7 7 7 15 -2 26 -10 12 -9 13 2 6 10 -5 12 -4 7 4 -6 9 -11 9 -24 -1 -12
-10 -14 -10 -8 0 4 6 3 12 -3 12 -5 0 -13 -5 -16 -10 -5 -8 -11 -8 -19 -1 -9
7 -16 7 -24 -1 -8 -8 -15 -8 -28 2 -21 18 -42 21 -51 8 -4 -7 -1 -8 7 -3 8 5
11 4 7 -3 -9 -13 -30 -10 -53 8 -19 17 -16 17 -51 -5 -14 -9 -23 -13 -19 -7 3
6 -2 9 -11 7 -10 -1 -22 0 -28 4 -10 5 -34 11 -36 8z"/>
<path d="M1544 5299 c-3 -5 -2 -9 2 -9 4 0 -1 -9 -11 -20 -17 -19 -17 -20 -1
-20 11 0 15 -5 10 -12 -6 -10 -4 -10 7 0 15 14 33 16 24 3 -3 -5 -1 -12 5 -16
5 -3 10 -1 10 6 0 9 3 9 14 0 11 -9 16 -9 22 0 5 8 3 9 -6 4 -9 -5 -11 -4 -6
3 10 16 39 15 30 0 -6 -10 -4 -10 7 0 15 14 33 16 24 3 -3 -5 -1 -12 5 -16 5
-3 10 -1 10 6 0 8 3 9 14 0 10 -8 16 -8 25 3 7 8 20 13 29 11 9 -2 21 -4 25
-4 5 -1 5 -7 1 -13 -5 -9 -2 -8 10 1 13 11 20 11 28 3 9 -9 16 -8 30 5 10 9
18 11 18 5 0 -17 33 -7 36 11 1 10 -1 15 -6 12 -5 -3 -10 0 -12 6 -2 7 -17 13
-33 14 -17 2 -34 3 -38 4 -5 1 -6 5 -3 10 4 5 -2 8 -11 7 -11 -2 -18 -12 -18
-26 0 -14 -7 -24 -18 -26 -9 -1 -15 2 -11 7 3 5 11 6 17 3 8 -5 8 -3 0 6 -20
21 -42 21 -38 0 2 -10 -4 -25 -13 -32 -13 -11 -14 -11 -7 2 13 21 15 39 4 46
-5 3 -7 9 -4 14 8 13 -21 6 -41 -10 -11 -9 -15 -10 -10 -3 5 9 2 11 -8 7 -9
-3 -14 -10 -13 -16 1 -6 -6 -12 -16 -13 -9 -2 -15 1 -11 6 3 5 11 6 17 2 7 -4
6 1 -2 10 -11 14 -16 15 -29 5 -13 -10 -14 -10 -8 0 4 6 4 12 -1 13 -4 0 -16
2 -25 4 -10 2 -20 -1 -24 -6z"/>
<path d="M717 5092 c-8 -18 0 -37 16 -36 13 2 15 -1 7 -11 -8 -10 -7 -15 2
-21 18 -12 39 -14 33 -4 -3 4 2 11 11 14 10 4 13 2 8 -7 -5 -8 -2 -7 9 2 14
11 20 11 32 1 8 -7 15 -9 15 -6 0 4 9 2 20 -4 15 -8 20 -8 20 1 0 8 4 8 15 -1
15 -12 16 -11 19 12 0 7 13 13 28 13 22 2 26 -1 17 -12 -6 -7 -10 -13 -8 -14
32 -6 40 -5 48 9 7 13 12 14 23 4 11 -8 18 -8 25 -1 7 7 17 8 25 3 7 -5 25 -9
41 -10 15 -1 28 -2 30 -4 1 -1 10 -3 20 -5 10 -2 14 1 10 8 -4 6 0 8 9 4 9 -3
21 0 28 6 10 9 14 9 17 0 3 -7 9 -13 14 -13 6 0 7 6 3 13 -6 9 -4 9 8 -1 14
-11 18 -10 26 4 9 16 12 16 28 4 9 -8 19 -14 21 -12 1 1 4 2 6 1 20 -6 38 -5
43 2 3 5 10 9 15 9 6 0 8 -4 5 -8 -3 -5 1 -9 9 -9 8 0 12 4 9 9 -4 5 2 8 11 6
11 -2 19 4 20 15 2 9 -1 17 -6 17 -6 0 -8 4 -5 8 3 5 -1 9 -9 9 -8 0 -13 -2
-10 -5 7 -7 -39 -41 -48 -35 -4 3 -3 11 4 19 6 7 16 11 23 7 6 -4 5 0 -2 9
-13 17 -36 18 -49 3 -4 -4 -2 -5 6 0 10 6 12 4 7 -4 -6 -9 -11 -9 -21 -1 -9 7
-16 6 -25 -5 -13 -16 -35 -21 -25 -6 3 5 1 12 -5 16 -5 3 -10 0 -10 -7 0 -10
-2 -10 -8 0 -10 15 -50 24 -57 12 -3 -5 -1 -11 5 -15 5 -3 10 -11 10 -17 0 -6
-7 -5 -17 3 -11 10 -14 10 -9 2 7 -13 5 -14 -31 -17 -10 -1 -25 -5 -33 -10
-11 -6 -10 -4 2 9 16 17 16 19 0 32 -9 8 -11 11 -3 7 9 -4 12 -3 8 4 -9 14
-36 9 -47 -8 -7 -11 -11 -11 -24 -1 -13 11 -15 10 -11 -7 2 -12 -4 -27 -13
-34 -15 -12 -16 -11 -3 5 7 9 9 17 3 17 -5 0 -9 8 -8 17 0 10 -6 18 -14 18
-24 2 -32 -6 -21 -19 7 -8 5 -12 -7 -12 -9 -1 -24 -3 -32 -5 -9 -2 -14 2 -12
9 1 8 -2 11 -8 7 -5 -3 -10 -1 -10 6 0 8 -5 7 -17 -2 -9 -8 -14 -9 -10 -3 10
17 -43 11 -53 -6 -8 -13 -14 -8 -12 11 1 3 -5 6 -13 6 -8 0 -12 -4 -9 -9 3 -4
1 -8 -5 -8 -5 0 -13 5 -16 10 -5 8 -12 7 -22 -1 -12 -10 -16 -10 -23 1 -9 15
-38 22 -43 12z"/>
<path d="M1695 5090 c-2 -3 -34 -6 -70 -5 -37 0 -69 -3 -71 -7 -11 -17 -12
-48 -3 -53 5 -4 9 -1 9 6 0 9 3 9 14 0 11 -10 17 -8 25 6 10 16 12 16 21 2 13
-22 66 -19 59 4 -6 20 -5 36 2 31 5 -3 7 -9 4 -14 -3 -4 6 -7 20 -5 14 1 23 0
20 -3 -2 -3 0 -11 6 -19 9 -10 15 -11 26 -1 11 9 16 9 24 -3 6 -10 9 -11 9 -1
0 8 5 10 13 5 21 -13 36 -12 49 5 11 15 11 16 -2 7 -12 -8 -12 -6 0 5 13 12
14 18 5 27 -9 8 -16 8 -23 1 -6 -6 -12 -6 -17 3 -6 8 -4 10 5 4 9 -5 11 -4 6
4 -6 9 -11 9 -23 0 -9 -8 -17 -9 -21 -3 -8 10 -81 14 -87 4z"/>
<path d="M1876 5072 c1 -15 2 -31 3 -36 1 -5 7 -4 14 2 10 8 57 10 65 2 1 -1
7 -4 12 -5 6 -1 11 -3 13 -5 8 -6 36 -7 32 0 -3 4 2 10 10 14 8 3 17 0 21 -6
5 -7 2 -8 -6 -3 -9 5 -11 4 -6 -4 5 -7 12 -9 19 -3 16 12 49 12 65 -1 12 -9
13 -8 16 15 0 6 7 13 15 16 8 3 11 0 8 -5 -3 -5 0 -10 8 -10 8 0 11 5 8 11 -4
6 0 5 9 -1 8 -7 19 -9 24 -5 4 4 3 0 -4 -10 -13 -16 -8 -25 16 -24 10 1 15 8
11 19 -7 24 -4 33 15 34 21 2 21 2 2 -13 -18 -13 -18 -14 -2 -14 9 0 15 -4 12
-8 -3 -5 1 -9 9 -9 8 0 12 4 10 8 -3 3 2 12 10 19 8 7 13 16 10 20 -3 5 -1 11
3 14 11 6 9 -34 -1 -51 -5 -7 -6 -14 -3 -14 24 -6 34 -4 55 9 21 13 25 13 33
-2 8 -14 13 -15 24 -5 11 9 18 8 31 -2 9 -8 14 -9 10 -3 -10 17 23 27 39 13 8
-6 15 -9 15 -5 8 39 2 51 -19 34 -12 -10 -14 -10 -8 0 4 7 2 12 -4 12 -6 0 -9
4 -6 8 3 5 -1 9 -9 9 -8 0 -12 -8 -9 -20 2 -11 1 -17 -3 -13 -3 3 -13 0 -22
-6 -13 -10 -13 -9 1 7 9 11 14 25 10 30 -9 13 -78 13 -89 1 -5 -5 -2 -6 6 -1
10 6 12 4 6 -5 -7 -11 -10 -10 -19 1 -10 13 -26 16 -41 9 -12 -6 -31 -6 -40 0
-13 8 -27 7 -44 -4 -8 -5 -16 -4 -20 2 -7 12 -36 10 -48 -3 -4 -4 -2 -5 6 0 9
5 12 4 7 -3 -4 -7 -14 -12 -22 -12 -8 0 -13 4 -10 9 4 5 -2 8 -11 6 -10 -1
-17 -9 -17 -17 1 -8 -5 -15 -12 -15 -7 0 -11 4 -8 9 3 4 0 8 -6 8 -6 0 -8 5
-4 13 6 9 4 9 -8 -1 -13 -10 -18 -10 -24 -1 -5 8 -3 9 6 4 8 -5 11 -4 7 3 -8
12 -32 10 -44 -3 -4 -4 -2 -5 6 0 9 5 12 4 7 -3 -4 -7 -17 -10 -29 -8 -12 2
-29 -1 -37 -7 -8 -6 -12 -8 -8 -3 12 14 -15 35 -29 24 -9 -7 -17 -7 -26 1 -11
9 -13 5 -11 -17z"/>
<path d="M249 4933 c0 -5 -1 -51 -2 -103 -2 -96 4 -117 36 -117 9 0 15 3 12 5
-3 3 3 11 13 19 11 10 12 12 2 8 -8 -4 -4 3 10 15 14 12 18 19 10 15 -12 -5
-12 -4 1 7 9 7 16 17 17 21 0 5 4 12 8 15 4 4 4 1 0 -5 -5 -8 -1 -13 11 -14
11 0 13 -3 5 -6 -10 -4 -10 -8 -1 -19 6 -7 9 -19 6 -26 -5 -15 12 -33 32 -33
21 0 22 184 1 205 -17 17 -34 19 -47 6 -5 -5 -2 -6 7 -2 8 4 4 -2 -10 -14 -14
-12 -18 -19 -10 -15 8 4 4 -3 -10 -15 -14 -12 -18 -19 -10 -15 12 5 12 4 -1
-7 -9 -7 -16 -16 -15 -20 1 -3 -3 -10 -7 -15 -5 -4 -8 -3 -6 2 1 6 -1 18 -6
28 -4 9 -5 28 -3 40 4 23 -7 40 -30 45 -7 1 -12 -1 -13 -5z"/>
<path d="M1566 4868 c3 -4 0 -8 -6 -8 -6 0 -8 -5 -4 -12 6 -10 5 -10 -7 -1
-10 8 -19 9 -29 1 -12 -8 -12 -9 3 -4 23 7 22 -1 -3 -14 -11 -6 -20 -7 -19 -3
5 28 -9 35 -41 23 -3 -1 -9 -2 -14 -1 -6 1 -6 -3 0 -11 5 -8 2 -7 -6 2 -19 19
-35 19 -52 0 -11 -12 -10 -12 7 0 17 12 18 12 8 0 -18 -19 -41 -21 -39 -3 2
23 -33 24 -44 3 -6 -11 -17 -17 -25 -14 -8 4 -12 11 -8 18 4 6 -1 5 -11 -3
-15 -12 -19 -13 -26 -1 -5 7 -16 15 -24 16 -9 1 -14 -2 -10 -7 6 -11 -9 -12
-20 -2 -9 10 -37 13 -31 3 2 -4 -4 -15 -14 -24 -12 -11 -21 -13 -25 -7 -4 6
-14 7 -23 4 -11 -4 -14 -3 -9 5 4 7 2 12 -4 12 -6 0 -9 4 -6 9 7 11 -21 8 -31
-4 -4 -4 -2 -5 6 0 10 6 12 4 5 -6 -12 -20 -14 -39 -3 -39 6 0 8 -4 4 -9 -3
-6 4 -8 16 -6 13 3 27 1 33 -3 6 -5 17 -7 24 -6 6 1 17 2 23 3 5 0 7 6 4 11
-3 6 -1 11 4 11 6 1 17 2 24 3 6 1 11 8 9 16 -2 8 0 11 4 7 12 -12 14 -38 2
-31 -6 4 -8 2 -5 -4 9 -14 36 -9 47 8 7 11 11 11 23 1 10 -8 17 -9 22 -1 3 5
11 10 16 10 6 0 8 -4 4 -9 -3 -5 -1 -12 5 -16 5 -3 10 -2 10 3 0 11 32 12 47
0 7 -6 14 -4 19 3 5 8 3 9 -6 4 -9 -5 -11 -4 -6 4 6 9 11 9 21 1 10 -8 15 -8
21 1 5 8 3 9 -6 4 -9 -5 -11 -4 -6 4 6 9 11 9 21 1 9 -7 16 -6 24 3 6 8 10 16
8 18 -1 2 3 -1 8 -7 6 -6 20 -9 33 -7 14 2 21 -1 17 -7 -3 -5 -1 -10 5 -10 6
0 8 -5 4 -12 -5 -9 -2 -9 9 1 13 10 20 11 31 2 10 -8 16 -9 21 -1 3 6 10 8 15
5 5 -3 11 -1 15 4 3 6 12 8 20 5 8 -4 12 -11 8 -18 -4 -6 1 -5 10 3 14 11 20
11 34 0 14 -12 16 -12 8 0 -6 11 -4 13 7 8 9 -3 21 0 28 6 10 9 14 9 17 -1 4
-9 8 -10 18 -2 10 8 15 8 21 -1 5 -8 3 -10 -7 -4 -8 5 -10 4 -6 0 12 -13 37
-15 34 -2 -1 6 4 11 12 12 16 0 25 35 10 35 -6 0 -8 4 -5 8 3 5 -1 9 -9 9 -8
0 -12 -4 -10 -8 3 -3 -2 -12 -11 -19 -12 -11 -17 -11 -27 0 -10 10 -9 11 2 5
9 -5 12 -4 7 3 -6 10 -36 9 -55 -2 -5 -3 -12 1 -15 10 -5 13 -9 14 -21 4 -8
-7 -20 -8 -27 -4 -21 13 -39 13 -32 1 3 -7 -1 -4 -9 5 -8 10 -17 15 -20 11 -4
-3 -7 -1 -7 5 0 6 -9 10 -19 9 -11 0 -17 -5 -15 -9z"/>
<path d="M815 4850 c-17 -19 -51 -23 -71 -8 -6 4 -19 1 -30 -8 -10 -8 -12 -12
-4 -8 13 7 13 5 1 -9 -9 -12 -10 -17 -2 -17 7 0 10 -4 7 -8 -3 -5 1 -9 9 -9 8
0 12 4 10 8 -3 3 2 12 9 18 11 9 16 9 22 0 5 -8 3 -9 -6 -4 -9 5 -11 4 -6 -4
6 -9 11 -9 24 1 12 10 14 10 8 1 -4 -7 -3 -13 3 -13 5 0 13 4 16 10 4 6 11 5
19 -3 8 -6 12 -15 10 -19 -5 -7 16 -5 31 3 9 5 51 4 58 -1 9 -8 38 -6 44 2 4
7 1 8 -7 3 -8 -5 -11 -4 -6 3 8 13 46 12 46 -1 0 -5 8 -3 17 4 11 10 14 10 9
2 -4 -7 -5 -13 -2 -13 3 0 10 10 17 21 9 17 8 20 -3 13 -11 -6 -11 -5 1 9 9
12 10 17 2 17 -7 0 -9 5 -5 13 6 9 5 9 -7 1 -11 -9 -64 -13 -64 -5 0 2 -8 4
-18 6 -9 2 -15 0 -12 -5 3 -4 -2 -11 -11 -14 -9 -3 -14 -13 -10 -21 3 -8 2
-17 -3 -19 -4 -3 -7 8 -7 24 0 16 4 26 9 23 6 -3 7 -1 4 5 -8 11 -25 11 -44
-1 -6 -4 -15 -2 -19 4 -5 8 -3 9 7 4 8 -5 10 -4 6 0 -14 16 -35 13 -52 -5z"/>
<path d="M2619 4863 c-6 -14 -3 -29 6 -35 6 -5 5 -8 -3 -8 -10 0 -10 -5 -2
-20 6 -11 15 -18 20 -15 5 3 12 0 16 -6 4 -8 3 -9 -4 -5 -15 9 -15 1 -1 -26 8
-15 8 -23 -2 -32 -9 -8 -10 -8 -4 4 5 9 4 12 -1 7 -12 -12 -12 -30 2 -44 14
-14 40 -11 57 7 10 12 9 12 -3 5 -10 -7 -10 -4 2 6 9 9 14 19 11 23 -4 3 -1 6
6 6 7 0 9 5 6 10 -3 6 -1 10 5 10 6 0 8 5 5 10 -3 6 -1 10 6 10 7 0 9 3 6 7
-4 3 1 12 11 20 10 9 11 11 2 7 -13 -7 -13 -6 0 10 16 21 23 49 9 40 -5 -3 -9
-1 -9 5 0 5 -6 8 -12 7 -25 -3 -37 -17 -33 -36 2 -11 0 -20 -6 -20 -5 0 -8 -3
-6 -7 1 -5 -2 -8 -8 -8 -5 0 -9 6 -7 12 4 19 -17 55 -29 48 -5 -4 -9 -2 -9 3
0 8 -28 13 -31 5z"/>
<path d="M5016 4743 c-3 -3 -2 -11 0 -18 3 -7 0 -16 -6 -20 -8 -5 -8 -11 1
-21 9 -11 9 -14 -1 -14 -8 0 -10 -3 -7 -7 4 -3 1 -13 -6 -21 -10 -13 -9 -14 3
-7 9 5 6 -2 -6 -16 -11 -13 -20 -31 -19 -39 1 -8 -3 -24 -8 -35 -9 -17 -8 -18
5 -7 13 10 18 10 24 1 4 -7 3 -9 -2 -6 -5 3 -21 -4 -34 -15 -14 -11 -18 -16
-10 -12 13 7 13 6 0 -11 -11 -14 -12 -19 -2 -22 6 -3 9 -10 5 -16 -4 -6 0 -8
9 -4 9 3 20 1 26 -5 6 -6 12 -6 17 3 6 8 4 10 -6 5 -8 -4 -3 2 11 14 14 12 18
18 10 14 -13 -7 -13 -5 -2 8 9 11 10 18 2 23 -5 3 -10 12 -10 18 0 7 4 6 10
-3 7 -12 12 -12 29 4 11 10 18 26 15 39 -2 11 2 27 9 36 10 12 9 13 -2 6 -11
-6 -12 -5 -5 6 4 8 7 24 5 37 -1 13 3 30 11 39 11 14 11 16 -2 8 -12 -7 -13
-6 -4 6 9 10 9 16 0 24 -12 11 -52 16 -60 8z"/>
<path d="M229 4613 c-6 -14 -3 -29 6 -35 6 -5 5 -8 -3 -8 -9 0 -2 -21 20 -64
32 -59 33 -63 14 -62 -22 1 -28 -21 -12 -40 14 -15 53 -11 68 6 11 12 10 12
-2 5 -9 -6 -7 -2 3 8 11 9 16 17 11 17 -4 0 1 7 12 16 10 8 12 12 4 8 -12 -7
-13 -5 -3 8 7 8 10 18 6 21 -3 4 -1 7 6 7 7 0 9 5 6 10 -3 6 -1 10 5 10 6 0 8
5 5 10 -3 6 -1 10 6 10 7 0 9 3 6 7 -4 3 1 12 11 20 10 9 11 11 2 7 -12 -6
-13 -5 -4 7 11 13 4 27 -19 42 -11 6 -35 -27 -32 -44 2 -10 -1 -19 -6 -19 -6
0 -7 -4 -4 -10 3 -5 1 -10 -5 -10 -6 0 -9 -4 -5 -9 3 -5 0 -13 -6 -17 -7 -4
-9 -3 -5 4 3 5 0 13 -6 15 -10 4 -10 6 0 6 10 1 10 6 2 21 -6 11 -15 18 -20
15 -5 -3 -12 0 -16 6 -5 8 -3 9 6 4 8 -5 11 -3 8 6 -3 8 -11 13 -17 12 -6 -2
-11 1 -11 5 0 8 -29 13 -31 5z"/>
<path d="M2085 4521 c-15 -14 -25 -21 -21 -14 4 7 -1 9 -16 5 -13 -3 -19 -1
-15 6 4 6 0 9 -10 8 -18 -3 -30 -46 -12 -46 5 0 7 -6 3 -12 -5 -9 -2 -9 9 1
13 10 20 11 30 2 8 -6 16 -8 19 -5 11 10 58 14 58 4 0 -5 5 -10 11 -10 5 0 7
5 3 12 -5 7 -3 8 7 2 8 -5 22 -7 33 -5 10 1 16 -1 13 -7 -4 -5 0 -9 8 -9 8 0
12 3 10 7 -2 3 7 14 20 24 14 10 22 23 18 29 -3 6 -1 7 6 3 9 -6 9 -11 0 -22
-9 -11 -9 -14 0 -14 7 0 9 -5 5 -12 -5 -9 -2 -9 9 1 14 11 20 11 33 0 21 -17
42 -20 51 -7 4 7 1 8 -7 3 -9 -5 -11 -4 -6 4 6 9 11 9 22 0 8 -6 14 -10 15 -8
7 33 6 44 -5 55 -10 10 -16 10 -26 1 -9 -9 -11 -9 -6 0 8 15 -17 11 -38 -6
-13 -11 -19 -11 -32 0 -17 14 -67 21 -59 9 5 -8 -20 -32 -45 -44 -8 -4 -4 2
10 13 14 12 21 21 15 20 -25 -3 -36 2 -29 14 5 6 -10 -1 -32 -18 -21 -16 -33
-21 -25 -12 12 16 8 22 -12 18 -5 -1 -6 3 -2 9 5 7 11 8 19 1 13 -11 45 3 33
15 -16 16 -35 11 -62 -15z"/>
<path d="M839 4533 c-1 -1 -2 -8 -3 -15 0 -6 -7 -13 -15 -16 -8 -3 -11 0 -7 6
7 11 -12 11 -31 -1 -6 -4 -15 -2 -19 4 -5 8 -3 9 7 4 8 -5 10 -4 6 0 -12 13
-37 15 -34 2 1 -6 -5 -11 -13 -12 -22 0 -19 -38 3 -41 10 -1 21 4 24 12 3 8 9
14 15 14 5 0 7 -4 3 -9 -3 -5 -1 -12 5 -16 5 -3 10 -1 10 6 0 8 5 7 17 -2 9
-8 18 -13 20 -11 9 6 24 1 19 -7 -4 -5 2 -8 11 -7 10 2 19 8 19 14 3 23 4 24
21 11 11 -10 14 -10 9 -1 -4 7 -1 12 9 12 9 0 13 -4 10 -10 -7 -11 -6 -11 43
-14 17 -1 32 2 32 7 0 5 6 4 14 -2 10 -9 17 -7 27 6 13 17 13 17 -6 3 -15 -11
-14 -7 4 13 14 15 19 27 12 27 -7 0 -9 5 -5 13 5 7 0 6 -11 -3 -14 -12 -19
-12 -23 -2 -3 10 -7 10 -20 0 -9 -7 -13 -8 -9 -2 4 7 -14 10 -59 8 -35 -1 -62
1 -60 5 3 4 -1 8 -9 8 -8 0 -16 -2 -16 -4z"/>
<path d="M1069 4526 c-1 -3 -2 -9 -3 -13 -1 -5 -5 -14 -9 -21 -5 -7 -2 -14 7
-18 9 -3 14 -9 12 -13 -9 -13 72 -5 90 9 10 9 15 10 10 3 -5 -9 -2 -11 8 -7 9
3 13 11 9 18 -4 6 1 5 10 -3 9 -7 17 -10 17 -5 0 5 4 3 9 -5 8 -13 12 -13 26
-1 14 12 18 12 25 0 7 -11 11 -11 24 -1 12 10 19 11 30 2 10 -8 16 -9 21 -1 3
5 11 10 16 10 6 0 8 -4 5 -9 -4 -5 1 -8 11 -7 17 3 28 36 12 36 -6 0 -7 5 -3
12 4 6 3 8 -4 4 -6 -3 -13 -2 -16 3 -7 10 -25 9 -43 -2 -7 -5 -13 -5 -13 -1 0
3 -7 1 -15 -6 -12 -10 -15 -10 -15 1 0 12 -2 12 -9 0 -7 -11 -11 -10 -19 5 -8
15 -13 16 -26 5 -9 -7 -21 -9 -28 -5 -19 12 -39 14 -32 3 3 -5 1 -9 -5 -9 -5
0 -13 5 -16 10 -5 8 -12 7 -23 -2 -12 -10 -16 -10 -19 0 -3 6 -9 12 -14 12 -6
0 -7 -6 -3 -12 5 -9 2 -9 -9 1 -9 7 -18 11 -18 7z"/>
<path d="M1429 4507 c-9 -15 -8 -18 3 -11 11 6 11 5 -1 -9 -9 -12 -10 -17 -2
-17 7 0 10 -4 7 -9 -7 -11 21 -8 31 4 4 4 2 5 -6 0 -10 -5 -12 -4 -7 4 4 6 13
8 19 4 16 -10 77 -11 71 -2 -8 14 18 21 29 9 9 -10 9 -11 -2 -5 -9 5 -12 4 -8
-2 5 -8 62 -11 62 -3 0 8 52 6 62 -2 7 -6 14 -5 19 3 5 8 3 9 -6 4 -9 -5 -11
-4 -6 4 6 9 11 9 21 1 9 -7 16 -6 26 7 13 17 13 17 -6 3 -19 -14 -19 -14 -6 2
13 18 36 15 26 -3 -4 -5 1 -12 9 -15 9 -3 14 -10 11 -14 -7 -11 22 -6 32 5 5
4 1 5 -7 0 -8 -5 -12 -4 -7 0 10 11 39 16 32 6 -2 -4 2 -8 10 -8 8 0 12 4 10
8 -3 4 2 10 11 13 8 3 12 2 9 -4 -6 -10 -5 -11 57 -14 31 -2 36 1 32 17 -2 15
0 16 11 7 14 -12 22 -5 21 20 -1 10 -13 15 -38 15 -29 1 -36 -2 -33 -16 3 -12
-1 -16 -11 -12 -8 3 -14 10 -14 15 0 6 -8 4 -17 -3 -9 -8 -14 -9 -11 -3 4 6
-3 10 -17 10 -13 0 -22 -3 -19 -7 6 -10 -24 -5 -33 6 -4 4 -2 5 6 0 9 -5 12
-4 8 2 -7 11 -52 11 -63 0 -11 -10 -26 -9 -20 2 7 11 -21 8 -31 -4 -4 -4 -2
-5 6 0 10 6 12 4 7 -4 -5 -7 -11 -10 -14 -7 -3 3 -10 1 -17 -4 -8 -7 -12 -5
-12 5 0 8 5 11 10 8 6 -3 7 -1 3 6 -6 9 -11 9 -21 1 -8 -7 -20 -8 -27 -4 -19
12 -58 13 -65 1 -4 -6 -1 -7 7 -2 8 5 11 4 6 -3 -4 -6 -13 -9 -21 -6 -8 4 -13
9 -10 13 2 4 -2 8 -10 8 -7 0 -12 -8 -10 -18 2 -11 -2 -18 -8 -16 -7 1 -11 -3
-10 -9 1 -6 -5 -11 -12 -11 -10 0 -12 4 -5 12 6 7 5 16 -3 25 -10 12 -8 11 8
0 17 -12 18 -12 7 0 -19 22 -61 20 -73 -3z"/>
<path d="M2429 4343 c0 -5 -2 -42 -2 -83 -2 -77 5 -97 36 -97 9 0 15 3 12 5
-3 3 3 11 13 19 11 10 12 12 2 8 -8 -4 -4 3 10 15 14 12 18 18 10 14 -10 -5
-9 0 4 14 11 12 22 20 25 17 3 -4 -1 -10 -9 -15 -9 -6 -10 -10 -3 -10 11 0 12
-17 1 -35 -7 -12 12 -30 31 -30 11 0 15 18 15 81 1 45 -3 85 -9 90 -13 12 -31
12 -42 0 -5 -5 -2 -6 7 -2 8 4 4 -2 -10 -14 -14 -12 -18 -19 -10 -15 12 5 12
4 -1 -7 -9 -7 -16 -16 -15 -20 1 -3 -3 -10 -9 -15 -6 -4 -7 -4 -3 1 4 5 3 15
-3 22 -6 8 -9 19 -6 26 5 14 -10 31 -31 36 -7 1 -12 -1 -13 -5z"/>
<path d="M4514 3543 c4 -8 2 -13 -5 -13 -7 0 -9 -3 -6 -7 4 -3 -1 -12 -11 -20
-10 -9 -11 -12 -2 -7 10 5 9 1 -3 -14 -11 -11 -16 -26 -12 -31 3 -6 1 -11 -5
-11 -6 0 -8 -4 -5 -10 3 -5 1 -10 -5 -10 -6 0 -8 -4 -5 -10 3 -5 2 -10 -4 -10
-6 0 -15 -10 -22 -21 -9 -17 -8 -20 3 -13 7 4 4 -3 -7 -16 -13 -15 -15 -21 -5
-16 8 4 4 -2 -10 -14 -14 -12 -18 -18 -10 -14 13 7 13 6 0 -11 -12 -15 -12
-19 -2 -23 10 -3 7 -8 -8 -16 -13 -6 -21 -14 -19 -17 2 -4 -4 -16 -14 -27 -11
-12 -16 -26 -12 -31 3 -6 1 -11 -6 -11 -7 0 -9 -3 -6 -7 4 -3 -1 -12 -11 -20
-10 -9 -11 -11 -2 -7 13 7 13 5 1 -9 -7 -9 -9 -17 -4 -17 5 0 10 -12 11 -27 1
-16 -2 -23 -6 -18 -9 13 -32 13 -33 0 0 -5 -6 -16 -12 -24 -10 -12 -9 -13 3
-6 12 7 13 6 4 -6 -9 -11 -5 -19 19 -39 17 -14 28 -19 24 -12 -5 7 -3 12 4 12
7 0 9 3 6 7 -4 3 1 12 11 20 10 9 11 11 2 7 -13 -7 -13 -5 -1 9 7 9 9 17 4 17
-5 0 -10 12 -11 28 -1 15 2 23 6 17 10 -13 35 -18 27 -5 -3 5 -1 10 6 10 7 0
9 3 6 7 -4 3 1 12 11 20 10 9 11 12 2 7 -10 -5 -8 1 5 16 11 13 14 20 7 16
-11 -7 -12 -4 -3 13 7 11 14 21 17 21 3 0 2 -6 -2 -12 -4 -7 -3 -9 1 -5 11 10
15 37 6 37 -4 0 -8 7 -8 15 0 14 11 20 32 15 6 -1 7 2 3 6 -4 4 0 13 10 21 10
9 11 11 2 7 -13 -7 -13 -6 0 10 12 16 12 19 -4 28 -13 8 -15 13 -5 24 9 12 15
12 27 2 13 -10 14 -10 8 0 -4 7 -2 12 5 12 7 0 9 3 6 7 -4 3 1 12 11 20 10 9
11 11 2 7 -13 -7 -13 -5 -1 9 9 12 10 17 2 17 -9 0 -9 5 -1 20 6 11 16 17 22
14 7 -4 8 -3 4 4 -4 7 -2 12 4 12 6 0 9 4 6 9 -4 5 -1 11 6 13 6 2 12 12 14
21 1 9 -2 15 -7 11 -5 -3 -9 0 -9 6 0 7 -6 10 -14 7 -7 -3 -19 0 -26 6 -10 9
-11 9 -6 0z"/>
<path d="M4256 2968 c3 -4 0 -8 -6 -8 -6 0 -9 -4 -6 -9 3 -5 0 -11 -8 -14 -15
-6 -16 -23 -3 -43 3 -6 -3 -20 -16 -30 -21 -19 -21 -19 -7 1 12 17 12 18 0 7
-8 -7 -16 -17 -16 -22 -1 -6 -2 -11 -4 -12 -7 -10 -7 -39 1 -44 5 -3 9 -12 9
-21 0 -12 -3 -13 -14 -4 -11 9 -16 9 -22 0 -5 -8 -3 -10 7 -5 8 4 3 -2 -11
-14 -14 -12 -18 -18 -11 -14 9 5 6 -4 -7 -23 -12 -17 -18 -33 -15 -37 4 -3 -2
-13 -13 -22 -10 -8 -12 -12 -4 -8 13 7 13 6 0 -10 -16 -20 -23 -49 -10 -41 5
3 8 -3 7 -14 -1 -16 -4 -18 -16 -8 -12 9 -13 9 -7 0 4 -8 2 -13 -5 -13 -7 0
-9 -3 -6 -7 4 -3 -1 -12 -11 -20 -10 -9 -11 -11 -2 -7 13 7 13 5 1 -9 -7 -9
-9 -17 -4 -17 5 0 9 -9 10 -21 2 -16 -1 -18 -12 -9 -10 8 -15 8 -21 -1 -5 -8
-3 -10 7 -5 8 4 3 -2 -11 -14 -14 -12 -18 -18 -11 -14 9 5 6 -4 -7 -23 -12
-17 -18 -33 -15 -37 4 -3 -2 -13 -13 -22 -10 -8 -12 -12 -4 -8 13 7 13 6 0
-10 -16 -20 -23 -49 -10 -41 5 3 8 -3 7 -14 -1 -16 -4 -18 -16 -8 -12 9 -13 9
-7 0 4 -8 2 -13 -5 -13 -7 0 -9 -3 -6 -7 4 -3 -1 -12 -11 -20 -10 -9 -11 -11
-2 -7 13 7 13 5 1 -9 -7 -9 -9 -17 -4 -17 5 0 10 -7 10 -15 0 -12 -3 -12 -16
-2 -12 9 -13 9 -7 0 4 -8 2 -13 -5 -13 -7 0 -9 -3 -6 -7 4 -3 -1 -12 -11 -20
-10 -9 -11 -11 -2 -7 13 7 13 6 0 -11 -11 -14 -12 -19 -2 -22 6 -3 10 -9 6
-14 -3 -5 0 -9 6 -9 6 0 8 -5 4 -11 -3 -6 -15 -9 -25 -6 -17 5 -31 -6 -35 -25
-1 -5 -2 -9 -4 -10 -7 -10 -7 -39 1 -44 5 -3 9 -10 9 -16 0 -6 -7 -5 -17 3
-11 10 -14 10 -9 2 4 -8 2 -13 -4 -13 -6 0 -8 -4 -5 -10 3 -5 1 -10 -5 -10 -6
0 -9 -4 -6 -9 3 -5 -1 -11 -8 -14 -9 -4 -13 -15 -10 -30 2 -16 -2 -30 -14 -38
-16 -13 -16 -13 -2 6 14 18 14 19 -2 7 -10 -8 -17 -17 -16 -20 0 -4 -1 -9 -2
-12 -7 -19 -7 -39 1 -34 5 3 9 0 9 -6 0 -7 6 -10 14 -7 7 3 19 0 26 -6 10 -9
11 -9 6 1 -4 7 -2 12 5 12 7 0 9 3 6 7 -4 3 1 12 11 20 10 9 11 11 2 7 -12 -6
-13 -5 -4 7 9 11 9 17 -1 26 -7 6 -15 10 -18 7 -2 -3 -7 1 -10 9 -6 16 22 19
40 5 7 -6 14 -4 19 3 5 8 3 10 -7 5 -8 -4 -3 2 11 14 14 12 18 18 10 14 -13
-7 -13 -6 0 11 12 14 12 19 2 23 -10 3 -10 7 -1 18 6 8 16 11 22 7 6 -3 7 -1
3 5 -4 7 -2 12 5 12 7 0 9 3 6 7 -4 3 1 12 11 20 10 9 11 12 2 7 -12 -6 -12
-4 1 12 9 10 14 25 12 32 -3 6 1 12 8 12 7 0 9 3 6 7 -4 3 1 12 11 20 10 9 11
11 2 7 -13 -7 -13 -6 -1 10 12 14 12 19 2 26 -11 6 -11 9 0 16 8 5 17 9 22 9
4 0 7 5 8 10 0 6 6 16 12 24 10 12 9 13 -3 6 -13 -7 -13 -6 -2 7 9 11 10 18 2
23 -5 3 -10 12 -10 18 0 8 3 7 9 -2 11 -17 32 -5 24 14 -3 8 1 15 8 15 7 0 9
3 6 7 -4 3 1 12 11 20 10 9 11 12 2 7 -10 -5 -9 0 4 14 11 12 16 22 11 22 -4
0 -1 8 6 18 13 15 12 16 -3 3 -10 -7 -18 -10 -18 -6 0 4 -6 3 -13 -3 -10 -8
-13 -6 -14 11 -1 12 1 17 5 12 12 -16 26 -15 52 7 14 11 18 16 10 12 -13 -7
-13 -6 -1 10 9 10 11 20 5 24 -5 4 -11 16 -12 26 -3 17 -1 18 11 7 12 -9 17
-9 23 0 5 8 3 10 -7 5 -8 -4 -5 0 5 8 11 9 16 16 10 16 -5 0 -1 5 9 11 17 10
17 12 3 28 -14 15 -14 18 -1 18 8 0 11 -5 8 -10 -3 -6 -1 -7 5 -3 6 4 9 13 5
21 -3 8 1 15 8 15 7 0 9 3 6 7 -4 3 1 12 11 20 10 9 11 11 2 7 -13 -7 -13 -5
-1 9 7 9 9 17 4 17 -5 0 -9 9 -10 21 -2 16 1 18 11 10 10 -8 17 -7 26 4 7 8 9
15 5 15 -4 0 -1 8 6 17 12 15 12 16 -1 8 -13 -8 -13 -7 -1 8 7 9 9 17 4 17 -5
0 -10 12 -11 28 -1 15 2 23 6 17 10 -13 35 -18 27 -5 -3 5 -1 10 5 10 6 0 9 4
6 9 -3 5 1 12 10 15 8 3 13 10 9 15 -3 5 -1 12 4 16 6 3 8 12 4 20 -3 8 1 15
8 15 7 0 9 3 6 7 -4 3 1 12 11 20 10 9 11 11 2 7 -13 -7 -13 -5 -1 9 9 12 10
17 2 17 -7 0 -9 5 -5 12 5 8 2 9 -9 5 -10 -3 -17 -3 -17 2 0 4 -7 8 -15 8 -8
0 -12 -4 -9 -9z"/>
<path d="M1165 2209 c-6 -8 -4 -10 6 -5 8 4 3 -2 -11 -14 -14 -12 -18 -18 -10
-14 13 7 13 6 1 -10 -11 -13 -12 -19 -3 -25 7 -4 10 -15 6 -25 -5 -13 -9 -14
-20 -5 -11 9 -15 8 -20 -5 -3 -9 -11 -13 -18 -9 -6 4 -4 -1 4 -11 13 -17 12
-21 -15 -42 -34 -27 -39 -61 -13 -86 10 -10 18 -15 18 -12 0 4 7 1 15 -6 12
-10 15 -10 15 0 0 9 3 10 13 1 8 -6 17 -8 21 -4 3 4 13 8 22 9 12 2 13 -1 3
-12 -9 -11 -9 -14 0 -14 7 0 10 -4 6 -9 -3 -6 4 -15 15 -21 15 -8 20 -8 20 1
0 8 5 7 17 -2 11 -10 14 -10 9 -1 -4 7 -2 12 4 12 6 0 8 5 5 10 -4 6 -1 9 7 8
7 -2 12 3 10 11 -3 12 0 12 12 2 16 -14 12 -36 -5 -26 -5 4 -9 -3 -9 -14 0
-12 5 -21 11 -21 5 0 8 -4 4 -9 -3 -6 4 -15 15 -21 15 -8 20 -8 20 1 0 8 5 7
17 -2 11 -10 14 -10 9 -1 -4 7 -2 12 5 12 7 0 9 3 6 7 -4 3 -2 12 4 20 9 10 8
13 0 13 -7 0 -10 4 -6 9 3 6 -4 15 -15 21 -15 8 -20 8 -20 -1 0 -7 -11 -2 -24
10 -15 14 -30 20 -37 16 -7 -5 -10 -4 -5 3 3 6 -3 16 -14 22 -15 8 -20 8 -20
-1 0 -8 -5 -7 -17 2 -11 10 -14 10 -9 2 6 -11 -7 -18 -17 -10 -2 1 -12 -5 -23
-13 -18 -14 -18 -13 1 8 15 18 16 25 6 31 -7 5 -12 12 -12 17 1 5 -3 9 -8 9
-5 0 -13 4 -18 9 -4 5 -3 6 4 2 6 -3 15 -2 18 4 5 8 11 7 21 -1 8 -6 14 -10
15 -8 7 34 6 38 -4 32 -7 -4 -6 0 1 10 12 14 11 19 -3 33 -13 13 -14 19 -4 25
7 4 16 6 20 3 4 -2 11 1 15 7 5 8 2 10 -7 5 -8 -4 -3 2 11 14 14 12 18 18 10
14 -13 -7 -13 -5 -1 9 9 12 10 17 2 17 -7 0 -9 5 -5 12 5 7 2 9 -8 5 -9 -3
-20 -1 -26 5 -6 6 -12 6 -17 -3z"/>
<path d="M3639 1559 c-8 -5 -10 -9 -4 -9 5 0 -1 -7 -13 -16 -12 -8 -20 -20
-16 -25 3 -5 0 -17 -8 -26 -11 -14 -11 -16 0 -9 11 7 12 4 3 -12 -6 -12 -17
-24 -24 -28 -7 -5 -7 -1 3 12 11 15 11 16 0 7 -20 -19 -21 -45 -2 -61 9 -7 11
-11 5 -7 -8 4 -13 0 -13 -11 0 -13 -3 -14 -14 -5 -11 9 -16 9 -22 0 -5 -8 -3
-10 7 -5 8 4 3 -2 -11 -14 -14 -12 -18 -18 -10 -14 12 6 13 5 4 -7 -8 -10 -7
-18 6 -29 23 -21 36 -22 51 -4 17 21 22 54 8 54 -8 0 -7 5 1 15 9 11 16 12 25
5 8 -7 17 -5 28 8 22 24 22 24 10 47 -9 17 -7 26 9 45 11 14 16 19 12 11 -5
-10 -3 -12 5 -7 7 5 10 11 7 14 -3 3 0 12 7 20 10 13 9 14 -3 7 -12 -6 -13 -5
-3 5 10 11 9 16 -5 27 -11 9 -12 12 -2 7 8 -4 11 -3 7 1 -11 13 -32 14 -48 4z"/>
<path d="M3035 519 c-6 -8 -4 -10 6 -4 8 4 3 -3 -11 -16 -14 -13 -19 -19 -10
-14 13 9 13 8 1 -8 -8 -10 -21 -17 -30 -16 -29 3 -34 -1 -21 -16 10 -12 10
-15 0 -15 -9 0 -9 -4 1 -17 13 -15 12 -16 -8 -11 -14 4 -23 2 -23 -5 0 -9 -2
-9 -8 0 -8 13 -37 12 -49 -2 -5 -4 -1 -5 7 0 8 5 5 -3 -8 -17 -25 -28 -23 -32
38 -63 27 -14 33 -15 25 -4 -7 11 -6 11 5 -1 22 -22 35 -22 55 0 10 11 15 20
10 20 -4 0 -1 7 6 16 16 20 20 64 6 64 -6 0 -2 6 8 14 11 8 23 12 27 10 4 -2
10 1 14 7 5 8 2 10 -7 5 -8 -4 -3 2 11 14 14 12 18 18 10 14 -13 -7 -13 -5 -1
9 9 12 10 17 2 17 -7 0 -9 5 -5 12 5 7 2 9 -8 5 -9 -3 -20 -1 -26 5 -6 6 -12
6 -17 -3z"/>
<path d="M4266 381 c-2 -3 -2 -17 -1 -30 1 -19 0 -21 -9 -10 -12 16 -50 19
-63 5 -5 -6 -2 -6 7 -1 13 8 13 7 0 -9 -14 -17 -15 -17 -31 2 -12 16 -19 18
-28 9 -8 -8 -11 -8 -11 0 0 6 -8 10 -17 9 -14 -2 -17 -11 -15 -35 2 -26 -2
-34 -18 -38 -11 -3 -20 -10 -20 -16 0 -6 -3 -8 -6 -4 -3 3 -2 12 2 19 21 34 1
86 -25 64 -11 -8 -15 -8 -18 2 -3 6 -9 9 -15 6 -12 -8 -230 -10 -244 -2 -8 4
-18 4 -40 -1 -4 0 -1 -8 6 -16 10 -12 10 -15 0 -15 -10 0 -10 -3 0 -15 6 -8 9
-19 5 -25 -3 -5 0 -10 7 -10 10 0 10 -2 0 -8 -10 -7 -8 -13 6 -30 12 -14 23
-18 32 -12 8 5 19 6 25 2 17 -11 35 -11 42 0 4 7 1 8 -7 3 -8 -5 -11 -4 -6 3
7 12 36 5 36 -9 0 -6 8 -5 19 1 12 6 22 6 25 1 7 -11 32 -9 43 4 4 4 2 5 -6 0
-9 -5 -12 -4 -7 3 7 12 36 5 36 -9 0 -6 8 -5 19 1 14 7 22 7 26 0 5 -8 12 -7
22 1 12 10 16 10 24 -2 5 -8 9 -9 9 -4 0 6 11 -2 23 -17 19 -22 26 -25 37 -15
10 10 11 9 5 -2 -5 -9 -4 -12 3 -7 6 4 9 12 6 19 -2 7 5 22 17 32 19 18 22 18
33 3 9 -12 16 -14 29 -7 12 7 17 6 17 -2 0 -8 4 -8 16 2 13 10 17 10 24 -1 7
-12 11 -11 26 1 13 11 18 11 21 2 3 -9 10 -10 24 -3 14 8 19 7 19 -1 0 -8 5
-7 17 2 11 9 14 10 9 2 -5 -9 -2 -11 9 -7 9 4 12 11 8 18 -5 7 -1 4 8 -5 16
-18 42 -20 56 -4 5 4 1 4 -7 0 -13 -8 -13 -7 0 9 13 17 15 17 32 -3 19 -25 26
-26 50 -4 24 21 44 6 23 -17 -12 -14 -13 -20 -4 -26 8 -5 10 -3 5 7 -4 8 -2 7
6 -2 17 -21 29 -21 53 -1 19 16 19 16 5 -3 -14 -18 -14 -19 2 -6 10 7 16 17
13 21 -3 5 -1 11 5 15 6 4 8 12 4 18 -3 7 1 4 9 -5 13 -16 43 -18 67 -3 6 3
10 1 10 -6 0 -8 5 -7 17 2 13 11 17 11 21 1 3 -10 7 -10 19 -1 9 8 17 9 21 3
9 -12 28 -12 39 0 5 5 2 6 -6 1 -10 -6 -12 -4 -6 5 7 11 10 10 19 -1 12 -16
50 -19 63 -5 5 5 2 6 -6 1 -10 -6 -12 -4 -6 5 6 10 11 9 21 -5 11 -15 16 -16
29 -5 14 12 18 11 25 0 7 -12 11 -11 26 1 14 11 18 11 22 1 3 -9 8 -10 16 -2
10 7 21 2 43 -19 17 -15 36 -31 44 -34 8 -3 -297 -6 -678 -6 -653 -1 -694 0
-725 17 -18 10 -40 18 -48 18 -21 -1 -19 -28 5 -51 12 -11 14 -15 5 -10 -9 6
-3 -3 13 -19 23 -22 31 -25 38 -15 5 8 9 10 9 4 0 -11 1404 -10 1422 1 7 5 8
2 3 -7 -5 -8 2 -5 15 6 15 12 20 14 15 5 -4 -8 5 -1 21 16 16 16 22 21 14 10
-15 -21 -15 -21 7 -2 13 10 20 22 18 27 -3 4 -1 10 5 14 6 4 8 11 4 16 -3 5 0
17 8 26 11 14 11 16 -1 8 -11 -6 -12 -5 -5 6 12 19 11 42 -1 51 -6 5 -5 8 4 8
11 0 11 3 1 15 -6 8 -9 19 -5 25 3 5 0 10 -7 10 -10 0 -10 2 0 8 10 7 8 12 -5
23 -10 9 -24 15 -32 15 -17 -1 -24 -36 -8 -36 8 0 7 -3 -2 -9 -9 -6 -10 -11
-2 -15 15 -10 14 -59 -1 -75 -11 -11 -10 -12 2 -6 13 8 13 7 1 -8 -7 -9 -10
-17 -6 -17 4 0 -1 -8 -12 -17 -10 -10 -12 -13 -3 -8 13 9 13 8 1 -8 -8 -9 -16
-15 -19 -12 -3 3 -11 0 -19 -7 -11 -9 -12 -7 -7 7 6 14 4 16 -7 10 -8 -5 -3 4
11 20 14 16 18 24 10 20 -12 -7 -13 -6 -3 7 7 8 10 18 6 21 -3 4 0 14 8 24 12
14 12 16 0 8 -11 -6 -12 -5 -5 6 20 32 1 77 -24 56 -9 -7 -16 -7 -20 -1 -9 12
-28 12 -39 0 -5 -5 -2 -6 6 -1 10 6 12 4 7 -4 -8 -12 -21 -7 -21 7 0 15 -17
32 -26 27 -5 -4 -9 -2 -9 4 0 5 -8 8 -17 7 -15 -2 -17 -11 -15 -48 2 -29 -2
-49 -11 -56 -21 -18 -40 10 -35 51 4 38 -10 57 -38 53 -14 -2 -19 -11 -18 -30
0 -22 -2 -25 -10 -14 -12 14 -59 21 -50 7 3 -5 0 -9 -6 -9 -6 0 -8 -6 -5 -12
4 -7 -2 -3 -13 9 -11 12 -22 19 -26 16 -10 -10 -56 -10 -56 0 0 5 -8 3 -17 -4
-15 -12 -16 -12 -8 1 8 13 7 13 -8 1 -9 -7 -17 -9 -17 -4 0 12 -46 11 -57 -1
-5 -5 -2 -6 6 -1 9 5 12 4 7 -3 -7 -11 -36 -6 -36 7 0 10 -69 6 -78 -4 -4 -5
2 -5 13 -1 17 6 18 5 7 -6 -11 -11 -15 -10 -25 2 -13 17 -50 20 -64 6 -5 -6
-2 -6 7 -1 13 8 13 7 0 -9 -14 -17 -15 -17 -31 2 -16 21 -41 24 -56 7 -5 -4
-1 -4 7 0 13 8 13 7 0 -9 -13 -17 -15 -17 -32 3 -23 29 -23 29 -47 7 -18 -16
-21 -17 -15 -3 3 9 0 23 -8 30 -13 14 -46 19 -52 8z"/>
<path d="M2039 243 c-6 -13 -4 -50 3 -59 4 -6 2 -11 -5 -12 -26 -2 -413 -4
-422 -2 -5 1 -13 1 -17 0 -20 -6 -34 -5 -41 5 -6 7 -10 6 -14 -2 -2 -7 -9 -13
-14 -13 -6 0 -7 5 -3 12 4 6 3 8 -4 4 -15 -9 -586 -11 -601 -2 -6 4 -11 2 -11
-3 0 -6 -5 -11 -11 -11 -5 0 -7 4 -4 10 9 14 -8 12 -24 -3 -11 -10 -13 -9 -7
3 5 9 2 9 -7 -2 -8 -10 -16 -15 -19 -12 -9 9 -3 -40 6 -51 10 -11 1265 -10
1275 1 3 4 0 4 -8 -1 -9 -5 -12 -4 -7 3 9 15 36 16 36 2 0 -11 28 -9 47 3 9 6
10 14 4 46 -1 2 -7 -2 -15 -8 -11 -9 -16 -9 -22 0 -5 8 -3 9 6 4 8 -5 11 -4 7
3 -8 12 -32 10 -44 -3 -5 -4 -1 -4 7 0 13 8 13 7 1 -8 -7 -9 -16 -17 -19 -17
-3 0 -3 3 1 6 3 3 -3 14 -14 25 -22 22 -34 25 -23 7 4 -8 3 -10 -2 -5 -5 5 -9
14 -9 20 -1 7 -6 11 -11 10 -6 -1 -11 4 -11 12 0 8 5 13 11 12 6 -1 10 3 9 9
-1 6 4 11 11 11 7 0 13 -6 13 -13 0 -7 -3 -11 -7 -9 -4 2 -7 -2 -7 -10 0 -12
3 -12 15 -2 8 6 18 11 21 10 3 -2 6 5 6 14 0 13 -9 18 -37 18 -21 1 -39 0 -39
-2z"/>
</g>
</svg>
