 <svg version="1.0" xmlns="http://www.w3.org/2000/svg" width="700.000000pt" height="1071.000000pt" viewBox="0 0 700.000000 1071.000000" preserveAspectRatio="xMidYMid meet">
<metadata>
Created by potrace 1.12, written by Peter Selinger 2001-2015
</metadata>
<g transform="translate(0.000000,1071.000000) scale(0.100000,-0.100000)" fill="#000000" stroke="none">
<path d="M3875 10571 c-33 -15 -82 -38 -110 -50 -27 -13 -68 -31 -90 -41 -22
-10 -83 -37 -135 -60 -52 -24 -129 -58 -170 -78 -41 -19 -91 -40 -110 -47 -19
-7 -93 -41 -165 -75 -71 -34 -154 -71 -182 -82 -29 -10 -55 -24 -59 -29 -6
-11 3 -39 46 -134 15 -33 55 -125 89 -205 86 -198 96 -222 165 -374 20 -43 36
-82 36 -87 0 -5 16 -42 35 -83 19 -41 35 -79 35 -84 0 -23 97 -84 360 -225 41
-22 79 -44 85 -48 12 -12 38 -12 31 0 -3 5 -90 55 -193 111 -104 57 -201 111
-218 121 -31 18 -51 56 -163 319 -27 63 -102 236 -166 384 -64 147 -116 275
-114 283 2 9 10 19 18 24 31 16 368 169 374 169 6 0 319 141 431 194 146 69
215 97 231 94 19 -4 -8 66 328 -831 98 -263 113 -297 130 -297 6 0 5 5 -2 12
-7 7 -12 18 -12 26 0 8 -7 28 -15 45 -14 33 -150 392 -231 617 -66 179 -113
302 -124 322 -6 10 -10 23 -10 29 0 22 -43 109 -54 109 -6 -1 -38 -14 -71 -29z"></path>
<path d="M5180 9470 c0 -5 17 -14 38 -19 20 -5 116 -31 212 -56 96 -26 207
-55 246 -64 49 -12 114 -41 205 -93 74 -41 186 -103 249 -137 63 -35 122 -67
130 -71 41 -24 240 -137 275 -155 97 -52 191 -107 203 -119 15 -14 9 -63 -38
-311 -19 -100 -31 -164 -76 -410 -8 -44 -21 -118 -28 -165 -8 -47 -40 -222
-71 -390 -31 -168 -64 -352 -74 -410 -15 -88 -31 -132 -95 -275 -42 -93 -91
-201 -108 -240 -17 -38 -47 -104 -66 -145 -18 -41 -42 -95 -52 -120 -10 -25
-39 -90 -65 -145 -26 -55 -66 -145 -90 -200 -40 -93 -72 -166 -242 -545 -36
-80 -101 -226 -145 -325 -44 -99 -100 -224 -124 -277 -25 -54 -52 -114 -60
-135 -9 -21 -24 -56 -34 -78 -10 -22 -47 -105 -83 -185 -36 -80 -106 -237
-157 -350 -51 -113 -97 -216 -102 -230 -5 -14 -40 -92 -77 -175 -38 -82 -94
-208 -126 -280 -32 -71 -66 -148 -76 -170 -83 -184 -252 -563 -256 -575 -3 -8
-16 -37 -29 -65 -12 -27 -64 -142 -114 -255 -184 -409 -203 -449 -252 -531
-28 -46 -90 -149 -138 -229 -82 -136 -211 -348 -338 -555 -30 -49 -87 -144
-127 -210 -71 -118 -254 -419 -331 -544 -21 -35 -46 -69 -55 -74 -13 -8 -93
25 -355 148 l-339 158 -95 91 c-124 119 -215 197 -320 272 -135 97 -406 247
-385 214 3 -6 30 -22 58 -36 210 -106 405 -247 605 -438 77 -73 150 -136 163
-139 13 -4 164 -72 334 -153 171 -80 317 -148 327 -151 10 -3 22 4 31 19 17
28 203 336 241 398 14 25 46 77 70 115 25 39 56 93 71 120 15 28 33 57 39 65
7 8 37 56 66 105 29 50 63 106 76 125 60 95 124 200 124 205 0 4 19 36 43 73
56 87 82 129 146 239 19 32 47 76 61 98 30 44 74 121 101 175 35 71 99 211 99
216 0 6 20 51 82 184 22 47 62 137 90 200 27 63 58 133 68 155 25 54 149 332
212 475 27 63 60 138 73 165 22 49 104 231 130 290 7 17 30 66 50 110 21 44
54 121 75 170 21 50 55 126 75 170 21 44 61 134 90 200 29 66 73 163 98 215
24 52 48 106 52 120 4 14 22 57 40 95 105 223 125 268 125 276 0 4 20 49 44
101 24 51 80 174 124 273 101 228 233 526 260 585 11 25 61 136 111 247 50
111 91 204 91 207 0 2 15 37 34 78 18 40 50 108 70 151 20 44 36 81 36 84 0 3
14 35 31 71 117 253 121 263 140 375 10 62 28 162 39 222 11 61 29 157 40 215
10 58 26 143 35 190 9 47 20 114 26 150 5 36 16 99 24 140 8 41 30 165 50 275
20 110 45 243 55 295 10 52 22 120 25 150 7 54 6 56 -22 70 -15 8 -65 36 -110
62 -45 27 -84 48 -88 48 -3 0 -65 34 -138 75 -72 42 -139 79 -147 84 -8 4 -76
42 -150 83 -74 41 -160 89 -190 105 -30 16 -84 46 -120 65 -36 20 -81 39 -100
43 -19 4 -142 36 -273 71 -131 35 -240 64 -243 64 -2 0 -4 -4 -4 -10z"></path>
<path d="M4990 9460 c0 -6 30 -10 70 -10 40 0 70 4 70 10 0 6 -30 10 -70 10
-40 0 -70 -4 -70 -10z"></path>
<path d="M4740 9450 c0 -6 45 -10 115 -10 70 0 115 4 115 10 0 6 -45 10 -115
10 -70 0 -115 -4 -115 -10z"></path>
<path d="M4440 9440 c0 -6 53 -10 140 -10 87 0 140 4 140 10 0 6 -53 10 -140
10 -87 0 -140 -4 -140 -10z"></path>
<path d="M4033 9060 c-26 -11 -68 -93 -59 -115 3 -9 14 -18 23 -21 10 -3 36
-14 58 -25 38 -19 44 -19 117 -5 134 26 181 70 94 88 -21 5 -50 16 -65 27 -31
22 -119 61 -135 60 -6 0 -21 -4 -33 -9z m127 -58 c41 -21 75 -45 75 -53 0 -9
-22 -18 -69 -27 -62 -13 -73 -12 -107 4 -56 25 -63 37 -45 72 27 53 49 53 146
4z"></path>
<path d="M4526 8929 c-74 -17 -83 -43 -37 -106 25 -34 42 -45 108 -67 43 -15
139 -50 213 -76 316 -115 366 -132 383 -134 11 0 26 14 40 38 l22 38 -65 60
c-36 34 -83 72 -105 86 -22 14 -61 46 -86 70 -41 39 -53 45 -110 52 -35 4 -76
13 -91 19 -15 6 -58 13 -95 16 -38 3 -84 7 -103 9 -19 2 -53 0 -74 -5z m282
-50 c37 -10 81 -19 98 -19 20 0 39 -9 55 -26 13 -14 53 -47 89 -72 163 -114
215 -210 93 -172 -65 20 -485 171 -551 197 -87 35 -121 91 -69 113 32 14 207
1 285 -21z"></path>
<path d="M4327 8896 c-22 -18 -25 -25 -15 -32 18 -14 86 -33 92 -26 14 13 5
62 -13 72 -27 14 -32 13 -64 -14z"></path>
<path d="M3839 8649 l-120 -241 15 -46 c10 -27 16 -80 16 -132 0 -48 2 -89 5
-92 3 -3 31 2 61 10 66 19 157 8 227 -27 23 -11 44 -17 48 -13 4 4 16 34 28
67 12 33 26 69 31 80 22 46 113 265 136 324 13 36 29 70 35 77 6 7 8 17 5 23
-5 8 -106 67 -273 158 -34 19 -65 38 -68 44 -4 5 -10 9 -16 9 -5 0 -63 -108
-130 -241z m298 110 c79 -45 146 -85 148 -90 6 -9 -21 -78 -123 -319 -38 -91
-72 -173 -75 -182 -8 -23 -20 -23 -114 3 -66 18 -84 20 -126 10 -27 -6 -53 -9
-58 -5 -5 3 -9 29 -9 57 0 29 -7 80 -16 112 l-16 60 109 218 c64 129 113 217
122 217 8 0 79 -37 158 -81z"></path>
<path d="M3696 8747 c-21 -39 -75 -137 -121 -217 -45 -80 -117 -208 -160 -285
-43 -77 -111 -198 -152 -268 -40 -71 -73 -131 -73 -134 0 -2 -34 -62 -75 -133
-41 -71 -75 -131 -75 -133 0 -3 -33 -63 -73 -134 -40 -70 -108 -191 -151 -268
-44 -77 -106 -187 -139 -245 -69 -120 -73 -105 52 -165 92 -44 93 -26 2 20
-38 19 -72 39 -76 45 -5 9 98 201 321 592 46 81 84 150 84 152 0 3 33 62 73
133 41 70 109 191 152 268 107 193 203 364 300 535 111 197 165 296 165 304 0
21 -20 -4 -54 -67z"></path>
<path d="M4416 8758 c-23 -33 -19 -61 13 -92 l28 -27 32 39 c17 22 31 43 31
46 0 6 -75 56 -84 56 -3 0 -12 -10 -20 -22z m51 -34 c8 -21 -13 -42 -28 -27
-13 13 -5 43 11 43 6 0 13 -7 17 -16z"></path>
<path d="M4587 8592 c-23 -25 -21 -37 8 -56 47 -31 97 22 53 56 -29 22 -41 22
-61 0z"></path>
<path d="M5286 8579 c-25 -70 -33 -100 -27 -103 8 -5 112 11 119 19 3 3 -15
27 -41 52 -33 34 -48 43 -51 32z m34 -59 c0 -5 -2 -10 -4 -10 -3 0 -8 5 -11
10 -3 6 -1 10 4 10 6 0 11 -4 11 -10z"></path>
<path d="M5365 8440 c-3 -5 -2 -18 3 -27 5 -10 13 -38 17 -63 7 -47 29 -90 45
-90 5 0 32 -14 61 -31 l52 -30 28 27 c16 15 29 32 29 37 0 5 -15 26 -32 47
-18 20 -52 60 -76 89 -38 45 -47 51 -82 51 -21 0 -42 -4 -45 -10z m137 -95
c83 -97 70 -132 -28 -76 -44 26 -53 36 -64 75 -27 99 10 99 92 1z"></path>
<path d="M4925 8410 c-4 -17 -18 -38 -31 -47 -23 -15 -30 -14 -106 11 -94 31
-95 30 -127 -51 -24 -61 -28 -56 84 -98 87 -33 85 -31 71 -110 l-7 -40 58 -23
58 -22 23 27 c12 16 28 27 36 25 7 -1 19 5 26 13 7 8 20 15 30 15 24 0 37 18
52 73 10 38 10 52 0 68 -7 11 -10 24 -7 28 2 5 -2 14 -10 21 -18 15 -20 51 -3
68 17 17 -5 35 -66 56 -67 22 -73 21 -81 -14z m84 -11 c25 -9 31 -17 31 -38 0
-16 9 -54 20 -85 27 -81 14 -120 -55 -156 -27 -14 -60 -32 -71 -40 -17 -10
-30 -11 -55 -4 -33 10 -34 12 -32 58 2 26 -1 56 -7 66 -5 10 -44 30 -86 46
l-76 27 6 36 c10 60 23 66 105 41 84 -26 121 -18 147 31 16 32 26 34 73 18z"></path>
<path d="M5311 8393 c-7 -21 -15 -44 -17 -50 -3 -7 11 -23 33 -35 37 -22 52
-23 44 -3 -2 6 -9 34 -15 64 -6 30 -16 56 -22 58 -6 2 -16 -13 -23 -34z"></path>
<path d="M4256 8308 c-16 -31 -16 -34 1 -45 25 -19 31 -16 53 19 21 34 18 42
-17 52 -17 6 -24 0 -37 -26z"></path>
<path d="M4397 8279 c-15 -34 -24 -65 -21 -70 12 -19 33 -7 39 22 4 18 16 35
30 41 32 14 40 39 19 55 -30 22 -40 15 -67 -48z"></path>
<path d="M4186 8154 l-29 -66 24 -19 c13 -10 27 -19 31 -19 3 0 20 30 37 67
30 62 30 67 15 85 -30 33 -48 22 -78 -48z"></path>
<path d="M5389 8193 c-9 -23 -7 -30 13 -45 31 -24 34 -23 51 12 15 28 14 31
-6 45 -31 22 -46 19 -58 -12z"></path>
<path d="M5273 8128 c-20 -36 -67 -143 -109 -253 -15 -38 -33 -77 -41 -87 -18
-20 -8 -28 57 -45 55 -14 58 -11 93 77 14 36 42 102 61 147 41 97 40 141 -4
173 -16 11 -30 20 -33 20 -3 0 -14 -15 -24 -32z m59 -50 c7 -21 1 -46 -32
-125 -72 -174 -77 -183 -104 -183 -14 0 -28 4 -31 10 -6 10 43 144 97 263 34
73 54 83 70 35z"></path>
<path d="M4353 8138 c-22 -36 -42 -82 -37 -87 7 -7 94 -30 117 -31 28 0 19 28
-14 46 -24 12 -30 20 -25 37 9 34 -24 62 -41 35z"></path>
<path d="M5499 8077 c-94 -71 -112 -95 -153 -212 -16 -44 -33 -85 -38 -92 -16
-20 -2 -30 52 -37 51 -7 64 -22 36 -45 -10 -8 -24 -7 -56 4 -24 9 -47 12 -50
8 -13 -14 -30 -75 -24 -84 11 -18 88 -49 97 -40 13 13 0 31 -22 31 -24 0 -45
26 -37 45 5 13 15 15 50 10 40 -6 46 -5 61 18 15 24 15 27 0 51 -10 14 -26 26
-36 26 -11 0 -22 6 -25 14 -7 18 29 128 59 182 24 41 142 138 158 129 5 -3 -4
-25 -19 -47 l-27 -42 0 -222 c0 -122 -3 -225 -6 -228 -3 -4 -22 5 -42 18 -57
39 -75 47 -82 36 -3 -5 12 -18 33 -29 22 -11 42 -26 45 -33 5 -14 74 -54 81
-47 2 2 0 65 -4 139 -19 293 -10 372 49 424 26 23 26 37 4 65 l-18 21 -86 -63z"></path>
<path d="M3782 8100 c-25 -15 -32 -25 -27 -38 7 -17 64 -187 71 -209 2 -10
188 93 231 128 19 17 17 76 -4 87 -31 17 -172 52 -206 52 -17 0 -47 -9 -65
-20z m149 -21 c95 -24 111 -34 107 -62 -3 -21 -150 -117 -179 -117 -11 0 -24
19 -37 58 -36 96 -37 108 -11 126 29 20 19 20 120 -5z"></path>
<path d="M3656 8038 c-28 -14 -51 -19 -77 -15 -41 5 -54 -4 -80 -55 -8 -15
-34 -60 -59 -99 -25 -40 -67 -110 -95 -156 -167 -278 -230 -380 -242 -395 -8
-9 -12 -21 -8 -27 10 -16 172 -141 183 -141 5 0 15 7 22 15 10 12 10 18 -1 31
-11 14 -10 20 14 40 16 13 36 24 45 24 24 0 98 78 162 170 29 41 65 89 81 106
l29 30 -22 21 c-36 32 -108 75 -121 70 -7 -2 12 -21 41 -41 53 -39 64 -64 37
-86 -8 -7 -39 -47 -69 -89 -57 -81 -136 -161 -160 -161 -8 0 -30 -19 -49 -42
l-35 -42 -57 44 c-32 24 -59 49 -62 56 -4 10 46 96 247 424 46 74 102 167 125
205 35 58 46 70 66 68 13 -1 44 5 69 13 35 11 46 12 55 2 22 -24 57 -179 50
-217 -6 -34 -79 -141 -95 -141 -5 0 -22 11 -38 25 -31 26 -52 32 -52 16 0 -10
82 -81 93 -81 3 0 30 31 61 70 72 93 75 115 34 259 -18 63 -37 116 -43 117 -5
2 -28 -6 -49 -18z"></path>
<path d="M4115 7957 c-16 -12 -73 -54 -125 -93 -52 -39 -112 -81 -132 -93 -31
-19 -138 -138 -138 -154 0 -8 101 -80 139 -99 48 -25 127 -34 147 -18 17 15
20 20 115 256 75 186 83 224 47 223 -13 0 -36 -10 -53 -22z m39 -26 c6 -9 -73
-212 -133 -345 -28 -63 -31 -66 -64 -66 -19 0 -50 6 -68 14 -52 22 -119 74
-119 93 0 26 67 101 123 137 29 18 95 65 147 105 98 73 105 77 114 62z"></path>
<path d="M4237 7938 c-9 -18 -24 -45 -34 -60 -27 -43 -6 -55 50 -30 56 25 61
33 42 68 -8 16 -15 35 -15 42 0 24 -27 12 -43 -20z"></path>
<path d="M4386 7931 c-3 -4 1 -26 8 -47 21 -60 46 -149 46 -165 0 -23 86 -231
118 -285 15 -27 38 -74 51 -104 13 -30 26 -59 30 -63 4 -4 30 2 57 14 27 11
86 34 131 51 45 16 86 35 92 42 6 7 24 86 40 176 24 130 28 167 18 175 -6 6
-50 24 -97 40 -161 53 -452 155 -470 165 -10 6 -21 6 -24 1z m324 -135 c124
-43 231 -83 238 -90 10 -10 7 -40 -14 -157 -14 -79 -30 -149 -36 -156 -10 -12
-236 -98 -242 -92 -13 14 -113 219 -143 293 -32 79 -83 251 -83 278 0 16 40 5
280 -76z"></path>
<path d="M4258 7817 c-31 -12 -62 -27 -68 -32 -5 -6 -33 -67 -61 -135 -28 -69
-56 -131 -62 -139 -16 -19 6 -33 116 -72 51 -18 97 -35 102 -39 6 -4 64 -26
130 -50 66 -24 125 -48 132 -52 29 -22 17 18 -42 133 -61 120 -125 303 -125
358 0 55 -32 63 -122 28z m95 -47 c30 -117 72 -237 111 -317 26 -53 41 -95 35
-98 -9 -6 -375 129 -392 145 -8 7 74 224 97 256 16 21 93 54 121 51 13 -1 22
-13 28 -37z"></path>
<path d="M5032 7717 c-6 -7 -20 -69 -32 -137 -12 -69 -24 -140 -27 -159 -5
-30 -4 -34 12 -27 10 3 46 14 81 22 35 9 68 21 73 28 17 22 92 239 84 246 -12
10 -129 40 -157 40 -13 0 -28 -6 -34 -13z m141 -38 c9 -5 17 -16 17 -23 0 -27
-61 -174 -78 -189 -21 -18 -94 -39 -103 -29 -9 10 30 234 44 250 12 15 86 9
120 -9z"></path>
<path d="M3516 7691 c-4 -5 -2 -12 3 -15 5 -4 12 -2 15 3 4 5 2 12 -3 15 -5 4
-12 2 -15 -3z"></path>
<path d="M3687 7583 c-2 -5 0 -69 4 -143 4 -74 8 -165 8 -202 1 -48 5 -68 14
-68 20 0 134 79 186 129 27 25 61 67 75 93 32 57 29 59 -80 78 -65 12 -78 18
-132 66 -62 56 -68 59 -75 47z m80 -87 c41 -34 62 -43 121 -51 29 -4 56 -13
58 -20 9 -23 -23 -71 -83 -124 -76 -66 -121 -91 -132 -72 -9 14 -22 271 -14
284 7 12 20 8 50 -17z"></path>
<path d="M5230 7560 c-6 -10 -10 -29 -10 -42 -1 -13 -7 -40 -15 -61 -12 -34
-11 -42 3 -68 16 -29 16 -31 -3 -45 -13 -10 -33 -14 -58 -11 -32 4 -40 2 -48
-16 -16 -38 -99 -471 -91 -478 4 -4 72 -34 152 -68 111 -46 148 -57 156 -48 6
7 21 46 33 87 12 41 46 152 76 245 112 353 116 368 103 381 -7 6 -75 41 -151
77 -128 61 -138 64 -147 47z m160 -83 c82 -41 106 -57 108 -74 2 -13 -30 -130
-72 -260 -41 -131 -85 -271 -97 -311 -12 -40 -26 -75 -31 -78 -11 -7 -236 82
-255 100 -15 14 62 412 85 439 8 9 27 17 42 17 53 0 65 20 65 108 1 78 13 113
39 111 6 0 58 -24 116 -52z"></path>
<path d="M3570 7433 c-36 -42 -96 -113 -135 -157 -148 -172 -158 -185 -146
-200 18 -21 336 -16 357 6 14 14 15 41 9 222 -4 113 -10 206 -14 206 -4 0 -36
-34 -71 -77z m61 -154 c4 -79 2 -152 -2 -161 -13 -23 -55 -30 -184 -26 -72 2
-110 7 -110 14 0 6 45 64 100 130 148 175 167 195 179 191 7 -2 13 -57 17
-148z"></path>
<path d="M4135 7390 c-4 -6 -39 -32 -78 -59 -229 -152 -328 -235 -313 -259 3
-5 41 -13 83 -17 126 -11 258 -48 372 -104 65 -32 123 -53 155 -57 l51 -6 51
63 c28 35 70 91 94 124 24 33 57 74 72 91 23 24 26 33 16 41 -7 6 -71 33 -143
61 -378 148 -350 138 -360 122z m136 -63 c46 -19 135 -53 197 -77 62 -24 117
-48 122 -55 7 -8 -20 -51 -88 -141 -123 -163 -118 -162 -300 -76 -123 59 -277
102 -360 102 -40 0 -58 22 -34 42 15 13 249 179 312 221 34 24 55 22 151 -16z"></path>
<path d="M4900 7305 c-25 -13 -53 -24 -62 -25 -31 0 -40 -35 -24 -85 9 -24 24
-77 35 -117 34 -124 37 -131 53 -142 20 -12 68 17 68 41 0 9 16 82 36 162 l36
146 -27 22 c-33 29 -58 28 -115 -2z m99 -19 c9 -11 4 -45 -23 -156 -34 -142
-48 -173 -65 -154 -11 12 -71 223 -71 251 0 16 13 28 53 47 60 28 90 32 106
12z"></path>
<path d="M4681 7133 c-34 -32 -183 -271 -173 -276 41 -23 98 -15 209 29 34 13
71 24 82 24 11 0 22 4 25 8 3 5 -12 53 -34 108 -21 54 -41 107 -44 117 -8 25
-31 21 -65 -10z m76 -99 c17 -43 31 -83 30 -87 -3 -12 -143 -66 -188 -73 -21
-4 -39 -2 -43 4 -3 6 21 55 55 109 69 111 88 135 103 130 6 -2 25 -39 43 -83z"></path>
<path d="M2965 7015 c-21 -47 -36 -87 -34 -90 3 -2 38 7 79 21 41 13 80 24 87
24 31 0 21 26 -28 76 -29 30 -56 54 -60 54 -3 0 -23 -38 -44 -85z m79 16 c21
-23 14 -38 -22 -52 -34 -13 -42 -1 -26 39 16 37 24 39 48 13z"></path>
<path d="M3337 7018 c-51 -14 -62 -43 -43 -112 32 -114 41 -136 51 -136 12 1
156 195 162 220 4 14 -4 19 -34 23 -21 3 -51 8 -68 11 -16 2 -47 0 -68 -6z
m97 -28 c14 -5 26 -14 26 -21 0 -17 -90 -129 -104 -129 -18 0 -39 51 -40 97
-1 30 4 39 24 50 30 15 60 16 94 3z"></path>
<path d="M3598 6978 c-43 -56 -198 -299 -198 -309 0 -5 20 -52 45 -105 l44
-95 188 6 c103 4 194 8 201 10 6 3 12 18 12 34 0 21 10 41 33 64 l34 33 -46
184 c-25 102 -50 191 -54 198 -6 8 -42 12 -121 12 l-114 0 -24 -32z m240 -10
c11 -14 82 -305 82 -336 0 -11 -7 -25 -16 -33 -9 -7 -23 -29 -32 -48 l-17 -36
-105 -8 c-58 -4 -136 -6 -175 -5 l-70 3 -37 75 c-20 41 -37 80 -38 87 0 6 45
79 100 162 l100 151 99 0 c67 0 102 -4 109 -12z"></path>
<path d="M3918 6995 c-3 -3 1 -31 9 -63 7 -31 24 -110 38 -176 13 -65 26 -121
29 -123 3 -3 22 -7 43 -8 28 -2 44 -10 65 -35 15 -18 28 -42 30 -54 3 -20 10
-21 142 -24 77 -1 143 1 147 5 3 4 3 41 -2 82 -9 70 -13 77 -75 156 -36 45
-86 96 -112 113 -120 76 -156 95 -215 107 -34 7 -69 16 -78 19 -8 4 -18 4 -21
1z m127 -55 c17 -4 72 -32 122 -63 68 -43 104 -74 145 -124 72 -90 80 -105 76
-161 l-3 -47 -107 -3 -107 -3 -31 43 c-32 44 -63 67 -91 68 -9 0 -22 7 -29 15
-13 16 -71 276 -63 287 4 8 20 5 88 -12z"></path>
<path d="M3043 6912 c-73 -31 -133 -60 -133 -63 0 -4 28 -23 63 -42 34 -18
115 -64 180 -100 64 -37 122 -67 127 -67 13 0 13 3 -9 153 -15 104 -23 133
-42 153 -12 13 -30 24 -38 23 -9 -1 -76 -26 -148 -57z m173 3 c19 -29 46 -206
34 -219 -7 -7 -80 29 -237 120 -18 11 -33 24 -33 30 0 10 181 91 207 93 7 1
20 -10 29 -24z"></path>
<path d="M4687 6841 c-37 -8 -66 -20 -64 -25 2 -5 27 -16 56 -24 l52 -15 29
34 c47 55 42 58 -73 30z"></path>
<path d="M4780 6795 c-66 -64 -58 -63 -195 -10 -46 18 -86 31 -88 28 -3 -2 -1
-19 3 -36 4 -18 16 -80 25 -139 10 -60 21 -108 25 -108 4 0 30 30 58 68 29 37
63 80 76 96 l24 29 12 -22 c7 -13 8 -35 4 -54 -6 -29 -5 -30 11 -17 11 9 15
23 12 39 -3 14 -7 35 -9 45 -2 14 14 33 56 64 67 52 89 49 94 -12 5 -51 22
-45 22 8 0 35 -5 48 -22 60 -34 24 -45 20 -108 -39z m-152 -56 l43 -19 -47
-57 c-25 -32 -52 -58 -58 -58 -11 0 -38 143 -29 158 5 9 30 3 91 -24z"></path>
<path d="M4951 6754 c-33 -42 -27 -63 8 -30 l29 28 134 -57 c73 -31 138 -62
145 -68 10 -9 0 -49 -43 -182 -30 -93 -59 -174 -64 -180 -6 -8 -39 -10 -93 -7
-71 4 -90 1 -125 -17 -51 -26 -52 -26 -52 -1 0 34 32 104 66 142 35 39 64 89
64 110 0 16 -18 -2 -65 -67 -44 -62 -81 -140 -91 -191 -3 -22 -16 -49 -27 -61
-11 -13 -17 -26 -13 -30 4 -4 12 0 17 9 5 8 43 32 85 53 75 36 79 36 159 30
64 -6 84 -4 91 6 9 14 133 378 134 392 0 4 -24 18 -52 31 -110 51 -266 116
-276 116 -6 0 -20 -12 -31 -26z"></path>
<path d="M2782 6673 c-80 -154 -140 -265 -158 -294 -21 -34 -22 -38 -6 -51 19
-16 158 -98 166 -98 3 0 43 -22 90 -50 89 -52 106 -60 86 -35 -10 13 -76 53
-155 95 -82 44 -165 93 -170 100 -3 5 33 80 80 167 77 142 94 183 80 183 -2 0
-8 -8 -13 -17z"></path>
<path d="M2966 6678 c-21 -80 -25 -120 -20 -200 10 -181 7 -172 76 -208 50
-26 63 -29 73 -18 6 7 53 68 103 135 86 114 90 122 73 137 -10 9 -20 16 -23
16 -3 0 -59 34 -125 75 -116 74 -150 87 -157 63z m159 -96 c61 -38 111 -75
112 -83 4 -18 -148 -213 -168 -217 -8 -1 -31 8 -50 21 -31 21 -35 28 -42 92
-9 77 -5 224 7 243 12 20 27 14 141 -56z"></path>
<path d="M4960 6630 c0 -12 28 -25 36 -17 3 3 -4 10 -15 17 -15 7 -21 7 -21 0z"></path>
<path d="M4613 6518 l-93 -81 0 -61 c0 -34 -3 -71 -6 -83 -10 -38 14 -26 31
14 11 25 14 51 9 77 -6 37 -4 40 51 90 142 126 141 126 120 125 -11 0 -62 -37
-112 -81z"></path>
<path d="M4830 6584 c0 -11 34 -33 50 -33 10 0 8 6 -9 19 -23 20 -41 26 -41
14z"></path>
<path d="M4810 6540 c0 -10 32 -30 49 -30 20 0 11 17 -14 28 -31 14 -35 15
-35 2z"></path>
<path d="M2847 6469 c-35 -47 -46 -82 -29 -93 4 -2 24 -7 45 -11 l38 -7 -4 76
c-2 42 -6 78 -8 81 -3 2 -21 -18 -42 -46z m21 -56 c-4 -22 -22 -20 -26 1 -2
10 3 16 13 16 10 0 15 -7 13 -17z"></path>
<path d="M4947 6499 c-19 -11 -73 -116 -65 -125 3 -2 26 27 51 66 46 70 48 78
14 59z"></path>
<path d="M3357 6473 c-4 -3 -7 -28 -7 -55 0 -36 16 -90 61 -206 34 -86 86
-220 115 -297 98 -260 88 -240 126 -239 18 1 80 3 138 4 58 2 108 5 112 7 4 2
-9 36 -27 76 -23 47 -40 106 -51 172 l-16 100 -57 60 c-32 33 -85 101 -119
150 -33 50 -92 123 -129 163 -60 63 -73 72 -104 72 -20 0 -39 -3 -42 -7z m140
-100 c38 -43 93 -112 121 -155 28 -42 77 -104 108 -137 56 -61 57 -63 74 -160
10 -54 28 -120 39 -147 12 -26 18 -51 13 -56 -5 -5 -55 -10 -112 -11 l-104 -2
-47 120 c-122 310 -207 535 -214 564 -8 36 7 61 35 61 9 0 49 -35 87 -77z"></path>
<path d="M4133 6443 c-4 -11 3 -24 21 -38 33 -26 21 -40 -24 -30 -25 6 -31 3
-41 -19 -10 -20 -7 -44 14 -128 14 -57 29 -124 32 -150 4 -27 12 -48 19 -48 6
0 38 45 71 100 33 55 89 146 124 203 35 56 65 108 68 115 4 9 -27 12 -136 12
-123 0 -142 -2 -148 -17z m211 -9 c9 -3 16 -11 16 -18 0 -21 -177 -301 -190
-301 -16 0 -67 193 -57 218 4 11 18 17 35 17 38 0 57 22 43 48 -7 13 -7 22 1
30 12 12 125 17 152 6z"></path>
<path d="M3618 6433 c-38 -2 -68 -6 -68 -9 0 -6 44 -55 260 -284 l134 -144 86
1 c67 0 85 3 83 14 -1 11 -76 303 -89 347 -2 6 -19 12 -38 12 -28 0 -41 7 -63
35 l-28 35 -105 -2 c-58 -1 -135 -3 -172 -5z m295 -58 c22 -19 48 -35 58 -35
9 0 21 -6 26 -12 15 -19 85 -287 78 -298 -4 -6 -30 -10 -58 -10 l-52 0 -118
122 c-168 173 -230 246 -222 258 4 6 54 10 127 10 l120 0 41 -35z"></path>
<path d="M4427 6368 c-14 -29 -54 -105 -90 -168 -36 -63 -63 -118 -60 -122 6
-11 88 43 112 74 12 15 36 57 55 95 26 55 32 77 28 113 -6 66 -17 68 -45 8z
m-27 -147 c-11 -23 -25 -41 -30 -41 -14 0 -13 1 17 56 32 57 43 44 13 -15z"></path>
<path d="M4767 6352 c-15 -23 -23 -44 -18 -47 11 -6 54 61 49 76 -2 6 -16 -7
-31 -29z"></path>
<path d="M4837 6305 c-19 -41 -20 -45 -9 -45 7 0 42 63 42 75 0 17 -19 -1 -33
-30z"></path>
<path d="M3194 6283 c-21 -27 -51 -62 -67 -80 -28 -30 -29 -32 -13 -54 21 -31
20 -53 -4 -119 -11 -30 -20 -58 -20 -62 0 -9 74 -48 90 -48 5 0 10 11 10 24 0
24 61 285 79 338 9 27 -2 48 -25 48 -7 0 -30 -21 -50 -47z m9 -155 c-34 -142
-55 -190 -69 -154 -3 9 1 43 10 76 12 44 14 65 6 79 -5 11 -10 26 -10 34 0 18
80 118 90 112 4 -2 -8 -69 -27 -147z"></path>
<path d="M4795 6309 c-4 -6 -5 -12 -2 -15 2 -3 7 2 10 11 7 17 1 20 -8 4z"></path>
<path d="M3281 6092 c-71 -304 -92 -405 -87 -417 2 -6 40 -26 83 -43 61 -25
95 -32 146 -32 59 0 68 3 86 26 38 48 38 48 -91 408 -43 121 -78 226 -78 233
0 7 -3 13 -7 13 -5 0 -28 -84 -52 -188z m131 -114 c81 -228 95 -279 82 -316
-9 -25 -14 -27 -74 -30 -51 -2 -78 3 -125 22 -33 13 -64 30 -69 38 -11 19 93
468 109 468 6 0 41 -82 77 -182z"></path>
<path d="M4510 6238 c-47 -30 -84 -86 -74 -112 10 -25 24 -18 24 11 0 19 14
40 52 75 28 26 50 49 47 51 -2 2 -24 -9 -49 -25z"></path>
<path d="M1802 6088 c-35 -68 -87 -168 -115 -223 -121 -229 -209 -400 -292
-560 -48 -93 -100 -192 -115 -220 -33 -60 -139 -264 -262 -505 -50 -96 -93
-179 -98 -185 -4 -5 -50 -93 -102 -195 -53 -102 -119 -230 -148 -285 -62 -117
-139 -265 -240 -460 -269 -518 -333 -641 -341 -650 -20 -21 -6 -41 44 -66 28
-14 135 -68 237 -121 102 -52 302 -155 445 -228 143 -73 287 -147 320 -165
153 -83 634 -325 646 -325 25 0 -6 18 -246 140 -132 68 -368 189 -525 270
-157 81 -406 209 -555 285 -295 151 -345 180 -345 196 0 6 29 66 64 133 35 66
92 175 126 241 35 66 84 161 110 210 26 50 83 160 127 245 93 180 312 602 386
740 27 52 77 147 110 210 99 191 186 359 247 475 32 61 120 229 195 375 76
146 157 301 180 345 23 44 81 155 129 248 54 103 93 167 103 167 8 0 204 -94
435 -210 231 -115 422 -210 424 -210 2 0 4 4 4 9 0 9 -857 441 -875 441 -6 0
-39 -55 -73 -122z"></path>
<path d="M4914 6160 c-34 -15 -65 -33 -68 -39 -4 -6 8 -20 28 -32 20 -12 36
-27 36 -35 0 -8 5 -14 10 -14 17 0 11 26 -10 45 -11 10 -20 22 -20 27 0 19 93
48 156 48 56 0 64 -2 64 -19 0 -26 -78 -181 -91 -181 -5 0 -29 9 -51 20 -49
24 -48 23 -48 7 0 -7 24 -25 54 -39 l54 -27 24 37 c13 20 30 53 38 72 7 19 22
47 32 62 21 30 23 69 6 86 -7 7 -40 12 -82 11 -56 0 -84 -7 -132 -29z"></path>
<path d="M2936 6055 c-15 -27 -54 -99 -87 -159 -33 -60 -57 -111 -54 -115 8
-7 10 -3 103 168 40 73 71 139 69 145 -2 6 -16 -11 -31 -39z"></path>
<path d="M4322 6008 c-87 -86 -104 -108 -83 -108 8 0 98 -51 198 -111 l31 -20
22 31 c24 34 19 56 -5 24 -14 -18 -16 -18 -89 21 -42 22 -86 47 -98 57 l-23
17 25 26 c14 15 35 31 48 36 12 5 25 17 29 26 4 10 17 32 30 50 49 64 4 39
-85 -49z"></path>
<path d="M4416 6028 c-17 -24 -21 -48 -8 -48 5 0 13 16 19 35 13 41 10 44 -11
13z"></path>
<path d="M1877 5958 c-14 -24 -63 -113 -109 -198 -194 -355 -267 -487 -287
-524 -13 -22 -18 -43 -13 -48 12 -12 74 16 116 52 53 47 122 63 252 58 119 -4
150 -16 205 -75 38 -40 129 -175 129 -190 0 -24 75 -96 155 -148 82 -53 138
-97 273 -218 75 -67 78 -68 120 -62 23 3 59 13 80 22 20 9 61 19 91 22 l53 6
17 65 c9 36 29 83 44 104 15 21 27 45 27 53 0 19 -69 48 -158 66 -49 10 -114
36 -194 77 -154 78 -241 137 -289 195 -33 40 -39 54 -39 95 0 41 4 52 29 73
16 13 50 29 75 36 44 11 49 10 116 -24 39 -20 99 -46 133 -59 34 -13 80 -30
102 -39 75 -28 160 -50 225 -57 36 -4 73 -11 82 -15 14 -6 23 6 48 59 16 37
30 71 30 76 0 6 5 19 12 29 9 15 6 28 -21 72 -48 78 -66 95 -130 119 -31 12
-68 28 -83 36 -29 15 -96 17 -171 5 -106 -17 -268 48 -730 295 -87 46 -159 84
-161 84 -2 0 -15 -19 -29 -42z m202 -77 c202 -109 207 -112 376 -191 188 -87
281 -109 383 -91 67 13 67 13 157 -23 99 -41 127 -62 157 -120 23 -45 21 -76
-11 -148 -20 -48 -21 -48 -68 -48 -90 1 -297 67 -471 150 -45 22 -97 40 -115
40 -42 0 -132 -43 -146 -69 -16 -28 -14 -117 3 -149 18 -33 74 -87 143 -135
87 -61 302 -163 370 -176 78 -15 133 -37 133 -54 0 -6 -14 -39 -30 -71 -17
-32 -30 -67 -30 -77 0 -10 -6 -21 -12 -26 -17 -11 -199 -63 -219 -63 -10 0
-46 26 -82 58 -117 103 -170 146 -252 200 -99 66 -150 115 -177 167 -37 71
-120 185 -157 214 -54 42 -93 51 -220 51 -134 0 -182 -10 -233 -51 -77 -61
-74 -38 16 123 35 62 109 196 164 298 131 240 149 270 163 270 6 0 77 -36 158
-79z"></path>
<path d="M3866 5982 c-9 -15 24 -129 59 -200 19 -39 36 -72 38 -72 2 0 19 24
37 53 18 28 49 71 68 95 19 24 32 45 30 47 -2 2 -31 7 -64 11 -42 5 -74 17
-111 40 -29 18 -54 30 -57 26z m107 -78 c29 -9 56 -20 61 -25 11 -9 -51 -99
-68 -99 -11 0 -66 113 -66 135 0 9 20 6 73 -11z"></path>
<path d="M4862 5954 c-20 -24 -28 -26 -75 -21 -56 5 -97 -12 -97 -41 0 -12 5
-11 24 7 17 16 30 20 50 15 53 -13 136 21 136 56 0 17 -14 11 -38 -16z"></path>
<path d="M4383 5945 c15 -14 33 -25 40 -25 7 0 -1 12 -16 25 -15 14 -33 25
-40 25 -7 0 1 -12 16 -25z"></path>
<path d="M4857 5899 c-22 -11 -52 -19 -70 -17 -23 2 -31 -1 -29 -10 1 -8 5
-35 9 -60 6 -47 53 -130 93 -167 18 -16 23 -17 35 -4 15 15 105 215 105 233 0
10 -83 47 -100 46 -3 -1 -22 -10 -43 -21z m93 -27 l22 -18 -43 -89 c-24 -49
-48 -89 -54 -88 -5 0 -25 21 -43 46 -23 32 -34 59 -35 87 -2 41 -1 42 43 60
58 24 82 24 110 2z"></path>
<path d="M4142 5878 c-7 -7 -12 -16 -12 -21 0 -11 -92 -177 -122 -221 l-20
-28 38 -39 c21 -21 42 -39 46 -39 8 0 38 53 38 67 0 4 -5 2 -12 -5 -16 -16
-43 -15 -58 3 -10 12 -1 35 53 132 35 64 69 119 74 120 5 2 45 -18 89 -45 70
-43 79 -52 76 -75 -3 -33 8 -34 37 -3 l23 24 -43 27 c-24 15 -60 37 -79 50
-50 32 -107 65 -112 65 -2 0 -9 -5 -16 -12z"></path>
<path d="M3011 5830 c-17 -28 -31 -54 -31 -58 0 -9 178 -98 184 -91 2 2 5 47
7 99 l4 95 -66 3 -67 3 -31 -51z m137 -27 c2 -23 -2 -51 -8 -63 -11 -20 -11
-20 -60 5 -61 31 -65 37 -45 75 15 29 19 31 63 28 l47 -3 3 -42z"></path>
<path d="M4598 5853 c-25 -30 -128 -222 -128 -239 0 -2 4 -4 8 -4 5 0 37 52
72 116 34 63 69 118 76 121 8 3 14 9 14 14 0 15 -26 10 -42 -8z"></path>
<path d="M4648 5823 c-14 -21 -31 -55 -39 -76 -7 -21 -33 -61 -56 -89 -31 -35
-43 -59 -43 -81 0 -18 -9 -40 -22 -54 -18 -19 -19 -23 -5 -23 20 0 47 38 47
66 0 13 16 42 35 66 19 24 52 76 72 116 21 39 41 72 45 72 4 0 8 -13 8 -28 0
-44 49 -132 102 -182 26 -25 48 -51 48 -57 0 -7 -15 -45 -33 -85 -19 -40 -55
-128 -81 -196 -46 -118 -85 -182 -110 -182 -23 0 -286 283 -286 309 0 9 16 40
35 70 40 60 40 61 21 61 -12 0 -96 -118 -96 -135 0 -8 214 -247 269 -299 36
-35 44 -39 68 -30 37 13 65 57 112 177 21 56 55 136 74 177 32 70 67 150 67
155 0 1 -21 16 -46 35 -61 44 -114 126 -114 179 0 81 -31 95 -72 34z"></path>
<path d="M4456 5693 c-20 -37 -34 -69 -31 -71 10 -10 36 22 60 75 28 63 28 63
16 63 -5 0 -26 -30 -45 -67z"></path>
<path d="M4332 5668 c6 -18 57 -53 65 -44 4 4 -6 18 -22 31 -33 27 -49 32 -43
13z"></path>
<path d="M3654 5629 c-29 -32 -36 -108 -17 -166 20 -58 95 -118 221 -178 52
-25 97 -45 100 -44 4 0 27 30 51 66 43 66 43 67 27 95 -13 21 -14 32 -6 48 9
18 3 29 -47 86 -76 86 -115 106 -223 111 -80 5 -86 4 -106 -18z m221 -31 c17
-9 51 -40 76 -70 40 -47 47 -62 53 -113 7 -58 6 -61 -27 -100 l-34 -39 -62 27
c-91 40 -169 94 -199 140 -22 32 -27 52 -26 94 2 79 12 86 109 81 46 -3 93
-11 110 -20z"></path>
<path d="M4466 5574 c-11 -27 -7 -37 9 -24 16 14 20 40 6 40 -5 0 -12 -7 -15
-16z"></path>
<path d="M3384 5540 c-75 -37 -144 -108 -144 -147 0 -16 -12 -59 -25 -98 -14
-38 -25 -71 -25 -72 0 -1 28 -4 63 -6 81 -7 285 -74 414 -138 88 -43 118 -65
209 -152 62 -59 126 -131 151 -170 24 -38 48 -65 54 -61 6 3 8 13 5 21 -4 9
-15 81 -26 162 -22 156 -39 218 -76 267 -24 32 -129 88 -224 119 -37 12 -71
34 -107 68 -64 61 -90 101 -113 175 -17 55 -19 57 -56 60 -28 2 -57 -6 -100
-28z m121 -12 c35 -101 51 -132 99 -184 58 -64 79 -77 201 -124 162 -63 195
-106 221 -291 9 -61 12 -114 9 -117 -4 -4 -37 26 -73 67 -89 99 -191 179 -293
229 -93 46 -353 132 -399 132 -36 0 -42 10 -31 46 6 16 17 55 25 86 11 36 28
68 48 89 59 58 181 100 193 67z"></path>
<path d="M4125 5547 c4 -15 1 -28 -9 -36 -24 -20 -20 -28 25 -57 l42 -26 23
29 c76 90 85 103 72 103 -8 0 -31 -21 -52 -46 -27 -32 -44 -44 -59 -42 -20 3
-22 8 -19 51 3 38 1 47 -12 47 -12 0 -15 -6 -11 -23z"></path>
<path d="M4300 5562 c0 -5 7 -15 15 -22 12 -10 19 -10 27 -2 14 14 11 17 -19
26 -13 4 -23 3 -23 -2z"></path>
<path d="M4163 5358 c-18 -11 -33 -24 -33 -29 0 -4 -20 -43 -45 -84 l-45 -76
34 -48 c31 -46 33 -55 39 -160 5 -87 12 -124 33 -173 36 -86 78 -144 126 -175
37 -23 49 -25 118 -21 100 6 117 19 145 106 12 37 32 82 44 99 24 32 47 170
31 186 -4 5 -35 11 -69 14 -52 5 -73 2 -132 -22 -95 -37 -104 -32 -94 53 14
123 2 243 -29 285 -16 22 -81 70 -89 66 -1 0 -17 -10 -34 -21z m80 -38 c40
-32 51 -81 50 -225 -2 -179 3 -184 140 -140 77 25 116 25 145 2 19 -15 4 -104
-28 -162 -16 -27 -34 -69 -41 -93 -16 -56 -47 -79 -113 -87 -93 -12 -156 35
-215 160 -28 59 -51 181 -51 269 0 28 -8 54 -25 78 -14 20 -25 42 -25 49 0 16
58 119 83 147 25 27 47 28 80 2z"></path>
<path d="M2460 5310 c-32 -45 -21 -89 34 -137 44 -38 63 -47 232 -108 51 -19
110 -43 132 -54 54 -27 173 -39 190 -19 14 18 62 160 56 169 -2 4 -25 10 -51
14 -103 15 -215 47 -310 89 -89 39 -209 76 -247 76 -8 0 -24 -14 -36 -30z
m125 -9 c39 -10 111 -37 160 -59 82 -37 237 -82 283 -82 10 0 26 -6 35 -12 15
-12 16 -17 2 -62 -20 -66 -40 -86 -84 -86 -37 1 -50 5 -266 87 -157 60 -182
73 -217 110 -38 40 -45 76 -19 102 25 25 19 25 106 2z"></path>
<path d="M1588 5201 c-37 -25 -67 -50 -68 -55 0 -16 51 -140 65 -156 20 -24
85 -155 85 -171 0 -18 136 -149 204 -196 l46 -33 55 37 c52 34 63 37 163 45
59 4 113 10 120 13 8 3 12 31 12 89 0 80 -2 87 -25 102 -14 9 -63 74 -110 143
-68 103 -97 137 -151 179 l-68 52 -130 -1 -131 -1 -67 -47z m381 -28 c49 -36
80 -72 141 -162 43 -64 89 -127 104 -140 23 -22 26 -32 26 -92 0 -37 -5 -71
-10 -74 -6 -4 -52 -9 -103 -12 -77 -5 -101 -10 -148 -36 l-57 -30 -48 31 c-88
56 -160 140 -215 247 -28 55 -61 120 -74 145 -42 83 -42 83 22 129 l58 41 121
0 120 0 63 -47z"></path>
<path d="M3172 5153 c-15 -31 -44 -162 -37 -173 3 -5 12 -10 19 -10 16 0 370
-131 407 -150 13 -7 50 -34 81 -59 43 -34 63 -59 77 -96 11 -27 39 -99 62
-160 46 -120 72 -153 137 -174 58 -19 104 -2 146 56 34 47 63 156 47 177 -222
291 -286 360 -405 436 -106 66 -212 106 -379 141 -76 16 -140 29 -142 29 -2 0
-8 -8 -13 -17z m147 -29 c121 -23 272 -79 366 -135 94 -56 188 -148 314 -309
82 -104 91 -119 91 -158 0 -80 -53 -164 -112 -177 -39 -9 -112 27 -135 68 -19
33 -38 80 -93 224 -26 69 -40 90 -83 128 -69 61 -118 86 -327 162 -96 35 -178
67 -182 71 -6 6 11 89 27 130 6 16 30 15 134 -4z"></path>
<path d="M1412 5108 c-11 -18 -41 -73 -67 -123 -27 -49 -65 -119 -85 -155 -52
-90 -185 -330 -231 -418 -21 -40 -65 -119 -97 -175 -32 -56 -103 -183 -157
-282 -54 -99 -116 -211 -137 -248 -29 -49 -38 -75 -34 -93 4 -13 10 -24 14
-24 4 0 23 28 41 63 19 34 69 123 111 197 42 74 79 140 81 145 2 6 38 71 80
145 42 74 112 198 154 275 72 130 163 292 321 573 35 63 64 119 64 127 0 10
-20 25 -35 25 -2 0 -12 -15 -23 -32z"></path>
<path d="M1472 5024 c-10 -22 -43 -79 -72 -129 -29 -49 -64 -110 -78 -135 -29
-54 -142 -255 -226 -400 -33 -58 -70 -124 -82 -147 -22 -41 -52 -93 -248 -437
-53 -93 -95 -171 -93 -173 4 -3 381 56 469 74 28 6 72 39 179 133 l141 125
-63 57 -63 58 44 45 c24 25 48 45 53 45 5 0 30 -18 57 -41 27 -23 53 -39 59
-38 5 2 29 29 53 60 24 31 89 116 146 187 l103 131 -3 83 -3 82 -78 46 -78 46
-91 175 c-49 96 -93 178 -98 183 -5 4 -17 -9 -28 -30z m108 -176 c40 -79 80
-151 89 -161 9 -11 46 -37 83 -58 l68 -40 0 -74 0 -73 -132 -167 c-73 -92
-138 -169 -145 -172 -7 -3 -29 9 -48 26 -20 18 -47 31 -62 31 -32 0 -113 -78
-113 -109 0 -13 18 -38 45 -63 25 -23 45 -46 45 -52 0 -12 -198 -192 -240
-218 -14 -9 -110 -30 -218 -47 -215 -35 -222 -35 -222 -21 0 6 30 63 66 128
37 64 105 185 152 267 46 83 119 211 162 285 42 74 110 194 150 265 159 286
225 395 236 395 6 0 44 -64 84 -142z"></path>
<path d="M3069 4862 c-32 -74 -89 -229 -89 -241 0 -6 10 -11 23 -11 48 0 211
-42 259 -66 47 -24 51 -24 69 -8 21 19 49 12 49 -13 0 -12 23 -30 67 -53 36
-19 75 -47 86 -62 27 -36 34 -116 13 -156 -18 -34 -82 -82 -134 -100 -18 -6
-49 -25 -70 -42 -20 -18 -59 -44 -87 -59 -27 -14 -81 -44 -118 -65 l-68 -38
-110 11 c-115 11 -129 10 -129 -14 0 -14 197 -260 208 -260 9 1 57 29 136 79
33 22 113 63 176 91 229 104 270 125 350 185 45 33 86 60 91 60 16 0 49 89 49
130 0 28 -19 78 -69 177 -38 76 -77 161 -87 188 -9 28 -27 61 -38 74 -38 43
-162 129 -197 136 -52 11 -311 84 -337 95 -21 9 -24 6 -43 -38z m210 -37 c91
-25 181 -53 198 -62 56 -27 147 -107 165 -143 37 -76 166 -356 172 -374 10
-29 -22 -114 -47 -127 -12 -6 -53 -35 -92 -64 -58 -44 -356 -195 -384 -195 -4
0 -56 -29 -116 -65 -60 -36 -118 -65 -127 -65 -20 0 -168 172 -168 195 0 12
17 13 99 8 l98 -6 116 62 c63 34 137 79 164 101 26 22 55 40 63 40 28 0 130
71 145 100 19 37 19 133 1 168 -19 37 -63 76 -113 101 -23 12 -47 30 -53 41
-17 31 -45 42 -74 29 -21 -10 -34 -8 -73 9 -26 11 -88 28 -136 38 -49 9 -91
23 -94 30 -7 20 69 224 84 224 3 0 81 -20 172 -45z"></path>
<path d="M2328 4813 c-2 -5 -3 -39 -3 -77 l1 -69 69 -14 c39 -8 94 -23 123
-32 29 -10 55 -15 57 -10 8 11 -94 109 -160 155 -78 53 -83 56 -87 47z m103
-93 c63 -43 77 -67 33 -56 -15 4 -40 10 -58 13 -17 3 -37 10 -43 16 -19 14
-16 67 4 67 2 0 31 -18 64 -40z"></path>
<path d="M2110 4631 c-83 -23 -142 -53 -169 -87 -45 -58 -19 -100 102 -159 49
-25 94 -45 100 -45 6 0 45 -18 88 -40 69 -36 86 -40 149 -40 76 0 95 6 150 52
19 15 40 28 47 28 18 0 252 101 259 112 3 5 -5 22 -19 36 -13 15 -32 39 -42
54 l-17 28 -105 -6 c-113 -7 -133 -3 -315 57 -98 33 -136 34 -228 10z m191
-26 c137 -49 219 -65 328 -65 l109 0 26 -31 c14 -17 26 -34 26 -39 0 -15 -27
-30 -138 -74 -62 -25 -132 -59 -157 -76 -38 -26 -52 -30 -113 -30 -74 0 -103
11 -330 122 -118 57 -130 92 -52 146 81 54 218 76 301 47z"></path>
<path d="M3085 4530 c-22 -12 -59 -38 -83 -59 l-43 -38 28 -49 29 -49 61 -3
c79 -4 113 -36 121 -112 l5 -50 94 0 c105 0 135 10 177 60 51 61 24 151 -67
218 -43 33 -63 40 -115 46 -51 5 -119 27 -162 53 -3 2 -23 -6 -45 -17z m104
-40 c32 -10 83 -23 114 -28 130 -20 214 -155 140 -224 -43 -40 -67 -48 -137
-48 -69 0 -86 11 -86 59 0 12 -16 39 -36 61 -30 33 -43 40 -75 40 -55 0 -84
14 -99 49 -7 18 -11 33 -9 35 29 29 98 76 112 76 10 0 44 -9 76 -20z"></path>
<path d="M4183 4468 c-17 -18 -47 -60 -67 -94 -34 -59 -35 -62 -22 -104 15
-51 17 -52 180 -86 77 -16 123 -21 129 -15 6 6 -4 12 -29 16 -22 3 -82 15
-134 27 -102 21 -130 40 -130 85 0 32 49 119 89 157 l30 29 78 -23 c138 -41
155 -51 182 -109 14 -28 28 -51 33 -51 14 0 8 24 -20 75 -28 50 -29 50 -138
87 -60 20 -118 37 -130 38 -11 0 -34 -15 -51 -32z"></path>
<path d="M2618 4301 c-125 -64 -230 -119 -233 -122 -6 -7 10 -57 59 -189 22
-61 26 -65 57 -68 19 -2 67 4 107 14 62 15 79 25 109 57 59 66 111 188 123
292 6 50 13 97 16 107 3 9 1 18 -3 20 -4 2 -110 -48 -235 -111z m199 43 c13
-34 -18 -158 -58 -236 -52 -98 -88 -131 -165 -147 -99 -21 -104 -18 -141 79
-18 47 -32 96 -30 109 2 20 29 38 187 117 102 51 189 93 193 94 4 0 10 -7 14
-16z"></path>
<path d="M2900 4412 c0 -4 -7 -39 -15 -77 -16 -71 -29 -139 -46 -230 -9 -49
-3 -109 9 -103 4 2 34 31 66 66 l59 62 -26 28 c-37 39 -35 77 5 119 27 28 31
36 20 51 -6 9 -21 34 -32 55 -18 33 -40 49 -40 29z m40 -96 c0 -15 -28 -42
-36 -34 -2 3 0 17 6 32 10 27 30 28 30 2z m-26 -169 c8 -21 6 -31 -9 -47 -25
-27 -35 -25 -35 8 0 70 26 92 44 39z"></path>
<path d="M1900 4370 c-11 -21 -3 -367 9 -374 3 -2 53 23 111 55 58 33 135 74
171 93 36 19 71 42 79 51 12 15 11 19 -10 36 -40 31 -309 159 -335 159 -8 0
-19 -9 -25 -20z m138 -54 c109 -46 187 -90 187 -106 0 -15 -46 -44 -192 -122
-70 -37 -93 -46 -100 -36 -10 15 -18 271 -9 294 3 9 12 14 19 11 6 -3 49 -21
95 -41z"></path>
<path d="M1739 4213 c-101 -120 -97 -106 -63 -218 16 -54 34 -100 40 -102 21
-8 90 16 112 40 19 20 22 39 30 172 5 84 5 158 0 168 -18 36 -51 19 -119 -60z
m100 5 c0 -18 -4 -82 -8 -142 -10 -119 -22 -145 -75 -149 -27 -2 -30 2 -52 67
-13 39 -24 78 -24 89 0 25 121 166 143 167 13 0 17 -8 16 -32z"></path>
<path d="M4490 4259 c-13 -24 -4 -41 10 -19 10 16 13 40 5 40 -2 0 -9 -9 -15
-21z"></path>
<path d="M4435 4190 c-3 -5 -1 -10 4 -10 6 0 11 5 11 10 0 6 -2 10 -4 10 -3 0
-8 -4 -11 -10z"></path>
<path d="M2235 4114 c-44 -26 -116 -64 -160 -87 -122 -62 -135 -73 -135 -111
0 -57 7 -59 231 -47 128 7 207 16 217 23 30 25 33 57 11 121 -21 63 -66 147
-77 147 -4 0 -43 -21 -87 -46z m113 -51 c39 -79 46 -116 24 -143 -16 -19 -28
-21 -207 -23 -188 -2 -190 -2 -193 20 -3 17 9 28 60 56 35 19 108 59 163 90
55 31 106 56 112 56 7 1 26 -25 41 -56z"></path>
<path d="M3137 4105 c-31 -28 -72 -32 -124 -13 -29 11 -35 10 -59 -13 -23 -21
-54 -69 -54 -84 0 -3 37 -5 83 -5 63 1 94 6 132 23 60 27 175 99 175 110 0 4
-28 7 -62 7 -52 -1 -68 -5 -91 -25z m49 -24 c-3 -5 -15 -11 -26 -14 -17 -4
-19 -3 -9 9 12 15 44 20 35 5z m-56 -28 c0 -10 -69 -34 -113 -39 -58 -7 -79 5
-57 31 8 10 33 13 91 12 43 -1 79 -3 79 -4z"></path>
<path d="M1506 3919 c-60 -71 -106 -132 -103 -135 3 -3 31 1 64 10 32 8 83 20
114 26 90 17 91 18 66 133 -11 53 -23 97 -26 97 -4 0 -55 -59 -115 -131z m115
30 c4 -13 7 -38 8 -56 1 -29 -3 -33 -36 -42 -73 -18 -101 -22 -106 -14 -8 12
103 145 116 140 6 -2 14 -14 18 -28z"></path>
<path d="M3675 3974 c-38 -29 -83 -60 -100 -68 -16 -8 -100 -47 -185 -86 -340
-159 -341 -160 -615 -510 -132 -170 -144 -188 -145 -227 0 -36 5 -45 38 -72
l39 -30 69 77 c38 42 90 101 114 130 24 29 73 77 109 106 58 48 343 243 396
271 15 9 19 20 17 47 -3 35 0 38 74 84 44 28 127 97 193 160 l116 112 -15 28
c-8 15 -19 28 -25 30 -5 1 -41 -22 -80 -52z m-11 -96 c-49 -49 -129 -117 -179
-151 -83 -58 -90 -65 -93 -99 -3 -39 -13 -47 -297 -230 -109 -70 -228 -185
-353 -339 -39 -48 -82 -30 -82 34 0 26 259 367 355 468 75 79 130 112 374 229
118 56 244 121 279 145 36 24 70 41 75 38 5 -3 -31 -46 -79 -95z"></path>
<path d="M3845 3990 c-3 -5 1 -10 10 -10 9 0 13 5 10 10 -3 6 -8 10 -10 10 -2
0 -7 -4 -10 -10z"></path>
<path d="M2700 3923 c-12 -15 -80 -88 -151 -161 l-129 -133 0 -234 0 -234 37
-26 c52 -35 103 -34 130 3 19 25 210 259 341 416 31 38 61 75 65 82 5 9 -14
41 -57 96 -184 234 -195 243 -236 191z m102 -65 c70 -84 158 -204 158 -215 0
-6 -17 -30 -38 -54 -40 -47 -124 -149 -208 -254 -156 -196 -183 -216 -239
-179 l-25 16 0 224 0 223 137 145 c75 81 144 146 154 146 10 0 37 -24 61 -52z"></path>
<path d="M3735 3864 c-44 -41 -122 -111 -173 -155 -89 -78 -115 -121 -49 -80
46 27 193 84 362 139 28 9 52 17 54 19 7 5 -94 152 -104 152 -5 0 -46 -34 -90
-75z m124 -6 c25 -34 29 -45 19 -54 -18 -16 -223 -87 -238 -82 -12 4 165 178
180 178 5 0 22 -19 39 -42z"></path>
<path d="M1669 3776 c-116 -84 -163 -126 -244 -218 -55 -62 -126 -141 -159
-175 -38 -40 -56 -68 -53 -78 4 -8 32 -28 64 -43 114 -56 518 -265 538 -279
11 -7 24 -13 31 -13 6 0 39 42 74 93 35 50 85 122 112 159 l49 67 -44 68 c-32
49 -46 82 -50 118 -3 28 -17 84 -30 125 -14 41 -29 107 -32 145 -4 39 -12 78
-17 87 -9 19 -59 48 -81 48 -8 0 -79 -47 -158 -104z m198 56 c18 -13 25 -34
33 -97 6 -44 22 -114 35 -155 13 -41 26 -95 30 -120 3 -25 21 -72 40 -103 19
-32 35 -62 35 -67 0 -15 -182 -271 -197 -277 -13 -5 -556 268 -582 292 -17 17
-13 22 161 213 106 115 156 161 262 237 72 52 138 95 146 95 8 0 25 -8 37 -18z"></path>
<path d="M2477 3863 c-10 -10 -8 -73 2 -73 5 0 28 18 52 40 l44 39 -46 1 c-25
0 -49 -3 -52 -7z"></path>
<path d="M2132 3835 c-89 -7 -169 -15 -177 -18 -8 -4 -12 -15 -8 -29 10 -46
126 -393 136 -405 5 -7 20 -13 33 -13 27 0 42 18 193 223 105 143 109 150 104
190 -2 23 -6 48 -9 55 -4 14 -46 14 -272 -3z m249 -42 c7 -18 7 -35 0 -49 -12
-28 -237 -330 -252 -339 -20 -13 -36 19 -93 183 -58 170 -64 200 -43 207 18 7
212 22 300 24 76 1 78 0 88 -26z"></path>
<path d="M1413 3745 c-177 -32 -202 -52 -273 -225 -28 -69 -53 -130 -56 -137
-4 -7 13 -21 41 -35 l48 -23 94 100 c230 242 317 352 275 344 -4 -1 -62 -12
-129 -24z m77 -29 c0 -14 -316 -356 -329 -356 -4 0 -16 6 -26 14 -19 13 -18
18 29 135 61 151 87 177 210 202 103 22 116 22 116 5z"></path>
<path d="M3805 3706 c-11 -7 -71 -28 -134 -47 -106 -31 -115 -35 -127 -65 -16
-39 -93 -79 -136 -70 -24 5 -46 -6 -126 -60 -53 -37 -124 -88 -157 -115 -66
-53 -355 -352 -355 -367 0 -5 24 -22 53 -37 28 -16 95 -54 147 -85 52 -31 122
-71 155 -89 32 -18 71 -41 85 -50 14 -10 50 -32 81 -49 81 -46 103 -36 165 71
41 72 105 177 247 407 63 101 132 254 176 391 23 68 45 132 51 141 7 13 5 20
-9 28 -28 14 -93 12 -116 -4z m89 -24 c8 -14 -74 -245 -128 -357 -29 -60 -100
-186 -157 -280 -58 -93 -131 -213 -162 -266 -38 -66 -64 -98 -79 -102 -17 -5
-56 13 -148 67 -69 41 -186 109 -260 153 -74 44 -136 86 -138 94 -1 8 75 94
170 190 137 140 195 191 281 248 86 57 114 71 133 67 36 -9 113 28 154 74 30
34 48 44 131 68 52 16 104 34 115 40 22 13 80 16 88 4z"></path>
<path d="M915 3604 c-93 -18 -182 -33 -197 -34 -31 0 -37 -17 -10 -27 9 -4 45
-24 80 -45 34 -21 68 -38 75 -38 7 0 46 25 87 56 41 31 92 68 113 82 33 22 49
44 30 41 -5 -1 -84 -16 -178 -35z m60 -23 c6 -10 -96 -91 -114 -91 -16 0 -81
41 -81 51 0 10 13 13 115 33 39 8 71 15 72 15 1 1 4 -3 8 -8z"></path>
<path d="M1035 3534 c-55 -41 -107 -79 -115 -84 -21 -12 -11 -18 64 -39 l67
-19 14 22 c7 11 25 52 40 91 14 38 30 74 35 79 12 12 13 26 3 26 -5 0 -53 -34
-108 -76z m40 -36 c-18 -60 -50 -81 -85 -58 -12 9 -8 16 24 45 46 41 71 46 61
13z"></path>
<path d="M2332 3547 c-19 -23 -162 -249 -162 -256 0 -13 202 -123 209 -115 9
10 -4 358 -14 373 -8 15 -20 14 -33 -2z m13 -69 c2 -7 6 -66 8 -131 3 -88 1
-120 -8 -123 -14 -6 -135 64 -135 77 0 15 113 189 122 189 5 0 10 -6 13 -12z"></path>
<path d="M2070 3188 c-24 -35 -63 -89 -87 -121 -24 -32 -42 -61 -39 -65 2 -4
98 -5 213 -2 l208 5 3 57 c3 65 8 60 -128 139 -47 27 -94 49 -106 49 -15 0
-34 -19 -64 -62z m175 -21 c82 -49 90 -56 93 -87 6 -54 -11 -60 -173 -60 -93
0 -145 4 -153 12 -8 8 4 33 50 100 34 48 68 88 77 88 9 0 57 -24 106 -53z"></path>
<path d="M2414 3076 c-3 -8 -4 -27 -2 -43 3 -27 6 -28 53 -28 43 0 50 3 50 20
0 12 -15 28 -40 42 -47 27 -54 28 -61 9z"></path>
<path d="M2552 3008 c-9 -9 -12 -62 -12 -190 0 -173 1 -178 23 -192 12 -7 110
-69 217 -136 107 -68 215 -136 239 -152 38 -25 48 -28 66 -18 19 10 29 8 64
-15 22 -15 41 -35 41 -43 0 -15 -48 -92 -57 -92 -2 0 -28 14 -58 31 -55 31
-64 42 -45 54 22 13 7 35 -50 74 -33 23 -65 41 -72 41 -16 0 -50 -58 -39 -65
5 -2 14 2 21 10 7 8 21 15 30 15 26 0 80 -48 80 -72 0 -34 19 -57 71 -83 60
-31 78 -27 113 23 30 44 33 82 9 104 -32 28 -85 50 -107 44 -15 -4 -47 11
-106 48 -47 29 -152 95 -235 146 -82 51 -158 102 -167 112 -15 17 -18 41 -18
168 0 117 3 150 15 160 12 10 36 0 130 -51 63 -34 115 -66 115 -70 0 -5 -9
-13 -21 -19 -11 -7 -38 -28 -60 -47 -52 -47 -53 -80 -2 -122 44 -36 80 -39
116 -11 15 12 40 20 64 20 23 0 54 10 78 25 22 13 47 25 55 25 9 0 52 -22 95
-48 44 -27 101 -61 128 -76 31 -18 47 -33 47 -47 0 -32 -58 -311 -75 -358 -15
-44 -145 -271 -173 -303 -8 -10 -19 -18 -23 -18 -5 0 -55 31 -111 68 -57 38
-169 112 -249 165 -81 53 -149 103 -152 111 -8 20 13 329 23 339 4 5 67 -31
139 -79 121 -80 131 -90 131 -118 l0 -31 20 25 c11 14 20 28 20 32 0 4 -74 57
-164 116 -116 77 -168 106 -175 99 -6 -6 -11 -58 -12 -121 0 -61 -4 -149 -8
-194 l-6 -84 35 -27 c57 -44 516 -341 526 -341 11 1 184 298 202 348 13 35 62
265 77 359 7 42 6 43 -37 69 -23 14 -91 54 -150 89 l-108 64 -60 -36 c-48 -28
-66 -34 -93 -29 -27 5 -38 2 -57 -19 -13 -14 -28 -25 -34 -25 -22 0 -86 51
-86 69 0 23 68 78 117 94 21 7 38 19 38 27 0 8 -36 34 -80 59 -44 24 -101 56
-127 71 -57 35 -99 45 -116 28z"></path>
<path d="M2420 2960 c-26 -6 -39 -35 -23 -51 5 -5 20 3 37 20 30 31 25 42 -14
31z"></path>
<path d="M1923 2938 c-8 -14 6 -26 74 -63 l67 -37 43 49 c23 26 42 50 43 53 0
8 -221 6 -227 -2z m152 -38 c0 -18 -33 -26 -47 -12 -6 6 -7 15 -3 22 10 16 50
8 50 -10z"></path>
<path d="M2167 2889 c-21 -27 -40 -56 -43 -63 -3 -8 26 -36 72 -71 l78 -58 27
33 c28 33 59 36 59 6 0 -24 86 -78 118 -74 l27 3 5 130 c3 72 4 132 2 135 -4
6 -51 -48 -93 -107 -16 -24 -34 -43 -39 -43 -6 0 -10 36 -10 80 l0 80 -82 -1
-83 0 -38 -50z m171 -33 c3 -56 1 -60 -30 -87 -18 -15 -36 -28 -41 -29 -14 0
-107 74 -107 87 0 7 18 31 39 53 37 39 42 41 88 38 l48 -3 3 -59z m152 -86 c0
-80 -13 -95 -59 -67 -47 28 -48 40 -5 91 54 65 64 61 64 -24z"></path>
<path d="M2355 2659 c-10 -32 -88 -315 -89 -327 -1 -11 182 -102 205 -102 9 0
18 115 20 263 l2 129 -49 17 c-27 10 -57 21 -66 26 -12 4 -20 2 -23 -6z m80
-45 l37 -15 -7 -157 c-4 -86 -10 -160 -14 -165 -4 -4 -38 5 -77 21 -49 20 -70
34 -72 48 -3 19 60 252 73 274 8 13 16 13 60 -6z"></path>
<path d="M3091 2271 c-8 -14 -5 -23 15 -42 25 -24 26 -24 40 -5 19 26 18 32
-8 50 -29 20 -35 20 -47 -3z"></path>
<path d="M2255 2268 c-2 -7 -11 -40 -20 -72 -37 -133 -56 -168 -132 -248 -41
-43 -73 -84 -71 -91 4 -13 324 -177 345 -177 8 0 18 11 23 24 10 28 51 466 44
477 -4 7 -172 99 -180 99 -3 0 -6 -6 -9 -12z m107 -69 l61 -31 -7 -76 c-3 -43
-11 -135 -17 -207 -13 -148 -20 -169 -54 -161 -37 9 -253 116 -266 132 -9 11
1 27 50 79 69 74 79 92 111 190 27 84 37 105 51 105 5 0 37 -14 71 -31z"></path>
<path d="M2852 2179 c-18 -28 -31 -53 -28 -57 7 -6 5 -9 45 47 17 24 31 48 31
53 0 19 -17 4 -48 -43z"></path>
<path d="M2825 2199 c-4 -6 -5 -12 -2 -15 2 -3 7 2 10 11 7 17 1 20 -8 4z"></path>
<path d="M2486 2148 c-4 -13 -58 -456 -60 -492 -1 -13 21 -34 64 -65 51 -36
77 -47 121 -52 42 -5 76 -19 140 -57 46 -28 87 -48 92 -43 14 14 188 326 193
347 4 17 0 26 -18 35 -12 6 -134 85 -270 175 -136 90 -250 164 -253 164 -3 0
-7 -6 -9 -12z m282 -197 c157 -104 232 -159 232 -171 0 -32 -160 -300 -179
-300 -9 0 -37 12 -62 28 -62 38 -89 49 -145 58 -43 6 -164 73 -164 90 0 18 52
431 56 442 2 8 10 12 17 10 7 -2 117 -72 245 -157z"></path>
<path d="M1736 1737 c-32 -67 -112 -232 -178 -366 -137 -277 -134 -250 -29
-297 78 -35 88 -23 13 15 -35 17 -65 38 -68 45 -3 7 72 169 166 360 93 192
170 352 170 357 0 28 -21 -5 -74 -114z"></path>
<path d="M2005 1821 c-3 -6 4 -58 15 -118 10 -59 30 -173 44 -253 13 -80 29
-157 35 -172 13 -33 42 -37 70 -9 24 24 182 341 176 351 -3 5 -56 39 -118 76
-61 37 -133 83 -159 101 -53 36 -54 37 -63 24z m162 -117 c167 -103 159 -78
76 -247 -39 -78 -79 -149 -88 -157 -34 -28 -44 9 -100 348 -18 107 -18 122 -6
122 5 0 58 -30 118 -66z"></path>
<path d="M1908 1743 c-20 -21 -73 -108 -118 -193 -89 -168 -163 -300 -192
-342 -28 -40 -23 -63 23 -97 36 -26 48 -29 83 -25 32 4 63 -3 136 -30 52 -20
108 -36 123 -36 16 0 54 -15 85 -34 32 -18 78 -45 104 -60 26 -15 78 -53 115
-85 37 -33 71 -57 75 -55 4 3 8 18 8 34 0 22 -9 36 -37 57 -20 15 -46 39 -57
52 -107 122 -123 133 -232 148 -39 5 -47 10 -59 41 -25 58 -19 88 26 137 l41
44 -17 143 c-9 79 -20 183 -26 232 -5 49 -12 93 -15 98 -10 16 -31 7 -66 -29z
m52 -20 c0 -5 9 -99 21 -210 l21 -203 -32 -36 c-56 -64 -61 -110 -19 -182 10
-18 19 -35 19 -38 0 -11 -52 -1 -115 23 -40 15 -98 28 -135 31 -48 3 -71 9
-87 25 -13 11 -23 25 -23 30 0 5 31 64 69 131 38 66 101 182 141 256 39 74 81
145 93 158 20 21 47 30 47 15z m146 -694 c33 -10 111 -84 97 -92 -11 -6 -176
86 -181 102 -4 12 19 10 84 -10z"></path>
<path d="M2402 1587 c-5 -6 -51 -94 -101 -194 l-91 -181 0 -77 0 -78 56 -66
c31 -36 83 -94 114 -129 l57 -62 63 97 c35 54 100 154 145 223 45 69 102 157
127 195 25 39 44 73 41 77 -8 15 -213 119 -222 113 -12 -7 -77 25 -137 66 -32
22 -44 26 -52 16z m87 -68 c28 -16 66 -33 85 -36 46 -7 190 -86 194 -106 3
-13 -84 -153 -282 -454 -22 -35 -47 -63 -54 -63 -13 0 -76 65 -152 156 -39 47
-40 51 -40 121 0 72 2 77 85 243 53 105 91 170 100 170 8 0 37 -14 64 -31z"></path>
</g>
</svg>