<?xml version="1.0" standalone="no"?>
<!DOCTYPE svg PUBLIC "-//W3C//DTD SVG 20010904//EN"
 "http://www.w3.org/TR/2001/REC-SVG-20010904/DTD/svg10.dtd">
<svg version="1.0" xmlns="http://www.w3.org/2000/svg"
 width="500.000000pt" height="765.000000pt" viewBox="0 0 500.000000 765.000000"
 preserveAspectRatio="xMidYMid meet">
<metadata>
Created by potrace 1.15, written by Peter Selinger 2001-2017
</metadata>
<g transform="translate(0.000000,765.000000) scale(0.100000,-0.100000)"
fill="#000000" stroke="none">


<path d="M2887 6536 c-3 -8 4 -21 16 -30 21 -15 21 -15 2 -15 -11 -1 -29 8
-38 20 l-18 20 -28 -28 c-34 -33 -48 -102 -21 -104 30 -2 36 -4 73 -28 34 -21
45 -23 100 -16 60 6 97 26 97 50 0 7 -9 15 -20 18 -22 6 -27 32 -9 43 6 4 -16
21 -52 40 -81 44 -95 48 -102 30z"/>
<path d="M3085 6441 c-3 -8 -3 -17 1 -20 3 -3 78 -8 167 -9 89 -2 178 -4 197
-5 25 -2 35 2 35 13 0 20 -60 28 -242 32 -123 2 -154 0 -158 -11z"/>
<path d="M3536 6394 c-4 -9 -5 -18 -4 -18 37 -22 71 -48 135 -104 43 -38 89
-76 103 -85 14 -10 82 -71 152 -137 87 -83 131 -118 142 -114 9 3 16 9 16 13
0 10 -251 245 -305 286 -27 21 -66 52 -85 70 -45 42 -129 105 -140 105 -4 0
-11 -7 -14 -16z"/>
<path d="M3206 6379 c-14 -11 -26 -27 -26 -35 0 -25 28 -71 47 -77 10 -3 119
-42 243 -86 124 -45 230 -81 237 -81 7 0 19 16 27 35 l15 35 -55 52 c-31 29
-66 58 -79 65 -12 7 -25 19 -28 27 -14 37 -107 65 -232 72 -44 2 -90 6 -101 9
-13 3 -32 -3 -48 -16z"/>
<path d="M2764 6232 c-37 -70 -70 -133 -74 -141 -4 -7 -10 -9 -13 -4 -3 5 21
62 55 127 47 92 57 120 47 127 -14 8 -49 -15 -49 -32 0 -21 -113 -209 -126
-209 -8 0 -15 -3 -15 -7 -8 -54 -7 -77 6 -97 14 -21 14 -25 1 -36 -14 -11 -14
-14 -1 -27 14 -13 20 -39 16 -69 -1 -10 29 -29 33 -22 1 2 7 14 13 28 10 22
12 16 11 -40 0 -64 32 -201 54 -227 6 -7 19 -13 28 -13 17 0 171 107 184 128
12 20 -6 39 -60 62 -66 27 -66 36 0 14 32 -11 51 -13 58 -6 12 12 158 397 158
417 0 14 -36 36 -182 113 l-77 41 -67 -127z"/>
<path d="M3153 6259 c-18 -18 -16 -33 7 -54 24 -22 26 -59 5 -108 -15 -37 -11
-71 8 -64 6 2 24 39 40 83 15 43 30 80 31 81 1 2 54 -15 117 -38 63 -22 134
-47 159 -55 138 -47 240 -87 240 -96 0 -5 -27 -80 -59 -166 -33 -87 -62 -178
-66 -202 -9 -64 -26 -84 -64 -75 -32 7 -45 19 -55 51 -7 22 -6 23 59 44 21 7
31 6 37 -3 5 -8 8 -7 8 4 0 26 -24 29 -59 8 -17 -10 -38 -19 -46 -19 -8 0 -15
-9 -15 -20 0 -24 -12 -24 -66 -2 -23 10 -39 22 -37 29 3 9 -4 11 -25 7 -22 -5
-64 7 -157 42 -122 46 -126 49 -120 73 8 33 26 51 32 33 3 -6 9 -10 14 -6 5 3
-1 14 -13 24 l-23 18 28 11 c15 6 27 16 27 23 0 9 -3 9 -10 -2 -13 -22 -23 -5
-11 19 7 13 17 18 27 14 9 -3 20 0 25 8 13 21 11 27 -11 34 -14 5 -20 15 -20
38 0 31 0 31 -19 12 -26 -26 -106 -264 -93 -277 5 -5 92 -37 194 -72 163 -56
237 -85 217 -86 -4 0 -75 23 -159 51 -84 28 -156 47 -161 42 -14 -14 47 -224
96 -328 26 -55 51 -110 56 -123 5 -12 15 -25 22 -28 8 -3 56 12 108 33 l94 38
26 130 c14 71 30 130 36 132 7 3 10 -4 8 -14 -23 -108 -44 -227 -40 -231 6 -7
112 38 123 52 5 6 23 46 40 89 l31 78 -36 15 c-19 9 -42 13 -49 10 -8 -3 -14
1 -14 9 0 19 7 19 59 0 42 -14 42 -14 52 13 5 15 14 36 19 47 27 58 70 179 70
196 0 11 -13 27 -30 38 -16 10 -28 20 -25 23 3 3 -1 11 -10 18 -21 18 -19 30
8 30 21 1 21 1 3 15 -26 20 -12 31 20 16 15 -6 29 -10 31 -7 4 4 -17 82 -35
126 -10 26 -11 61 -1 55 5 -4 9 -13 9 -21 0 -8 8 -13 20 -11 29 5 35 16 14 24
-10 4 -24 14 -31 22 -7 9 -13 12 -13 6 0 -5 -7 1 -15 15 l-13 25 -11 -28 c-6
-16 -11 -32 -11 -37 0 -5 -4 -11 -9 -14 -9 -6 -262 79 -461 154 -116 43 -113
43 -127 29z"/>
<path d="M3838 6043 c-22 -5 -22 -5 0 -76 21 -67 23 -68 82 -91 l45 -18 22 27
c28 32 24 42 -46 114 -47 48 -62 55 -103 44z"/>
<path d="M4074 5882 c-6 -4 -21 -27 -33 -50 -21 -41 -23 -43 -36 -25 -13 17
-14 17 -47 -1 -79 -45 -96 -64 -126 -143 -48 -127 -48 -118 -2 -136 29 -11 40
-12 40 -3 0 25 21 35 51 24 16 -5 29 -14 29 -19 0 -7 -40 -120 -45 -127 -1 -1
-16 3 -34 9 -24 9 -31 16 -25 28 18 43 16 50 -12 57 -16 4 -35 11 -41 17 -10
7 -17 0 -28 -27 -9 -20 -13 -41 -11 -45 6 -8 151 -73 192 -85 18 -5 22 -1 27
24 4 20 13 30 24 30 10 0 29 9 43 20 19 14 22 22 13 31 -6 6 -9 17 -7 24 3 7
-4 15 -15 18 -18 4 -21 13 -21 61 0 50 -3 57 -24 66 -13 5 -27 14 -32 21 -9
16 25 41 46 34 18 -6 17 -6 69 111 39 88 40 109 5 86z"/>
<path d="M2560 5790 c-8 -5 -25 -10 -36 -10 -12 0 -27 -7 -35 -16 -7 -9 -21
-13 -33 -10 -19 5 -34 -19 -126 -190 -74 -137 -112 -199 -130 -207 -20 -10
-25 -20 -26 -54 -1 -49 18 -63 40 -31 9 12 19 19 23 15 3 -4 -4 -22 -17 -39
l-23 -32 34 -29 c98 -83 106 -88 119 -72 7 8 10 21 7 29 -7 17 27 51 41 42 8
-5 200 218 299 345 10 13 8 36 -14 120 -14 57 -29 108 -33 112 -4 4 -23 -1
-43 -13 -23 -13 -38 -17 -42 -10 -3 5 6 15 20 20 15 6 25 16 22 23 -5 16 -28
20 -47 7z"/>
<path d="M2865 5639 c-116 -82 -133 -97 -188 -162 l-40 -49 1 -151 c1 -83 6
-155 10 -159 5 -5 46 20 93 57 67 53 88 76 103 113 10 26 38 95 62 153 24 59
44 113 44 121 0 8 3 18 7 22 14 14 42 98 36 112 -9 24 -25 16 -128 -57z"/>
<path d="M3033 5591 c-24 -9 -47 -21 -52 -26 -11 -11 -91 -199 -91 -213 0 -8
69 -42 86 -42 5 0 70 -23 144 -50 74 -28 137 -49 141 -48 4 2 -15 53 -43 113
-27 61 -58 144 -69 185 -18 70 -38 101 -63 99 -6 -1 -30 -9 -53 -18z"/>
<path d="M3728 5383 c-6 -16 -12 -48 -12 -73 -1 -57 -11 -72 -44 -68 -26 3
-28 -1 -45 -67 -50 -198 -65 -279 -57 -295 5 -9 51 -32 102 -51 118 -43 148
-50 170 -38 22 12 48 72 42 96 -3 11 13 73 34 138 22 66 52 159 66 208 15 48
29 94 32 102 4 10 0 15 -14 15 -11 0 -22 -7 -26 -15 -4 -12 -10 -13 -23 -6
-28 16 -192 81 -203 81 -6 0 -16 -12 -22 -27z"/>
<path d="M2569 5347 c-106 -123 -229 -279 -225 -285 3 -5 59 -9 125 -10 153
-3 149 -8 149 173 0 168 -3 175 -49 122z"/>
<path d="M2908 5266 c-57 -27 -248 -183 -248 -202 0 -16 43 -29 66 -20 22 8
173 -39 270 -85 46 -22 97 -39 115 -39 63 1 70 9 187 201 l22 36 -77 31 c-106
42 -272 102 -281 101 -4 0 -28 -11 -54 -23z"/>
<path d="M3483 5218 c-58 -30 -61 -53 -22 -172 27 -84 34 -97 52 -94 16 2 26
21 47 89 40 123 45 163 25 183 -22 21 -51 19 -102 -6z"/>
<path d="M2060 5065 c-20 -35 -38 -55 -50 -55 -19 0 -30 -19 -30 -51 0 -24 25
-35 44 -20 9 8 16 9 20 2 9 -14 60 -3 134 31 l64 29 -52 41 c-28 22 -52 39
-54 37 -1 -2 -13 -21 -25 -41 -12 -21 -27 -38 -32 -38 -13 0 -12 4 21 60 35
60 35 60 11 60 -13 0 -30 -18 -51 -55z"/>
<path d="M3280 5025 c-39 -53 -74 -103 -77 -110 -5 -15 -3 -16 106 -58 l64
-25 43 24 c54 30 70 30 89 0 15 -23 15 -27 -9 -65 l-25 -40 54 -25 c59 -27 67
-42 35 -71 -33 -30 -92 -155 -80 -170 7 -8 7 -15 1 -19 -5 -3 -11 -1 -13 6 -3
9 -6 9 -12 0 -4 -7 -2 -12 3 -12 6 0 11 -9 11 -20 0 -24 3 -24 55 -5 42 15
105 19 143 9 44 -12 20 -21 -45 -17 -54 4 -76 0 -106 -15 -21 -12 -40 -16 -43
-10 -3 5 -12 1 -19 -9 -12 -16 -9 -22 22 -50 26 -24 34 -38 30 -54 -5 -18 2
-25 44 -42 27 -12 49 -25 49 -29 0 -13 -18 -9 -61 13 -37 19 -42 19 -58 5 -20
-18 -63 -21 -90 -6 -15 7 -20 4 -29 -15 -7 -14 -16 -25 -22 -25 -6 0 -8 -5 -5
-10 4 -7 -2 -9 -19 -4 -22 5 -25 3 -20 -10 4 -11 2 -16 -7 -14 -9 2 -14 -5
-13 -19 0 -12 -3 -20 -8 -17 -4 3 -9 -1 -10 -8 -2 -25 -4 -33 -12 -57 -7 -19
-10 -21 -18 -10 -7 10 -8 8 -3 -8 4 -15 0 -30 -14 -45 -12 -12 -21 -28 -21
-35 0 -17 -4 -16 -41 2 -30 16 -49 13 -49 -8 0 -7 -12 -29 -26 -50 l-25 -38
44 -52 c25 -29 76 -86 115 -127 67 -73 70 -74 89 -57 21 19 53 23 53 7 0 -5
-7 -10 -15 -10 -18 0 -19 -12 -2 -29 10 -10 -2 -11 -65 -6 -68 6 -82 5 -113
-14 -40 -24 -81 -29 -68 -8 4 6 6 19 5 28 -1 8 2 26 7 40 9 22 10 21 10 -13 1
-42 8 -45 52 -22 17 8 37 13 45 10 34 -13 20 20 -32 74 -62 65 -80 74 -70 35
4 -14 2 -25 -3 -25 -5 0 -12 20 -15 45 -5 28 -17 55 -36 75 -30 32 -60 40 -60
15 0 -11 -13 -7 -54 15 -30 17 -62 30 -71 30 -9 0 -15 6 -12 13 2 6 9 12 14
12 26 0 23 16 -8 55 -50 61 -88 81 -172 87 -71 5 -74 5 -95 -22 -40 -51 -22
-129 43 -182 30 -25 135 -72 189 -86 6 -1 23 22 39 51 15 28 31 52 35 52 4 0
17 -8 29 -18 l22 -17 -31 -63 c-31 -61 -31 -64 -15 -92 11 -19 17 -50 17 -95
0 -118 52 -248 113 -282 35 -19 122 -16 169 7 23 11 43 20 44 20 1 0 -4 -27
-11 -60 -12 -56 -11 -61 6 -71 23 -12 26 -59 4 -59 -23 0 -18 -28 6 -35 26 -9
39 8 39 53 0 23 -5 32 -16 32 -11 0 -14 5 -9 18 4 9 8 31 11 47 2 17 6 42 9
57 5 22 3 27 -17 30 -17 2 -23 9 -23 28 0 21 5 25 29 24 25 0 31 6 44 38 15
37 42 52 42 23 0 -8 -8 -15 -17 -15 -13 0 -14 -3 -6 -11 18 -18 44 -3 41 23
-5 36 -18 50 -42 44 -11 -3 -27 -1 -35 3 -21 13 -9 46 19 49 33 5 49 29 45 70
-1 19 6 50 16 70 15 30 18 33 19 15 0 -38 20 -26 20 13 0 30 -3 34 -19 29 -10
-3 -23 1 -31 9 -10 13 -8 20 9 42 12 15 21 35 21 44 0 26 28 46 42 32 19 -19
24 -15 53 51 15 34 40 88 56 119 144 290 294 694 267 722 -7 7 -63 31 -123 55
-61 23 -118 46 -128 52 -13 7 -23 7 -33 -2 -11 -9 -14 -8 -14 8 0 12 -11 25
-27 32 -23 11 -30 9 -55 -9 -19 -14 -28 -17 -28 -7 0 7 5 18 12 25 17 17 3 25
-22 12 -11 -6 -26 -9 -33 -7 -7 2 11 11 38 20 28 8 49 19 48 23 -1 5 -15 45
-30 89 -41 114 -52 113 -143 -10z"/>
<path d="M2360 5000 c-11 -11 -20 -26 -20 -32 0 -23 43 -138 52 -138 10 0 118
164 118 179 0 7 -25 11 -65 11 -52 0 -69 -4 -85 -20z"/>
<path d="M2552 4966 c-21 -28 -60 -84 -87 -124 l-49 -72 17 -35 c9 -19 28 -53
43 -76 l26 -41 65 7 c35 4 96 7 134 7 67 0 71 1 80 26 6 15 20 37 31 49 l20
22 -27 118 c-38 168 -35 163 -97 164 -29 1 -68 2 -86 4 -30 2 -37 -3 -70 -49z"/>
<path d="M2800 4983 c0 -10 9 -52 19 -93 10 -41 22 -96 25 -122 6 -39 11 -48
28 -48 11 0 35 -15 54 -34 32 -32 38 -34 92 -32 31 2 76 4 98 4 27 1 44 7 48
17 9 25 -13 117 -37 152 -39 58 -184 138 -299 167 -23 5 -28 3 -28 -11z"/>
<path d="M2206 4964 c-22 -8 -47 -21 -55 -28 -9 -8 -31 -16 -50 -18 -52 -5
-47 -21 14 -51 35 -17 59 -36 65 -52 6 -17 14 -23 26 -18 9 3 43 -8 79 -28 35
-19 67 -31 71 -27 10 10 -44 220 -59 230 -17 11 -46 9 -91 -8z"/>
<path d="M1836 4894 c-24 -24 -4 -51 41 -56 21 -3 40 -2 43 3 6 9 60 -1 60
-12 0 -4 -5 -11 -10 -14 -13 -8 4 -41 26 -49 24 -9 46 14 41 41 -5 26 -3 27
25 12 16 -8 24 -8 35 4 14 14 10 18 -36 42 -29 14 -49 30 -45 36 4 7 -3 9 -17
7 -15 -2 -25 -12 -29 -28 -4 -15 -9 -20 -13 -13 -4 6 -4 19 0 28 4 13 2 16 -8
13 -8 -3 -13 -15 -12 -27 3 -26 4 -26 -37 4 -40 29 -44 30 -64 9z"/>
<path d="M3200 4808 c0 -35 8 -88 17 -118 23 -78 18 -143 -17 -217 l-29 -63
39 38 c22 21 45 52 51 70 6 18 15 32 20 32 4 0 31 -13 59 -30 57 -34 70 -37
70 -16 0 8 6 21 13 28 27 28 78 121 73 134 -3 7 -23 18 -44 24 -22 5 -52 20
-66 31 l-27 21 -31 -28 -31 -29 28 43 c19 28 33 41 43 37 12 -4 12 -3 3 9 -6
7 -9 20 -6 28 5 11 -13 22 -67 42 -40 14 -79 26 -85 26 -9 0 -13 -19 -13 -62z"/>
<path d="M2058 4740 c-23 -37 -37 -50 -54 -50 -17 0 -24 -6 -24 -20 0 -11 6
-20 13 -20 8 0 8 -3 1 -8 -14 -10 -26 -42 -14 -42 14 0 23 -42 11 -50 -8 -4 2
-16 26 -32 21 -15 53 -40 71 -57 18 -17 36 -30 40 -29 4 1 21 -6 39 -15 l31
-17 7 29 c6 28 28 46 45 36 4 -3 11 -17 14 -31 9 -33 -10 -57 -39 -50 -18 5
-26 -6 -59 -69 -21 -41 -49 -86 -63 -101 -13 -14 -31 -38 -41 -52 -16 -25 -16
-26 1 -19 15 6 17 3 12 -13 -4 -11 -2 -20 4 -20 6 0 11 5 11 10 0 19 18 10 23
-11 4 -14 11 -20 20 -16 11 4 13 0 10 -14 -4 -15 -8 -17 -19 -8 -11 9 -19 8
-34 -6 -22 -20 -47 -14 -57 12 -4 10 -10 21 -15 24 -5 3 10 42 32 86 22 44 40
83 40 86 0 2 -9 7 -19 10 -13 3 -22 -3 -30 -19 -6 -14 -19 -24 -31 -24 -18 0
-19 -2 -8 -21 10 -17 10 -23 1 -26 -7 -3 -13 -9 -13 -14 0 -6 -12 -20 -27 -33
-32 -28 -25 -44 31 -66 39 -15 52 -36 35 -56 -14 -17 -41 -18 -57 -2 -9 9 -13
7 -18 -5 -3 -9 -14 -17 -25 -17 -21 0 -45 35 -29 45 17 11 11 20 -22 36 -18 9
-135 66 -261 127 -125 62 -231 112 -236 112 -5 0 -11 -10 -14 -21 -5 -17 -11
-20 -29 -16 -21 6 -28 -3 -67 -76 -24 -45 -74 -136 -111 -202 -37 -66 -101
-182 -141 -258 -41 -75 -98 -181 -127 -235 -74 -134 -175 -320 -229 -422 -25
-47 -49 -89 -53 -95 -5 -5 -28 -48 -53 -95 -24 -47 -60 -115 -81 -152 -34 -62
-63 -87 -85 -74 -5 3 -16 -5 -25 -19 -16 -25 -16 -26 21 -60 21 -19 41 -35 45
-35 4 0 15 11 24 25 20 31 38 33 29 4 -6 -19 -4 -21 21 -16 195 36 260 47 269
43 16 -6 -11 -12 -155 -37 -74 -12 -137 -26 -140 -29 -3 -4 -18 -6 -35 -6 -18
1 -30 -4 -30 -12 0 -12 146 -88 945 -493 l245 -124 29 27 c29 26 56 28 56 3 0
-15 77 -48 91 -40 5 4 9 52 9 108 l-1 102 -20 -25 c-11 -14 -28 -34 -38 -45
-9 -12 -21 -30 -25 -40 -7 -18 -9 -17 -20 10 -8 18 -10 41 -5 57 10 37 -6 47
-61 39 -40 -5 -48 -11 -75 -53 -16 -26 -36 -47 -43 -47 -8 -1 -3 13 13 36 40
59 36 63 -60 63 -67 0 -85 -3 -85 -14 0 -12 -5 -12 -30 -3 -30 12 -40 27 -17
27 6 0 23 19 37 43 41 68 43 72 88 136 l43 61 -21 39 c-11 22 -24 43 -30 46
-6 4 -8 10 -5 15 3 5 -1 24 -9 42 -24 56 -66 201 -66 231 0 19 -5 27 -18 27
-10 0 -23 5 -29 11 -8 8 -30 1 -80 -27 -77 -42 -113 -71 -113 -91 0 -7 -6 -13
-14 -13 -8 0 -21 -8 -28 -19 -7 -10 -48 -56 -90 -102 -42 -46 -91 -102 -108
-124 -40 -51 -37 -48 -50 -40 -7 4 6 26 36 58 123 136 158 176 200 219 24 26
44 52 44 56 0 18 -13 20 -49 8 -20 -8 -56 -17 -81 -21 -72 -11 -115 -46 -150
-120 -16 -35 -30 -67 -30 -71 0 -4 -10 -27 -21 -51 -37 -77 -33 -37 6 57 20
50 35 93 32 96 -3 3 -46 -24 -96 -61 -50 -37 -97 -65 -104 -62 -7 2 -2 9 13
17 42 22 171 122 165 128 -3 3 22 19 56 35 61 29 150 108 201 177 14 19 34 44
44 55 11 11 39 46 63 78 24 32 49 61 55 65 6 4 18 20 26 36 8 16 23 31 32 34
10 2 16 7 13 11 -2 4 7 29 20 56 14 27 25 66 25 87 0 42 -4 47 -90 110 -36 27
-56 56 -105 153 -34 65 -66 120 -71 122 -5 1 -14 -7 -20 -20 -6 -12 -51 -96
-101 -187 -50 -91 -132 -241 -183 -335 -209 -385 -250 -455 -262 -455 -13 0
-9 22 6 39 18 20 73 116 138 241 28 52 54 100 58 105 4 6 28 48 53 95 25 47
64 116 86 155 23 38 41 73 41 77 0 4 14 30 30 58 17 28 53 95 81 147 41 77 49
100 41 114 -12 19 -6 29 16 29 8 0 35 16 59 36 24 20 61 40 81 45 51 12 149
11 194 -1 42 -12 116 -89 154 -160 36 -68 61 -92 164 -158 54 -35 114 -83 138
-112 49 -57 53 -58 180 -35 71 12 87 12 105 1 25 -16 204 -66 236 -66 11 0 21
5 21 10 0 18 22 11 27 -9 3 -11 18 -25 34 -31 16 -7 45 -30 64 -51 44 -49 48
-98 11 -132 -41 -37 -51 -44 -88 -56 -20 -7 -42 -19 -49 -27 -21 -25 -143
-100 -174 -108 -42 -10 -43 -10 -112 -2 -61 8 -62 7 -69 -18 -7 -30 -16 -33
-34 -11 -25 30 -55 16 -142 -68 -118 -114 -129 -146 -121 -334 5 -120 8 -141
26 -160 28 -31 67 -29 98 4 14 16 67 84 119 153 51 69 110 144 132 167 21 24
38 45 38 48 0 3 -10 17 -22 30 -50 53 -61 75 -38 75 6 0 10 -5 10 -10 0 -6 11
-22 25 -36 14 -14 25 -29 25 -34 0 -19 27 -9 125 45 55 30 134 69 175 86 41
17 119 60 173 96 90 61 128 75 97 38 -16 -20 -3 -19 17 1 8 8 17 34 18 57 3
43 -20 143 -34 152 -5 2 -26 50 -47 105 -30 81 -47 110 -83 147 -72 71 -232
143 -320 143 -20 0 -43 4 -51 9 -11 8 -20 -9 -47 -85 -36 -107 -41 -116 -53
-109 -4 3 4 38 20 78 40 105 42 114 28 114 -61 2 -269 82 -370 142 -104 63
-139 145 -82 190 39 30 71 26 181 -23 110 -50 245 -92 313 -97 l45 -4 24 68
c13 37 27 67 32 67 10 0 12 -24 3 -33 -5 -4 -54 -135 -54 -144 0 0 28 -4 63
-8 71 -9 177 -41 272 -84 81 -37 197 -148 228 -219 6 -15 14 -29 17 -32 14
-12 70 -112 76 -135 7 -30 -12 -82 -36 -95 -20 -11 -84 2 -103 22 -21 21 -36
52 -58 125 -12 38 -25 72 -30 78 -5 5 -9 16 -9 25 0 25 -57 73 -146 124 -82
47 -239 106 -261 99 -6 -2 -14 1 -18 6 -10 18 -21 13 -33 -14 -16 -34 -15 -38
5 -27 25 15 143 -23 272 -87 126 -62 154 -91 185 -191 37 -119 57 -158 95
-184 20 -14 44 -26 52 -26 38 0 118 122 119 182 0 32 -88 151 -187 253 -97
101 -271 184 -421 202 -29 3 -55 10 -58 14 -9 15 43 10 124 -11 222 -57 319
-119 464 -297 28 -34 55 -60 59 -57 4 2 2 26 -6 52 -7 26 -18 89 -24 141 -15
135 -32 156 -176 216 -95 39 -175 116 -175 168 0 9 -10 27 -22 40 -21 22 -27
23 -67 15 -33 -7 -56 -22 -94 -61 -56 -57 -48 -59 -100 23 -13 19 -34 40 -47
47 -19 9 -25 20 -25 48 0 19 0 35 1 35 0 0 27 -9 60 -21 176 -61 258 -65 278
-14 6 16 -14 116 -41 200 -14 46 -101 255 -109 264 -9 9 -14 -12 -50 -189 -20
-102 -41 -189 -46 -195 -9 -10 -5 90 5 115 5 11 44 188 60 273 1 5 -6 14 -16
20 -15 10 -21 9 -31 -5 -7 -10 -16 -18 -20 -18 -11 0 -6 18 11 35 9 9 29 43
44 75 l28 59 -105 56 c-58 31 -111 54 -117 52 -7 -2 -20 0 -30 5 -14 7 -23 0
-49 -42z"/>
<path d="M2402 4634 c-29 -20 -28 -39 8 -119 17 -38 59 -152 94 -256 35 -103
67 -193 71 -199 4 -6 16 -8 28 -4 25 8 94 7 150 -2 46 -7 48 5 12 95 -13 35
-29 89 -35 119 -8 47 -18 65 -59 107 -26 27 -85 96 -130 153 -94 117 -109 128
-139 106z"/>
<path d="M3060 4633 c-93 -11 -110 -16 -110 -27 0 -8 7 -19 15 -26 20 -17 9
-33 -15 -20 -14 8 -21 5 -34 -15 -10 -15 -12 -26 -6 -30 6 -3 10 -20 10 -37 0
-18 4 -45 10 -62 5 -17 15 -50 21 -74 6 -26 15 -42 22 -39 18 6 177 298 177
325 0 10 -35 12 -90 5z"/>
<path d="M2634 4598 c-2 -3 -29 -4 -59 -1 -33 4 -55 2 -55 -4 0 -5 21 -35 48
-66 26 -31 78 -92 116 -137 84 -99 128 -125 199 -116 27 3 52 7 54 10 3 3 -2
33 -12 68 -9 35 -24 92 -33 128 -15 58 -20 65 -44 68 -17 2 -36 15 -49 33 -20
29 -23 30 -91 27 -38 -2 -72 -6 -74 -10z"/>
<path d="M3156 4383 c-4 -12 -38 -50 -76 -86 -39 -35 -70 -68 -70 -73 0 -5 24
-22 53 -38 28 -16 66 -37 84 -48 l32 -19 -21 -34 c-21 -37 -32 -43 -44 -24 -4
7 1 16 10 21 31 17 16 37 -65 82 -45 25 -85 46 -89 46 -10 0 -121 -168 -127
-190 -1 -8 10 -31 26 -50 29 -34 30 -34 44 -16 14 19 14 19 26 0 11 -17 12
-16 7 8 -4 15 -2 29 3 32 5 3 23 31 40 61 17 30 33 55 36 55 14 0 75 -35 75
-43 0 -12 31 -36 47 -37 6 0 34 40 61 89 l49 89 -23 11 c-13 5 -41 22 -64 36
l-40 25 26 41 c20 32 24 46 16 63 l-9 21 -7 -22z"/>
<path d="M2754 4263 c3 -10 10 -37 16 -61 15 -59 47 -132 58 -132 13 0 94 125
96 147 1 14 -7 18 -40 19 -23 0 -58 10 -78 22 -45 27 -59 28 -52 5z"/>
<path d="M1755 3816 c-13 -9 -19 -26 -19 -51 0 -57 31 -78 239 -167 82 -35
201 -52 210 -30 9 25 5 27 -56 30 -61 3 -109 17 -164 46 -16 9 -35 16 -41 16
-24 0 -125 52 -138 72 -19 26 -5 58 25 58 11 0 52 -14 90 -31 108 -47 181 -67
255 -71 84 -4 100 16 20 26 -54 6 -208 55 -299 95 -56 24 -95 27 -122 7z"/>
<path d="M4007 3739 c-8 -19 -45 -101 -82 -182 -54 -116 -66 -152 -58 -165 7
-12 7 -24 0 -39 -11 -25 -22 -29 -33 -12 -4 7 -12 -2 -21 -22 -12 -29 -12 -34
2 -41 13 -8 13 -12 0 -38 -10 -19 -20 -27 -30 -24 -20 8 -45 -44 -26 -55 19
-12 3 -64 -19 -58 -13 3 -23 -8 -39 -40 -21 -44 -29 -72 -10 -40 10 17 39 24
39 9 0 -4 -7 -18 -16 -30 -12 -17 -19 -20 -29 -12 -9 8 -16 3 -25 -21 -11 -26
-11 -32 1 -40 8 -5 17 -9 20 -9 7 0 41 75 120 260 33 80 71 162 82 183 20 36
20 39 4 48 -15 9 -16 12 -1 34 8 13 22 21 29 19 8 -4 20 6 29 24 15 28 14 30
-5 35 -20 5 -20 6 -3 32 9 14 23 24 30 21 8 -3 20 8 29 26 18 38 18 38 0 38
-18 0 -19 14 -4 41 7 14 16 18 30 14 10 -4 19 -4 19 -2 0 3 7 22 16 43 13 31
13 36 2 26 -11 -8 -17 -9 -26 0 -8 8 -14 2 -25 -23z"/>
<path d="M1188 3750 c-35 -11 -108 -70 -108 -88 0 -27 131 -267 158 -289 15
-13 50 -39 79 -59 l52 -36 46 28 c38 22 62 27 136 32 l91 5 -8 36 c-4 20 -7
47 -6 61 0 17 -14 40 -43 70 -23 25 -55 68 -70 95 -44 82 -92 133 -133 145
-43 12 -155 12 -194 0z"/>
<path d="M1657 3393 c3 -32 7 -59 8 -61 1 -2 20 -5 41 -8 22 -3 53 -12 71 -20
31 -14 73 -19 73 -9 0 22 -160 155 -187 155 -8 0 -10 -17 -6 -57z"/>
<path d="M1431 3294 c-54 -27 -58 -32 -64 -71 -2 -12 -6 -26 -10 -29 -11 -12
-8 -26 4 -18 6 3 14 2 18 -3 6 -9 153 -83 165 -83 3 0 29 -11 58 -25 65 -31
117 -32 182 -1 28 13 74 34 101 46 105 46 137 63 142 76 8 22 -39 96 -57 89
-23 -10 -169 -6 -188 4 -35 18 -163 41 -230 41 -54 0 -79 -6 -121 -26z"/>
<path d="M2158 3213 c-26 -21 -47 -42 -47 -48 -1 -5 7 -23 17 -39 14 -23 25
-29 62 -31 56 -5 95 -43 86 -85 -5 -27 -4 -28 57 -32 80 -7 132 17 154 69 13
33 13 40 -2 80 -11 28 -27 49 -46 59 -24 12 -209 64 -229 64 -3 0 -26 -17 -52
-37z"/>
<path d="M2984 3197 c-47 -48 -76 -108 -70 -142 6 -32 10 -34 87 -55 84 -22
120 -23 127 -2 2 8 -7 12 -30 12 -33 0 -157 52 -169 72 -4 5 5 28 20 50 l26
40 91 -4 c59 -2 98 -9 109 -18 14 -12 18 -12 25 1 13 20 2 27 -76 49 -87 25
-114 24 -140 -3z"/>
<path d="M2062 3118 c-6 -29 -18 -92 -26 -139 -9 -47 -14 -94 -10 -103 6 -15
12 -12 45 20 43 42 54 39 15 -3 -14 -15 -23 -30 -20 -35 7 -12 118 -10 151 3
36 13 143 82 143 92 0 4 -22 7 -48 7 -39 0 -53 -5 -72 -25 -44 -47 -113 -20
-145 57 -14 35 -14 38 10 66 l25 30 -23 41 c-12 22 -25 41 -29 41 -4 0 -11
-24 -16 -52z"/>
<path d="M2000 3141 c-14 -10 -62 -32 -108 -51 -45 -18 -94 -41 -107 -52 -14
-11 -25 -17 -25 -13 0 3 -14 -2 -31 -11 -29 -15 -31 -18 -25 -57 4 -22 14 -64
22 -91 9 -28 18 -57 20 -65 3 -10 15 -12 47 -7 89 14 114 26 159 74 48 51 66
104 84 240 7 56 2 61 -36 33z"/>
<path d="M1349 3102 c-12 -20 -14 -33 -7 -40 6 -6 10 -56 10 -111 0 -56 3
-103 7 -105 3 -2 40 15 81 39 41 24 100 57 130 73 86 46 81 61 -37 117 -54 26
-114 49 -133 52 -31 4 -37 1 -51 -25z"/>
<path d="M1251 3033 c-18 -21 -43 -50 -57 -66 -27 -30 -28 -41 -14 -83 5 -16
14 -48 20 -71 8 -32 16 -43 30 -43 11 0 20 4 20 9 0 5 16 12 35 15 31 6 50 26
25 26 -5 0 -10 5 -10 10 0 6 7 10 15 10 13 0 15 18 13 113 -3 105 -4 112 -24
115 -14 2 -31 -9 -53 -35z"/>
<path d="M1606 2955 c-15 -14 -32 -25 -38 -25 -16 0 -88 -42 -88 -52 0 -4 -7
-8 -15 -8 -13 0 -44 -16 -74 -37 -2 -1 -5 -18 -7 -37 -2 -34 -1 -35 40 -41 38
-6 91 -3 176 8 14 2 39 5 56 5 16 1 39 8 49 16 19 13 19 16 1 92 -10 44 -23
85 -28 92 -16 19 -43 14 -72 -13z"/>
<path d="M2913 2947 c-4 -7 -7 -20 -8 -29 0 -10 -4 -18 -10 -18 -5 1 -9 12 -8
26 1 16 -2 24 -10 21 -7 -2 -12 -15 -12 -28 0 -14 -6 -25 -15 -25 -8 -1 -21
-2 -27 -3 -7 0 -12 -11 -10 -23 2 -20 -2 -23 -28 -21 -16 1 -31 7 -33 13 -4
12 -42 14 -42 2 0 -4 5 -13 11 -19 19 -19 -117 -150 -250 -240 -3 -2 0 -8 6
-14 8 -8 19 -7 40 5 42 23 105 47 111 42 2 -3 -6 -9 -19 -14 -13 -6 -36 -15
-51 -21 -16 -6 -28 -17 -28 -26 0 -23 -76 -57 -110 -50 -16 3 -31 2 -35 -4 -3
-6 -12 -11 -18 -11 -14 0 33 39 48 40 6 0 16 4 24 9 12 8 12 12 3 24 -11 12 0
24 66 70 92 65 198 172 194 195 -7 34 -22 33 -82 -8 -34 -23 -103 -61 -153
-85 -193 -89 -213 -100 -262 -136 -79 -59 -103 -85 -212 -230 -121 -161 -132
-183 -105 -218 28 -38 53 -37 81 4 32 48 214 221 281 269 l55 38 -69 -66 c-37
-36 -71 -66 -75 -66 -9 0 -151 -148 -181 -188 -26 -35 -24 -41 27 -66 21 -11
61 -35 90 -53 28 -18 56 -33 61 -33 6 0 56 -27 111 -60 56 -33 113 -60 128
-60 14 0 32 -8 38 -17 12 -16 15 -17 32 -1 10 9 27 18 38 20 16 3 20 11 21 48
0 36 10 61 53 130 29 47 68 105 86 130 54 74 175 357 175 410 0 14 7 20 23 20
20 0 23 5 25 44 1 39 -1 43 -18 39 -22 -6 -23 -4 -24 75 l-1 54 38 -5 c52 -7
73 14 69 70 -3 41 -24 64 -39 40z"/>
<path d="M1144 2893 c-3 -13 -11 -23 -18 -23 -6 -1 -24 -19 -41 -41 -16 -22
-45 -56 -62 -76 -30 -32 -41 -53 -28 -53 17 0 182 43 188 49 4 4 -1 43 -12 87
-15 60 -21 74 -27 57z"/>
<path d="M1615 2745 c-38 -7 -107 -12 -152 -11 -63 1 -83 -2 -83 -12 0 -24 23
-107 33 -120 5 -7 10 -20 11 -30 2 -26 37 -124 54 -149 14 -22 52 -32 52 -15
0 5 12 22 28 40 49 56 122 149 122 156 0 4 11 19 25 34 32 34 41 66 26 98 -12
27 -17 27 -116 9z"/>
<path d="M1641 2511 c-17 -21 -31 -43 -31 -47 0 -5 -14 -22 -31 -39 -63 -61
-58 -74 44 -129 82 -44 91 -36 83 72 -10 131 -17 182 -26 182 -5 0 -22 -18
-39 -39z"/>
<path d="M1490 2313 c-11 -14 -20 -30 -20 -34 0 -11 -68 -101 -83 -110 -20
-13 2 -39 35 -40 18 -1 44 -3 58 -5 36 -5 184 6 199 15 7 5 13 29 14 55 l2 46
-92 49 -93 49 -20 -25z"/>
<path d="M1817 2146 c-3 -8 -7 -68 -8 -133 l-2 -118 49 -30 c27 -17 69 -45 93
-63 24 -17 49 -32 55 -32 6 -1 27 -14 46 -30 19 -17 41 -30 48 -30 8 0 30 -14
49 -30 29 -26 37 -29 50 -19 12 10 21 9 49 -6 19 -10 34 -22 34 -27 0 -11 -4
-10 -34 3 -20 9 -28 9 -40 -4 -14 -13 -14 -16 0 -27 12 -11 13 -10 9 3 -8 20
10 30 24 13 8 -9 8 -16 2 -20 -6 -4 -8 -13 -5 -20 3 -8 1 -16 -4 -20 -5 -3 -5
-28 -1 -58 4 -29 8 -66 8 -82 2 -55 -8 -21 -19 69 -9 70 -15 92 -31 103 -13 9
-19 22 -16 32 4 14 -10 28 -51 55 l-55 37 -18 -23 c-21 -27 -23 -41 -9 -55 6
-6 -1 -30 -21 -69 -46 -90 -50 -93 -96 -59 -21 15 -39 29 -41 30 -5 3 33 64
40 64 3 0 16 16 28 35 17 28 26 34 45 29 18 -4 26 0 38 25 14 29 14 31 -9 46
-13 8 -26 15 -29 15 -3 0 -30 18 -59 40 -29 22 -57 40 -63 40 -5 0 -20 9 -33
20 -28 25 -40 25 -40 3 0 -23 -18 -186 -26 -235 l-6 -37 101 -65 c56 -36 103
-66 106 -66 5 0 114 -67 124 -76 2 -2 2 -6 -1 -9 -3 -3 -35 14 -71 37 -116 75
-236 148 -246 148 -10 0 -14 -19 -37 -187 -10 -73 -21 -130 -25 -128 -3 3 -5
15 -3 27 48 316 47 301 29 310 -15 9 -15 11 -1 21 17 13 26 73 29 205 l2 84
-43 15 c-24 8 -46 12 -48 10 -3 -2 -12 -33 -20 -68 -15 -60 -23 -85 -52 -149
-21 -48 -12 6 13 80 29 84 31 110 10 110 -9 0 -21 -25 -35 -72 -44 -154 -104
-318 -111 -307 -13 21 -28 -1 -22 -34 3 -23 0 -37 -11 -46 -13 -11 -14 -17 -5
-27 9 -11 15 -11 25 -3 9 8 14 8 14 1 0 -6 -9 -14 -20 -17 -44 -14 -17 -54 62
-90 32 -14 78 -39 104 -56 34 -23 48 -29 57 -20 17 17 27 13 27 -13 0 -28 79
-86 117 -86 28 0 74 -22 92 -44 18 -21 8 -20 -39 4 -22 11 -48 20 -59 20 -10
0 -42 16 -70 35 -32 21 -58 32 -68 28 -12 -5 -15 -2 -10 10 8 20 1 26 -121 87
-95 48 -106 51 -130 39 -15 -7 -30 -12 -35 -11 -4 1 -13 -9 -19 -23 -11 -25
-28 -34 -28 -15 0 5 11 35 25 65 21 49 22 57 8 62 -9 4 -20 -1 -27 -12 -13
-23 -150 -278 -208 -390 -25 -49 -43 -73 -46 -63 -2 9 4 30 12 47 20 38 20 38
-5 44 -15 4 -23 -1 -31 -21 -6 -15 -10 -31 -9 -35 1 -4 -5 -15 -14 -23 -8 -9
-15 -11 -15 -5 0 19 -19 12 -31 -10 -9 -17 -8 -23 2 -30 11 -6 9 -13 -9 -29
-18 -17 -20 -25 -12 -40 20 -38 70 -18 70 27 0 30 11 29 40 -2 15 -16 30 -23
41 -20 23 8 43 -27 27 -43 -9 -9 -8 -12 5 -12 20 0 22 -11 6 -27 -8 -8 -1 -17
29 -32 26 -13 40 -16 39 -8 -1 33 4 47 18 47 8 0 15 7 15 15 0 8 8 19 19 24
26 14 60 -21 42 -43 -14 -17 -1 -25 102 -66 l58 -23 15 22 c18 25 30 26 50 7
18 -18 18 -21 -2 -41 -16 -15 -12 -21 51 -85 54 -55 72 -67 82 -58 8 6 11 18
8 26 -3 8 2 16 14 19 11 3 21 13 24 24 7 25 36 36 48 18 8 -12 12 -10 25 6 8
11 20 19 26 17 20 -6 37 19 32 47 -5 22 5 44 40 100 25 39 46 73 46 76 0 3 17
30 37 61 l36 55 -21 15 c-22 15 -30 44 -12 44 6 0 10 7 10 15 0 8 7 15 15 15
9 0 15 6 14 13 -4 35 26 60 43 35 6 -10 12 -8 24 7 8 11 25 20 37 20 20 0 22
5 22 47 0 34 6 53 23 70 12 14 22 30 22 36 0 7 7 15 15 18 21 9 19 24 -4 24
-23 0 -36 16 -21 25 5 3 10 15 10 25 0 25 17 35 36 19 8 -6 16 -10 18 -8 8 8
106 196 106 202 0 4 -6 7 -14 7 -7 0 -20 7 -27 16 -11 14 -10 18 6 30 10 8 27
12 37 8 12 -3 18 0 18 10 0 9 5 16 11 16 5 0 8 4 5 9 -4 5 1 42 9 81 14 65 14
74 0 84 -9 6 -21 22 -28 35 -7 12 -43 40 -82 61 -38 22 -83 46 -99 55 -27 16
-31 15 -78 -4 -50 -21 -68 -20 -68 1 0 6 -7 19 -16 29 -9 10 -13 23 -9 29 5 8
10 7 18 -3 14 -17 51 -27 66 -18 6 4 -12 19 -42 35 -52 27 -79 43 -170 97 -53
32 -82 37 -90 15z m-362 -1092 c14 -89 22 -114 43 -137 22 -23 27 -25 35 -12
12 22 42 20 31 -2 -5 -10 -9 -47 -10 -83 0 -51 -4 -66 -16 -68 -9 -2 -19 2
-23 7 -3 6 -19 11 -36 11 -63 0 -95 88 -46 127 22 17 23 22 16 99 -5 44 -13
100 -18 125 -6 24 -10 55 -10 69 l1 25 8 -26 c4 -15 15 -75 25 -135z"/>
<path d="M3113 50 c4 -18 7 -36 7 -41 0 -5 23 -9 50 -9 49 0 50 1 50 30 0 38
18 40 22 3 3 -26 6 -28 53 -28 47 0 50 2 53 28 4 33 22 26 22 -9 0 -22 4 -24
50 -24 49 0 50 1 50 30 0 17 0 33 1 37 0 4 -4 9 -10 11 -7 2 -11 -12 -11 -35
0 -28 -3 -34 -10 -23 -5 8 -10 25 -10 38 0 12 -4 22 -10 22 -5 0 -10 -13 -10
-29 0 -42 -18 -48 -22 -9 -3 29 -6 33 -33 33 -26 -1 -31 -5 -36 -35 l-6 -35
-4 35 c-5 44 -23 46 -27 2 -4 -39 -22 -33 -22 7 0 24 -4 28 -30 28 -26 0 -30
-4 -30 -28 0 -15 -4 -31 -10 -34 -6 -4 -10 9 -10 30 0 47 -23 42 -31 -6 l-6
-34 -4 34 c-2 19 -10 37 -18 39 -11 4 -13 -3 -8 -28z"/>
</g>
</svg>
